/* XPM */
static char *_b713b08e5fd48e3f8de85e1a12c9fc27sSkthUsUvMold1O[] = {
/* columns rows colors chars-per-pixel */
"60 60 127 2 ",
"   c None",
".  c #673809",
"X  c #6B3B0A",
"o  c #6F400A",
"O  c #7E4C09",
"+  c #6C4C11",
"@  c #6A5514",
"#  c #695916",
"$  c #547713",
"%  c #5B7711",
"&  c #567A1B",
"*  c #5B7E1D",
"=  c #65750D",
"-  c #6B7B0C",
";  c #69651C",
":  c #617A11",
">  c #687222",
",  c #677C26",
"<  c #83530A",
"1  c #935F07",
"2  c #905F0B",
"3  c #9F6907",
"4  c #9B6B0C",
"5  c #87780A",
"6  c #8F7F0A",
"7  c #A06A07",
"8  c #AE7B07",
"9  c #AA7C0A",
"0  c #B37D06",
"q  c #77800D",
"w  c #7C810C",
"e  c #5F8021",
"r  c #618425",
"t  c #64862A",
"y  c #66882B",
"u  c #6A8A2B",
"i  c #748E29",
"p  c #8D8E1C",
"a  c #8F901C",
"s  c #949916",
"d  c #9F9819",
"f  c #A68B07",
"g  c #A8960A",
"h  c #B79C11",
"j  c #ABA51B",
"k  c #B9AD1C",
"l  c #9A9D20",
"z  c #C58D03",
"x  c #C09305",
"c  c #CC9001",
"v  c #C3930F",
"b  c #CE9908",
"n  c #D39702",
"m  c #D79A01",
"M  c #D89C01",
"N  c #DDA203",
"B  c #D2A413",
"V  c #CAB419",
"C  c #E0A604",
"Z  c #E4AB06",
"A  c #E8AF06",
"S  c #E3AD0A",
"D  c #E8AF08",
"F  c #EAB106",
"G  c #E7B00A",
"H  c #EAB30A",
"J  c #EEBA0D",
"K  c #F2BD0C",
"L  c #F4C10D",
"P  c #FAC50D",
"I  c #FFCB0F",
"U  c #F5C311",
"Y  c #FECC11",
"T  c #FFCE1A",
"R  c #FFD215",
"E  c #FFD319",
"W  c #F5C824",
"Q  c #FFCF21",
"!  c #FFD324",
"~  c #FFD42B",
"^  c #FFD433",
"/  c #FFD833",
"(  c #FFD63F",
")  c #FFD539",
"_  c #FFD938",
"`  c #FFDA3C",
"'  c #FFD640",
"]  c #FFD745",
"[  c #FFD740",
"{  c #FFD847",
"}  c #FFD84A",
"|  c #FFDC4A",
" . c #FFD94E",
".. c #FFDB52",
"X. c #FFDF53",
"o. c #FFDC55",
"O. c #FFDC5B",
"+. c #FFDC5C",
"@. c #FFDE5F",
"#. c #FFE05B",
"$. c #FFE05E",
"%. c #FFDE61",
"&. c #FFDF69",
"*. c #FFE164",
"=. c #FFE16D",
"-. c #FFE06A",
";. c #FFE374",
":. c #FDE27A",
">. c #FEE57F",
",. c #FFE37B",
"<. c #FFE78A",
"1. c #FFE78C",
"2. c #FFE78A",
"3. c #FFE88F",
"4. c #FFEA8E",
"5. c #FFE98B",
"6. c #FFE993",
"7. c #FFEB94",
"8. c #FFEA98",
"9. c #FFEB99",
"0. c #FFEEAB",
"q. c #FFEFAC",
"w. c #FFEFAE",
"e. c #FFF0B1",
"r. c #FFF0B2",
"t. c #FFF1B6",
"y. c #FFF1B8",
/* pixels */
"                                                                                                                        ",
"                                                                                                                        ",
"                                                                                                                        ",
"                                                                                                                        ",
"                                                                                                                        ",
"                                                                                                                        ",
"                                                                                                                        ",
"                                                                                                                        ",
"                                  X                                                                                     ",
"                                X X                                                                                     ",
"                            O O < <                                                                                     ",
"                            c N K K Y Y I                                                                               ",
"                            M N F Y =.} I                                                                               ",
"                            M m C T 9.3. .                                                                              ",
"                            M M N U :.e.6.T                                                                             ",
"                    X o     M M M N U =.3.T I                                                                           ",
"                X X . 4 R   m M M M L ! ^ I I I P                                                                       ",
"                3 7 9 B R P N M M M D L ! O.Q I I                                                                       ",
"                M M L R R Y H N M M m H ^ <.~ Y Y Y                                                     X X             ",
"                M M L R Y I I H M M M H Y T Y Y R R R                                                 X X X X X         ",
"                M M L R I I I H m M M N A I I Y I Y R R R                                           X X X X X X         ",
"                M M L _ +.T I L A M M m C I I I I I Y R R R R                                     X X X @ ; ; ;         ",
"                M M L #.0.{ T I P Z M M N K Y Y I I I Y R R R R                                 # + X + > t r r         ",
"                M M L X.e.e.( I I I Z M M N K Y I I I Y Y Y R R R R                           t t > + , t e $ $         ",
"                M M L ! | q.' I I I P D m M N K I I I Y Y I Y Y Y R R                         t t t , t * $ $           ",
"                M M Z K / q.1.] I I I L F M m C F A A L I I I I Y Y R R R R R R             t t t r * * $ = 5           ",
"                m M m Z W >.3...T ( T Y P Z M M M M m H K K I Y Y Y R R R R R R R         j t y t r % q w 6 0           ",
"                  m M M N Y E Y ~ 9.^ I I I Z M M M M M M N L P I I I I Y Y Y R R R R R Y V u y t e : x n z 8           ",
"          X X X   M M M M N U R E ! T Y I I P Z M M M M M M N N H I I I Y Y I Y Y Y Y I k i t y * $ % 9 0 0 8           ",
"        X X X 2 P K C m M m Z L R R R Y I I I L K H M m M m m m N Z Z P Y I I I I P A Z d t t t & - f 8 b S S           ",
"        1 1 4 v Y I H C M M m Z K K T R Y Y Y Y I I F Z Z Z Z N m m m F K K K K K H M C h p a l s g M b J I I           ",
"        m M K R R Y I K N M M M M M U Y Y Y R T Y Y I Y Y I I H N N N N N N N N N N N K A M N P I K N P I I I           ",
"        M M K R R Y I I K N M M M M N N N N Y R R R Y Y Y I I I P P P P P P P P P P P Z M C P Y I K N P I I I           ",
"        M M K R R I I I I K K Z m M M M M M S D J R R R Y I Y Y Y I I I Y Y Y Y K Z Z M Z L Y Y I K N P I I             ",
"        M M K R E ..o.) I I I K Z M M M M M M m N J J Y R Y K P I I I I I I I K Z M Z A K I I I Y K N P I               ",
"        M M K R ~ 6.y.:.I Y Y I P C N N M M M M M m m J Y U N H P P P P P P L C M Z I I I Y Y Y R L N P                 ",
"        M M K R E ! 5.:.Y Y Y I I I I H M M M M M M M M N N M M N N M M N N N M H I I I I Y R R R L M                   ",
"          M N J R R / *.:.T I I I Y Y P K K K Z m M M M M m M M m m m m Z K K K P Y Y I I Y R R J N M                   ",
"          m m N K R R _ ;.%.+.) I I I I I I I K F F F H H F F H H F F F K I I I I I I I I Y R R H m                     ",
"          m M M N L T R ~ 6.y.>.~ Y I I I I I I I I I I I I I I I I I I I I I I I I I I Y R R R H n                     ",
"          m M M M M L R R ! 5.y.<.T I Y I I Y Y I I I Y Y I I Y Y I I I Y Y I I Y Y Y R R R R R G n                     ",
"            m M M M N Z D R / ` / R Y I I I I I I I I Y Y I I Y Y I I I Y Y Y I Y Y R R R R T G N n                     ",
"              m M M M m N H Y R R R R ' -.&.&.^ I I I Y Y I I Y Y I I I Y Y Y Y T R R R R R Y N m                       ",
"                m M M M M M J Y R R R o.7.7.y.+.I Y Y Y Y Y I I I I Y Y Y Y R R R R R R R Y P N                         ",
"                  m m M M M M F I T T E E ! 7.$.R R R R R R Y Y Y Y R R R R R R R R T T Y I                             ",
"                      n M M M N C C C K R E / ! R R R R R R R R R R R R E R R R E Y Z N Z                               ",
"                            m M M M M Z H H H H H H H U E R R E E T J H H H H H H G                                     ",
"                            m m m m M M m m M M m m m H U L L U U J M N Z Z Z M m m                                     ",
"                                    m M M M M M M M M N N N N N N N N K I I I                                           ",
"                                            M M C P P P P P P P P P P                                                   ",
"                                              m N Z A K                                                                 ",
"                                                m m m                                                                   ",
"                                                                                                                        ",
"                                                                                                                        ",
"                                                                                                                        ",
"                                                                                                                        ",
"                                                                                                                        ",
"                                                                                                                        ",
"                                                                                                                        ",
"                                                                                                                        "
};
