/* XPM */
static char *bc641242fa40453597b524c84d799348Jkqoug6XmrUG4gX9[] = {
/* columns rows colors chars-per-pixel */
"68 50 65 1 ",
"  c None",
". c gray18",
"X c #2E2F2F",
"o c #2F2F2F",
"O c #302D2C",
"+ c #302E2D",
"@ c #302E2E",
"# c #302F2E",
"$ c #302F2F",
"% c #30302F",
"& c #2F3030",
"* c gray19",
"= c #313232",
"- c #333535",
"; c #333637",
": c #2F3E43",
"> c #2F3F45",
", c #2D4D57",
"< c #2B5868",
"1 c #2D6376",
"2 c #2C768F",
"3 c #2D7891",
"4 c #2D7892",
"5 c #2D7992",
"6 c #2E7B95",
"7 c #327991",
"8 c #2C809C",
"9 c #359DC0",
"0 c #359DC1",
"q c #2AABD7",
"w c #2FAEDA",
"e c #2AB5E5",
"r c #29B6E6",
"t c #26BDF0",
"y c #27BDF0",
"u c #26BDF1",
"i c #27BDF1",
"p c #27BEF0",
"a c #27BEF1",
"s c #26BEF2",
"d c #27BEF2",
"f c #28BDF1",
"g c #28BEF1",
"h c #29BEF1",
"j c #28BFF1",
"k c #29BFF1",
"l c #2ABEF1",
"z c #2ABFF1",
"x c #2BBFF1",
"c c #28BEF2",
"v c #29BEF2",
"b c #28BFF2",
"n c #29BFF2",
"m c #29BFF3",
"M c #2ABEF2",
"N c #2ABFF2",
"B c #2BBFF2",
"V c #2CBEF1",
"C c #2CBFF1",
"Z c #29C0F3",
"A c #2AC0F3",
"S c #29C0F4",
"D c #29C1F4",
"F c #28C1F5",
"G c #29C1F5",
/* pixels */
"                                                                    ",
"                                                                    ",
"                           nnnnnnnnnnnnnn                           ",
"                           nnnnnnnnnnnnnn                           ",
"                           nnnnnnnnnnnnnn                           ",
"                    nnnnnnnnnnnnnnnnnnnnnnnnnnnn                    ",
"                    nnnnnnnnnnnnnnnnnnnnnnnnnnnn                    ",
"                    nnnnnnnnnnnnnnnnnnnnnnnnnnnn                    ",
"                   nnnnnnnnnnnnnnnnnnnnnnnnnnnnn                    ",
"                nnnnnnnnnnnnnnnnnnnnnnnnnnnnnnnnnnnn                ",
"                nnnnnnnnnnnnnnnnnnnnnnnnnnnnnnnnnnnn                ",
"                nnnnnnnnnnnnnnnnnnnnnnnnnnnnnnnnnnn                 ",
"             nnnnnnnnnnn      nnnnnnnnnnnnnn        nnn             ",
"             nnnnnnnnnnn      nnnnnnnnnnnnnn        nnn             ",
"             nnnnnnnnnnn      Vnnnnnnnnnnnnn        nnn             ",
"             nnnnnnn              nnnnnnn                           ",
"             nnnnnna              nnnnnnn                           ",
"             nnnnnnn              nnnnnnn                           ",
"             nnnnnnn             <rAnnnnn                           ",
"             nnnnnnn       &****@>qDnnnnn       .*****.             ",
"             nnnnnnn       *****@>qDnnnnn       .*****.             ",
"             nnnnnnn       *****@>qDnnnnn       .******7            ",
"         annnnnnnnnn       *****@>qDnnnnn       .****%;9Dna         ",
"         nnnnnnnnnnn       ***@@@:qDnnnnn       .**@@@;9Dna         ",
"         annnnnnnnnnnnn     . 1558rAnnnnnnnn     . ,256wAna         ",
"         annnnnnnnnnnnnn      ADDDnnnnnnnnnn        DDDnnna         ",
"         nnnnnnnnnnnnnnn      Vnnnnnnnnnnnnn        nnnnnna         ",
"         nnnnnnnnnnnnnnnnnnnnnnnnnnnnnnnnnnnn       nnnnnna         ",
"         annnnnnnnnnnnnnnnnnnnnnnnnnnnnnnnnnnnnnnnnnnnnnnna         ",
"         nnnnnnnnnnnnnnnnnnnnnnnnnnnnnnnnnnnnnnnnnnnnnnnnna         ",
"         nnnnnnnnnnnnnnnnnnnnnnnnnnnnnnnnnnnnnnnnnnnnnnnnna         ",
"         nnnnnnnnnnnnnnnnnnnnnnnnnnnnnnnnnnnnnnnnnnnnnnnnna         ",
"         nnnnnnnnnnnnnnnnnnnnnnnnnnnnnnnnnnnnnnnnnnnnnnnnna         ",
"         nnnnnnnnnnnnnnnnnnnnnnnnnnnnnnnnnnnnnnnnnnnnnnnnna         ",
"         nnnnnnnnnnnnnnnnnnnnnnnnnnnnnnnnnnnnnnnnnnnnnnnnna         ",
"         nnnnnnnnnnnnnnnnnnnnnnnnnnnnnnnnnnnnnnnnnnnnnnnnna         ",
"         nnnnnnnnnnnnnnnnnnnnnnnnnnnnnnnnnnnnnnnnnnnnnnnnna         ",
"         nnnnnnnnnnnnnnnnnnnnnnnnnnnnnnnnnnnnnnnnnnnnnnnnna         ",
"         nnnnnnnnnnnnnnnnnnnnnnnnnnnnnnnnnnnnnnnnnnnnnnnnna         ",
"         nnnnnnnnnnnnnnnnnnnnnnnnnnnnnnnnnnnnnnnnnnnnnnnnna         ",
"         nnnnnnnnnnnnnnnnnnnnnnnnnnnnnnnnnnnnnnnnnnnnnnnnna         ",
"         nnnnnnn    nnnnnnnnnn        nnnnnnnnnn    nnnnnna         ",
"         nnnnnnn    nnnnnnnnnn        nnnnnnnnnn    nnnnnna         ",
"         annnnnn    nnnnnnnnnn        nnnnnnnnnn    nnnnnna         ",
"         nnna           nnnnnn        nnnnnn           nnna         ",
"         anna           nnnnnn        nnnnnn           nnna         ",
"         anna           nnnnnn        nnnnnn           nnna         ",
"                                                                    ",
"                                                                    ",
"                                                                    "
};
