/* XPM */
static char *_657eaddd1fd4208c01798e3517f621dwSZNaIO99FiHN8Yk[] = {
/* columns rows colors chars-per-pixel */
"60 60 91 1 ",
"  c #4CAF50",
". c #4BAF50",
"X c #6CB94D",
"o c #8CC34A",
"O c #8BC34A",
"+ c #54B14F",
"@ c #83C14B",
"# c #4AAE50",
"$ c #8DC44A",
"% c #84C14B",
"& c #5CB44F",
"* c #50B050",
"= c #68B84D",
"- c #6CBA4D",
"; c #4BB050",
": c #4CB050",
"> c #8CC44A",
", c #8BC44A",
"< c #54B24F",
"1 c #69B14C",
"2 c #4DA14D",
"3 c #4EA24D",
"4 c #51A44F",
"5 c #52A44F",
"6 c #4FAA50",
"7 c #4DAE50",
"8 c #51A54F",
"9 c #6BAC4B",
"0 c #86B348",
"q c #85B348",
"w c #7FB349",
"e c #53B04F",
"r c #4DA84E",
"t c #4EA14D",
"y c #53B350",
"u c #577F45",
"i c #5B4C3A",
"p c #5B4D3A",
"a c #5E503C",
"s c #715E47",
"d c #746049",
"f c #745F49",
"g c #60874C",
"h c #6F694A",
"j c #6B5841",
"k c #625039",
"l c #635039",
"z c #634F39",
"x c #605B3C",
"c c #4FA44D",
"v c #537E45",
"b c #547743",
"n c #5D3E36",
"m c #5D3F37",
"M c #614239",
"N c #765246",
"B c #7A5448",
"V c #795448",
"C c #7A5348",
"Z c #63824C",
"A c #7A5548",
"S c #6B4A3F",
"D c #5C3F37",
"F c #5D3E37",
"G c #4CB150",
"H c #557743",
"J c #557844",
"K c #5D4037",
"L c #604339",
"P c #795548",
"I c #6B4B40",
"U c #4BB250",
"Y c #547843",
"T c #5C4037",
"R c #604239",
"E c #765346",
"W c #62834C",
"Q c #4BB150",
"! c #736049",
"~ c #4DA34D",
"^ c #676646",
"/ c #62824C",
"( c #657D4C",
") c #765A48",
"_ c #725044",
"` c #6A5141",
"' c #647B4A",
"] c #63453B",
"[ c #6D4C41",
"{ c #775447",
"} c white",
/* pixels */
"      .XoOOOOOOOOOOOOoX.     +@OOOOOoX.            .XoOOOOOO",
"      .XoOOOOOOOOOOOOoX.     +@OOOOOoX.            .XoOOOOOO",
"      .XoOOOOOOOOOOOOoX.     +@OOOOOoX.            .XoOOOOOO",
"      .XoOOOOOOOOOOOOoX.     +@OOOOOoX.            .XoOOOOOO",
"      .XoOOOOOOOOOOOOoX.     +@OOOOOoX.            .XoOOOOOO",
"      .XoOOOOOOOOOOOOoX.     +@OOOOOoX.            .XoOOOOOO",
"......#X$oooooooooooo$X.     +%ooooo$X#......      .X$oooooo",
"XXXXXXXXXXXXXXXXXXXXXX&      *=XXXXXXXXXXXXX=*      &XXXXXXX",
"oooooo$X#.............        ......#X$ooooo%+       .......",
"OOOOOOoX.                           .XoOOOOO@+              ",
"OOOOOOoX.                           .XoOOOOO@+              ",
"OOOOOOoX.                           .XoOOOOO@+              ",
"OOOOOOoX.                           .XoOOOOO@+              ",
"OOOOOOo-;:::::::::::::        ::::::.->,,,,>%<       :::::::",
"@@@@@@%1233333344444456      7844444490qqqq0we      rt333333",
"++++++yuipppppasdddddfg;    :8hfdddddjkllllzxc:    :vipppppp",
"      ;bnmmmmmMNBVVVVCZ;    :4fBVVVVASDmmmmFit:    GHnmmmmmm",
"      GJFKKKKKLNPPPPPBZ;    :4dVPPPPPIKKKKKmp3:    GJFKKKKKK",
"      GJFKKKKKLNPPPPPBZ;    :4dVPPPPPIKKKKKmp3:    GJFKKKKKK",
"      GJFKKKKKLNPPPPPBZ;    :4dVPPPPPIKKKKKmp3:    GJFKKKKKK",
"      GJFKKKKKLNPPPPPBZ;    :4dVPPPPPIKKKKKmp3:    GJFKKKKKK",
";;;;;;UYnKKKKTREAPPPPBWU;;;;Q8!VPPPPPSDKKKKmp~Q;;;;UYnKKKKKK",
"ZZZZZZW^SIIIIIIIIIIIIS^WZZZZ/()PPPPPP_SIIIIS`'/ZZZZW^SIIIIII",
"BBBBBBBAPPPPPAERTKKKKDSBBBBBBBPPPPPPPPPPPPPPPBBBBBBBAPPPPPPP",
"PPPPPPPPPPPPPPNLKKKKKKIPPPPPPPPPPPPPPPPPPPPPPPPPPPPPPPPPPPPP",
"PPPPPPPPPPPPPPNLKKKKKKIPPPPPPPPPPPPPPPPPPPPPPPPPPPPPPPPPPPPP",
"PPPPPPPPPPPPPPNLKKKKKKIPPPPPPPPPPPPPPPPPPPPPPPPPPPPPPPPPPPPP",
"PPPPPPPPPPPPPPNLKKKKKKIPPPPPPPPPPPPPPPPPPPPPPPPPPPPPPPPPPPPP",
"PPPPPPPPPPPPPPNRKKKKKTSPPPPPPPPPPPPPPPPPPPPPPPPPPPPPPPPPPPPP",
"PPPPPPPPPPPPPPE]RLLLLR[PPPPPPPENNNNNN{PPPPPPPPPPPPPP{NNNNNNN",
"PPPPPPPPPPPPPPPENNNNNN{PPPPPPE]RLLLLR[PPPPPPPPPPPPPP[RLLLLLL",
"PPPPPPPPPPPPPPPPPPPPPPPPPPPPPNRKKKKKTSPPPPPPPPPPPPPPSTKKKKKK",
"PPPPPPPPPPPPPPPPPPPPPPPPPPPPPNLKKKKKKIPPPPPPPPPPPPPPIKKKKKKK",
"PPPPPPPPPPPPPPPPPPPPPPPPPPPPPNLKKKKKKIPPPPPPPPPPPPPPIKKKKKKK",
"PPPPPPPPPPPPPPPPPPPPPPPPPPPPPNLKKKKKKIPPPPPPPPPPPPPPIKKKKKKK",
"PPPPPPPPPPPPPPPPPPPPPPPPPPPPPNLKKKKKKIPPPPPPPPPPPPPPIKKKKKKK",
"PPPPPPPPPPPPPPPPPPPPPPPPPPPPPNRTKKKKDSPPPPPPPPPPPPPPSDKKKKKK",
"PPPPPPP_SIIIIS[{PPPPPPPPPPPPP{[SIIIIS_PPPPPPPPPPPPPP_SIIIIII",
"PPPPPPPSDKKKKTRNPPPPPPPPPPPPPPPPPPPPPPPPPPPPPPPPPPPPPPPPPPPP",
"PPPPPPPIKKKKKKLNPPPPPPPPPPPPPPPPPPPPPPPPPPPPPPPPPPPPPPPPPPPP",
"PPPPPPPIKKKKKKLNPPPPPPPPPPPPPPPPPPPPPPPPPPPPPPPPPPPPPPPPPPPP",
"PPPPPPPIKKKKKKLNPPPPPPPPPPPPPPPPPPPPPPPPPPPPPPPPPPPPPPPPPPPP",
"PPPPPPPIKKKKKKLNPPPPPPPPPPPPPPPPPPPPPPPPPPPPPPPPPPPPPPPPPPPP",
"PPPPPPPSTKKKKKRNPPPPPPPPPPPPPPPPPPPPPPPPPPPPPPPPPPPPPPPPPPPP",
"PPPPPPP[RLLLLR]EPPPPPP{NNNNNNEPPPPPPP{NNNNNNEPPPPPPPPPPPPPPP",
"PPPPPPP{NNNNNNEPPPPPPP[RLLLLR]EPPPPPP[RLLLLR]EPPPPPPPPPPPPPP",
"PPPPPPPPPPPPPPPPPPPPPPSTKKKKKRNPPPPPPSTKKKKKRNPPPPPPPPPPPPPP",
"PPPPPPPPPPPPPPPPPPPPPPIKKKKKKLNPPPPPPIKKKKKKLNPPPPPPPPPPPPPP",
"PPPPPPPPPPPPPPPPPPPPPPIKKKKKKLNPPPPPPIKKKKKKLNPPPPPPPPPPPPPP",
"PPPPPPPPPPPPPPPPPPPPPPIKKKKKKLNPPPPPPIKKKKKKLNPPPPPPPPPPPPPP",
"PPPPPPPPPPPPPPPPPPPPPPIKKKKKKLNPPPPPPIKKKKKKLNPPPPPPPPPPPPPP",
"PPPPPPPPPPPPPPPPPPPPPPSDKKKKTRNPPPPPPSDKKKKTRNPPPPPPPPPPPPPP",
"PPPPPPP_SIIIIS[{PPPPPP_SIIIIS[{PPPPPP_SIIIIS[{PPPPPP_SIIIIII",
"PPPPPPPSDKKKKTRNPPPPPPPPPPPPPPPPPPPPPPPPPPPPPPPPPPPPSDKKKKKK",
"PPPPPPPIKKKKKKLNPPPPPPPPPPPPPPPPPPPPPPPPPPPPPPPPPPPPIKKKKKKK",
"PPPPPPPIKKKKKKLNPPPPPPPPPPPPPPPPPPPPPPPPPPPPPPPPPPPPIKKKKKKK",
"PPPPPPPIKKKKKKLNPPPPPPPPPPPPPPPPPPPPPPPPPPPPPPPPPPPPIKKKKKKK",
"PPPPPPPIKKKKKKLNPPPPPPPPPPPPPPPPPPPPPPPPPPPPPPPPPPPPIKKKKKKK",
"PPPPPPPIKKKKKKLNPPPPPPPPPPPPPPPPPPPPPPPPPPPPPPPPPPPPIKKKKKKK",
"PPPPPPPIKKKKKKLNPPPPPPPPPPPPPPPPPPPPPPPPPPPPPPPPPPPPIKKKKKKK"
};
