/* XPM */
static char *c53ae1db5f844158df8e694cfe84a2besDvM5ZSQGLQyBvA9[] = {
/* columns rows colors chars-per-pixel */
"60 60 216 2 ",
"   c None",
".  c black",
"X  c #090909",
"o  c #080606",
"O  c #0E1313",
"+  c #0D1A1A",
"@  c #161719",
"#  c #161A1B",
"$  c #181919",
"%  c #0E0F0F",
"&  c #2E211A",
"*  c #161F21",
"=  c #132424",
"-  c #1D2324",
";  c #122929",
":  c #182C2D",
">  c #133232",
",  c #183939",
"<  c #122828",
"1  c #252A2D",
"2  c #25282A",
"3  c #382E28",
"4  c #292E31",
"5  c #202E30",
"6  c #233638",
"7  c #361E10",
"8  c #4A1900",
"9  c #431A08",
"0  c #422B1F",
"q  c #4A2816",
"w  c #592C14",
"e  c #652E0F",
"r  c #662603",
"t  c #742B02",
"y  c #792E05",
"u  c #762D08",
"i  c #7C320B",
"p  c #7D3007",
"a  c #6D3616",
"s  c #763A18",
"d  c #682F12",
"f  c #443227",
"g  c #594C3B",
"h  c #75472C",
"j  c #2D3F42",
"k  c #194747",
"l  c #1B5857",
"z  c #1B5858",
"x  c #1C5454",
"c  c #294649",
"v  c #324448",
"b  c #394D52",
"n  c #344F53",
"m  c #285A5B",
"M  c #385457",
"N  c #256A6B",
"B  c #247777",
"V  c #257A7A",
"C  c #287A7A",
"Z  c #424441",
"A  c #535756",
"S  c #6C584A",
"D  c #6C5E57",
"F  c #776A5B",
"G  c #68624A",
"H  c #505E62",
"J  c #56757B",
"K  c #707772",
"L  c #82350C",
"P  c #8A390E",
"I  c #813610",
"U  c #853912",
"Y  c #8B3C15",
"T  c #8B3F18",
"R  c #853C1A",
"E  c #913F15",
"W  c #8D411A",
"Q  c #8B4719",
"!  c #954014",
"~  c #954219",
"^  c #9D4618",
"/  c #A54B1B",
"(  c #AA4D1C",
")  c #A04718",
"_  c #AC501E",
"`  c #894321",
"'  c #9B4C24",
"]  c #964A26",
"[  c #9D5534",
"{  c #9F522D",
"}  c #A95328",
"|  c #B35421",
" . c #B95725",
".. c #BB5925",
"X. c #B95A28",
"o. c #A85936",
"O. c #B25E3A",
"+. c #A14E27",
"@. c #AA613A",
"#. c #B6643E",
"$. c #AF662F",
"%. c #C25E29",
"&. c #CB642E",
"*. c #C6612D",
"=. c #C86537",
"-. c #D56A34",
";. c #D56B36",
":. c #DD713C",
">. c #E3743B",
",. c #EC783D",
"<. c #E9763C",
"1. c #965D45",
"2. c #9E6346",
"3. c #8D7F5C",
"4. c #A66245",
"5. c #B46543",
"6. c #BB6643",
"7. c #BD6844",
"8. c #B56C4D",
"9. c #AA6D52",
"0. c #B76F50",
"q. c #BD7151",
"w. c #BE7946",
"e. c #B67B63",
"r. c #C26A45",
"t. c #CB6C43",
"y. c #C36741",
"u. c #D26E43",
"i. c #C8754B",
"p. c #D67145",
"a. c #DB7444",
"s. c #D87848",
"d. c #C67855",
"f. c #D27A51",
"g. c #EE7D43",
"h. c #F27F46",
"j. c #4D8578",
"k. c #9B835D",
"l. c #B0895D",
"z. c #AE8B7D",
"x. c #B18877",
"c. c #B4816C",
"v. c #D5935D",
"b. c #DA955E",
"n. c #D7965A",
"m. c #CE8446",
"M. c #F68146",
"N. c #FD8446",
"B. c #FF8A4B",
"V. c #F38048",
"C. c #E5995D",
"Z. c #E5985E",
"A. c #FD9856",
"S. c #EEA35D",
"D. c #FEAB62",
"F. c #F8A762",
"G. c #EBB16D",
"H. c #FEBE71",
"J. c #F1B16A",
"K. c #FEC072",
"L. c #F7C173",
"P. c #5D7E85",
"I. c #2A8585",
"U. c #318B8B",
"Y. c #389696",
"T. c #2E9A9A",
"R. c #38ABAC",
"E. c #5C838A",
"W. c #54979C",
"Q. c #598C92",
"!. c #678786",
"~. c #668B92",
"^. c #6D8D93",
"/. c #6E949C",
"(. c #659499",
"). c #6C9BA3",
"_. c #659AA1",
"`. c #59A6AB",
"'. c #41BBBC",
"]. c #4AB4B6",
"[. c #5AB7BA",
"{. c #46AAA7",
"}. c #69A4AB",
"|. c #67A8AF",
" X c #67A5AA",
".X c #66ADB3",
"XX c #68ACB3",
"oX c #64B4B9",
"OX c #63B5BA",
"+X c #59BDC1",
"@X c #4DBEC0",
"#X c #61BEC3",
"$X c #3DC9C9",
"%X c #4CC6C9",
"&X c #5EC5CA",
"*X c #5DC9CD",
"=X c #56C6C9",
"-X c #5CCDD1",
";X c #44D7D7",
":X c #5AD2D5",
">X c #59D6D9",
",X c #56DBDD",
"<X c #58DADC",
"1X c #60C3C8",
"2X c #41E0DF",
"3X c #56DEE1",
"4X c #53ECEE",
"5X c #57E1E3",
"6X c #52EFF0",
"7X c #4FF2F2",
"8X c #4FF9F9",
"9X c #51F2F3",
"0X c #50F9F9",
"qX c #48E7E7",
"wX c #8C8F8F",
"eX c #9FA0A0",
/* pixels */
"                                                  ; ; ; ; < ; : - $ d L L U u p i i                                     ",
"                                          , > > B $X'.'.'.'.'.].j.s &.>.m.n.Q / ;.o.U u                                 ",
"                                    k k U.%X%X%X>X5X1XXX}.}.!.F @.h.A.D.F.i.U | M.r.U L ~                               ",
"                              N N I.qX,XOX).).).).|.6X#X!.F { -.N.B.H.D.g.6.I | M.u.Y ( <.] R                           ",
"                        z I.I.].*X&X*X*XOX/././.J n B m f p <.N.B.F.m.s.g.6.I | M.u.Y ( M.r.T e -                       ",
"                    > U.;X9X1X)./././.|.+X].c 6 1 # # # 7 L <.N.A.L.Q  .h.6.I | M.u.Y ( h.r.Y g Y.,                     ",
"                , m ].[..XOX:XoX(.P.P.v : , - - 2 4 4 q W >.N.N.A.L.Q  .M.t.L | M.u.Y ( h.r.Y a G {.N 6                 ",
"              k Y.+X}./././.}.].N # # - 2 2 4 4 4 4 4 w ) N.N.B.A.G.Q ..M.u.L | M.u.Y ( M.r.T t a /.+XY.c               ",
"            O $X,XOX/././.~.H 5 - 1 1 4 4 4 4 4 4 4 0 s %.N.N.D.G.7.I ..M.u.L | h.t.Y / N.p.~ L ' F  X>X;X; 2           ",
"          k I.[.*X*X&X}.J j # 2 4 4 4 4 4 4 4 4 4 3 r *.N.N.N.D.G.6.L ..M.u.L | h.6.U ( N.p.T / ,.L !.*X=XU.m           ",
"        @ x 6X|./.).[.M 2 - 4 4 4 4 4 4 4 4 4 4 4 3 r *.N.N.N.D.G.6.L ..M.u.L | h.6.U ( N.p.T / ,.L F /.).4XN X         ",
"      X I.%X.X)./.(.P.* @ 4 4 4 4 4 4 4 4 4 4 4 4 3 i &.N.N.B.D.G.6.L ..M.u.L | h.7.U ( N.p.T / ,.Y F ^./. X@XT.X       ",
"      , R.<X.X.X}.J # 2 1 4 4 4 4 4 4 4 4 4 4 4 3 i ;.N.N.B.H.b.i.t.L ..M.t.L | M.u.Y ( N.p.T / h.#.` S .X.X:X'.k       ",
"    = $X+X.X:X>XW.b O 2 4 4 4 4 4 4 4 4 4 4 4 4 0 L ,.N.N.B.K.b.r.t.L ..h.7.I | M.u.Y ( N.p.T / M.t.T G :X>X.XoX;X>     ",
"    + ;X1X/././.v X 1 4 4 4 4 4 4 4 4 4 4 4 4 4 0 L ,.N.N.B.K.b.r.t.L ..h.6.I | M.u.Y ( N.p.T / M.p.~ w M ~./.oXqX> $   ",
"    < ;X#X/./.(.v X 4 4 4 4 4 4 4 4 4 4 4 4 4 4 0 L ,.N.N.N.H.v.6.#.L ..V.6.I | V.r.U ( N.p.T / M.p.~ 8 O P./..XqX, -   ",
"% x R.+X.X}._.j - 2 4 4 4 4 4 4 4 4 4 4 4 4 4 4 0 L ,.h.-./ } ' ~ ~ u | >.O.i | V.7.U ( M.r.Y / M.t.W 8 O Q.}.|.[.'.N o ",
"X z 8X3X<X<X=X; @ 4 4 4 4 4 4 4 4 4 4 4 4 4 4 4 0 L ,.| / <.:.:.:.;.^ ! ^ ~ u / ;.o.i ( M.r.R / M.r.T 8 + ].,X<X,X8XB . ",
"X z 7X.X).).(.# @ 4 4 4 4 4 4 4 4 4 4 4 4 4 4 4 0 L ,./ ^ N.t.r.q.e.s.a.a.:.| / ( / p ! *.+.i ( M.r.T 8 O E.).).}.4XB . ",
"X z 7X}././.~.# @ 4 4 4 4 4 4 4 4 4 4 4 4 4 4 4 0 L ,.&.| X.' ] o.x.0.7.0.c.f.a.a.a.X.| | | L Y X.' L 8 O P././.).4XB . ",
"X z 7X|.).).~.# @ 4 4 4 4 4 4 4 4 4 4 4 4 4 4 4 0 L ,.N.,.%.L t i W W W ] e.8.6.8.x.d.s.s.s.=.%.%.%.E r q !.).).}.4XB . ",
"X l 8X3X>X<X=X; @ 4 4 4 4 4 4 4 4 4 4 4 4 4 4 4 0 L ,.N.N.B.C.w.] p t y L I U U ` 9.5.#.8.z.d.p.t.f.u.| s [.<X>X<X8XB . ",
"X z 7XoX}.|._.= @ 4 4 4 4 4 4 4 4 4 4 4 4 4 4 4 0 L ,.N.N.B.K.b.6.=.L | -.L t p P p p i U 4.@.O.5.z.e.} s ^.|.}..X6XB . ",
"X z 7X}././.~.# @ 4 4 4 4 4 4 4 4 4 4 4 4 4 4 4 0 L ,.N.N.B.K.b.r.t.L ..h.#.L | :.T u L ! y u u i [ o.` w !././.).4XB . ",
"X z 7X}././.~.# @ 4 4 4 4 4 4 4 4 4 4 4 4 4 4 4 0 L ,.N.N.B.K.C.t.6.i ..g.6.I | h.7.U ( ,.' i P ( y t 8 O P././.).4XB . ",
"X l 8X>X-X:X=X; @ 4 4 4 4 4 4 4 4 4 4 4 4 4 4 4 0 L ,.N.N.B.K.C.t.5.L ..g.6.I | h.7.U ( M.r.Y ( h.} L 8 + ].:X-X:X0XB . ",
"X z 7X#XoXoX`.= @ 4 4 4 4 4 4 4 4 4 4 4 4 4 4 4 0 L ,.N.N.B.K.b.2.S a X.g.6.I | M.t.Y ( M.r.R / M.r.W 8 O W.oX.XOX9XB . ",
"X z 7X}././.~.# @ 4 4 4 4 4 4 4 4 4 4 4 4 4 4 4 0 L ,.N.N.B.K.k.D wXA @.h.6.I | M.u.Y ( M.7.Y ( M.r.W 8 O P././.).4XB . ",
"X z 6X}././.~.# @ 4 4 4 4 4 4 4 4 4 4 4 4 4 4 4 0 L ,.N.N.B.K.3.H eXA 2.h.6.I | M.u.Y ( V.7.R ( N.p.~ 8 O P././.).4XB . ",
"X l 8X-X&X&X[.; @ 4 4 4 4 4 4 4 4 4 4 4 4 4 4 4 0 L ,.N.N.B.K.l.D K g @.V.y.I | M.u.Y ( M.t.Y ( N.p.~ 8 O `.1X&X*X9XB . ",
"o x 8X-X&X&X[.; @ 4 4 4 4 4 4 4 4 4 4 4 4 4 4 4 0 L ,.N.N.B.K.b.1.Z e ..M.u.U | M.u.Y ( N.p.E / N.p.~ 8 O `.1X&X*X9XB . ",
"o x 7X}././.~.# @ 4 4 4 4 4 4 4 4 4 4 4 4 4 4 4 0 L ,.N.N.B.K.C.4.Z e ..M.u.U | V.r.U ( N.p.E / N.p.~ 8 O P././.).4XB . ",
"o z 7X}././.~.# @ 4 4 4 4 4 4 4 4 4 4 4 4 4 4 4 0 L ,.N.N.B.K.C.4.Z e ..M.u.U | h.6.U ( N.u.T ( M.r.W 8 O P././.).4XB . ",
"o l 7X#XoXOX`.= @ 4 4 4 4 4 4 4 4 4 4 4 4 4 4 4 0 L ,.N.N.B.K.C.4.Z e ..M.u.U | V.r.U ( M.r.Y ( M.t.W 8 O W.oXoXOX9XB . ",
"X l 8X>X:X:X=X; @ 4 4 4 4 4 4 4 4 4 4 4 4 4 4 4 0 L ,.N.N.B.K.b.1.Z e ..M.u.U | M.u.Y ( M.r.Y ( N.p.~ 8 + ].:X:X:X0XB . ",
"X z 7X}././.~.# @ 4 4 4 4 4 4 4 4 4 4 4 4 4 4 4 0 L ,.N.N.B.K.l.D K g @.M.u.U | M.u.Y ( M.r.Y ( N.p.~ 8 O P././.).4XB . ",
"X z 7X}././.~.# @ 4 4 4 4 4 4 4 4 4 4 4 4 4 4 4 0 L ,.N.N.B.K.3.H eXA 2.V.r.I | M.u.Y ( M.u.T / N.p.~ 8 O P././.).4XB . ",
"X z 7XoX|.|._.= @ 4 4 4 4 4 4 4 4 4 4 4 4 4 4 4 0 L ,.N.N.B.K.k.D wXA @.h.6.I | M.u.Y ( N.p.E / N.p.~ 8 O Q.|. X.X9XB . ",
"X l 8X3X<X<X=X; @ 4 4 4 4 4 4 4 4 4 4 4 4 4 4 4 0 L ,.N.N.B.K.v.2.S a X.h.6.I | h.7.U ( M.u.T / M.r.W 8 + ].<X<X<X8XB . ",
"X z 7X|.).).~.# @ 4 4 4 4 4 4 4 4 4 4 4 4 4 4 4 0 L ,.N.N.B.K.b.r.t.L ..V.r.I | h.7.U ( M.r.R / M.r.W 8 O E.).).}.4XB . ",
"X z 7X}././.~.# @ 4 4 4 4 4 4 4 4 4 4 4 4 4 4 4 0 L ,.N.N.B.K.Z.t.t.L ..M.u.U | h.7.U ( M.7.R / g.+.L r q !././.).4XB   ",
"X z 7X.X).).(.# @ 4 4 4 4 4 4 4 4 4 4 4 4 4 4 4 0 L ,.N.N.B.K.C.t.7.L ..M.u.U | h.6.I / >.' L P | *.&.| i h K ).}.4XV   ",
"X l 8X3X<X<X=X; @ 4 4 4 4 4 4 4 4 4 4 4 4 4 4 4 0 L ,.N.N.B.K.C.t.6.L ..h.O.i ( ;.^ P E | -.;.;.;.d.i.r.o.y !.,X,X8XB   ",
"X z 7X.X}.}.(.* @ 4 4 4 4 4 4 4 4 4 4 4 4 4 4 4 0 L ,.N.N.B.K.C.y.o.i / &.^ ! ^ | :.:.:.a.d.i.r.i.z.9.o.o.h K }.|.6XB   ",
"X z 7X}././.~.# @ 4 4 4 4 4 4 4 4 4 4 4 4 4 4 4 0 L ,.N.,.&.m.#.+.( / / X.a.a.a.s.c.q.r.q.x.4.{ +.{ U r q !././.).4XB . ",
"X z 7X|././.~.# @ 4 4 4 4 4 4 4 4 4 4 4 4 4 4 4 0 L ,.&.| .. . .*.a.a.a.f.x.0.6.0.c.[ ] ] ] i t t t t 8 O E.)./.).4XB . ",
"X l 8X,X:X>X=X; @ 4 4 4 4 4 4 4 4 4 4 4 4 4 4 4 0 L ,./ ^ N.a.p.d.z.0.5.8.e.] Y T Y y t y t t ! &.} U 8 + ].>X:X>X0XB   ",
"X z 7XOX.X.X`.= @ 4 4 4 4 4 4 4 4 4 4 4 4 4 4 4 0 L ,.| / >.#.#.5.9.W L L L t y L p t ) ;.O.U ( N.p.~ 8 O W..X.XoX6XT.  ",
"X z 7X}././.~.# @ 4 4 4 4 4 4 4 4 4 4 4 4 4 4 4 0 L ,.h.-./ L y i y t L Y I t _ >.=.U ( N.p.E ( M.p.~ 8 O P././.).4X;X  ",
"X z 9X|./.).~.# @ 4 4 4 4 4 4 4 4 4 4 4 4 4 4 4 0 L ,.N.N.g.$.' ~ Y u ..g.7.L | N.u.Y ( N.p.E ( M.r.W 8 O E.)./.).4X2X  ",
"  k C M b b v % X @ @ @ @ @ @ @ @ @ @ @ @ @ @ @ 7 L ,.N.N.B.H.C.t.r.L ..M.u.U | M.t.U ( N.p.E ( M.r.W 8 X v b b M C     ",
"                                                9 L ,.N.N.B.K.b.t.t.L ..M.u.U | h.6.U ( M.t.Y / ,.' U                   ",
"                                                  L ,.N.N.B.K.b.r.t.L ..M.u.U | h.7.U ( h.#.T p E                       ",
"                                                  L ,.N.N.B.K.b.r.t.L ..M.t.U | h.7.U ^ -.T                             ",
"                                                  L ,.N.N.B.K.b.7.y.L ..h.7.I | g.o.R t p                               ",
"                                                  L ,.N.N.B.K.b.6.5.L ..h.6.I !  .I                                     ",
"                                                  L ,.N.N.B.K.b.6.5.L ..>.] I                                           ",
"                                                  L ,.N.N.B.K.b.6.O.I L ^                                               ",
"                                                  L -.>.>.>.C.i.+.I                                                     ",
"                                                    I L L p i i i                                                       "
};
