/* XPM */
static const char *ZG9vcl8_[] = {
/* columns rows colors chars-per-pixel */
"60 60 209 2 ",
"   c #000000",
".  c #090301",
"X  c #1A0C05",
"o  c #0F1415",
"O  c #071919",
"+  c #0B1C1C",
"@  c #061313",
"#  c #101515",
"$  c #131B1C",
"%  c #1C1916",
"&  c #1D140F",
"*  c #230D03",
"=  c #2A1206",
"-  c #371503",
";  c #241A13",
":  c #271C14",
">  c #1D211D",
",  c #2E2419",
"<  c #0B2222",
"1  c #0D2B2B",
"2  c #112425",
"3  c #14292A",
"4  c #113736",
"5  c #1F312D",
"6  c #343837",
"7  c #283230",
"8  c #121F21",
"9  c #411600",
"0  c #461801",
"q  c #491900",
"w  c #4A1D08",
"e  c #511D02",
"r  c #5D2201",
"t  c #562105",
"y  c #512A14",
"u  c #642300",
"i  c #6B2702",
"p  c #6C2C0A",
"a  c #732A02",
"s  c #792E05",
"d  c #752D09",
"f  c #7A2F0A",
"g  c #7C320B",
"h  c #78310A",
"j  c #783512",
"k  c #7A4628",
"l  c #78553E",
"z  c #2A3C40",
"x  c #1C5C5C",
"c  c #1D5757",
"v  c #174949",
"b  c #3A4545",
"n  c #275052",
"m  c #256A6A",
"M  c #227372",
"N  c #297A7A",
"B  c #317371",
"V  c #4A5250",
"C  c #634F44",
"Z  c #6B5245",
"A  c #7C5542",
"S  c #72655C",
"D  c #55757B",
"F  c #527177",
"G  c #4D686D",
"H  c #726A64",
"J  c #6D7B76",
"K  c #757570",
"L  c #82350E",
"P  c #8D3B0E",
"I  c #85350A",
"U  c #813610",
"Y  c #863A13",
"T  c #8C3D15",
"R  c #8A3D18",
"E  c #943F12",
"W  c #8A421E",
"Q  c #924016",
"!  c #9A4416",
"~  c #96451D",
"^  c #A44919",
"/  c #A84C1C",
"(  c #934621",
")  c #954823",
"_  c #9A4B25",
"`  c #9E4F2B",
"'  c #9A4720",
"]  c #9B502B",
"[  c #8C4422",
"{  c #A54E25",
"}  c #A1522F",
"|  c #AC542A",
" . c #B95928",
".. c #AB5A36",
"X. c #AE5D3A",
"o. c #A65532",
"O. c #B15F3B",
"+. c #BA5D35",
"@. c #B2603D",
"#. c #BC623B",
"$. c #C25D28",
"%. c #C05B26",
"&. c #C5612D",
"*. c #C9622C",
"=. c #C3633A",
"-. c #C86638",
";. c #D76C35",
":. c #D96D35",
">. c #D46D39",
",. c #D86F3A",
"<. c #DC713B",
"1. c #E7763C",
"2. c #925C45",
"3. c #8C5A43",
"4. c #9F6146",
"5. c #B56441",
"6. c #B96644",
"7. c #BC6946",
"8. c #BD6A49",
"9. c #B36B4D",
"0. c #B46F52",
"q. c #B37257",
"w. c #A16045",
"e. c #B67D66",
"r. c #C36B45",
"t. c #CC6D45",
"y. c #D26E45",
"u. c #CD7047",
"i. c #CC724A",
"p. c #D27147",
"a. c #DD7446",
"s. c #D37348",
"d. c #C97B59",
"f. c #E37645",
"g. c #E57945",
"h. c #ED7D47",
"j. c #E67C49",
"k. c #F47E43",
"l. c #F17F48",
"z. c #6A827C",
"x. c #B28776",
"c. c #B4826D",
"v. c #DF885D",
"b. c #F68045",
"n. c #F88146",
"m. c #E08456",
"M. c #DD8C63",
"N. c #C0927D",
"B. c #C38A6F",
"V. c #5B7D84",
"C. c #797F81",
"Z. c #309494",
"A. c #39AAAA",
"S. c #3EB5B5",
"D. c #5F8289",
"F. c #5D848B",
"G. c #5B8C92",
"H. c #5B9197",
"J. c #61848C",
"K. c #69878A",
"L. c #658A92",
"P. c #6B8D94",
"I. c #6E949D",
"U. c #629397",
"Y. c #619486",
"T. c #579EA2",
"R. c #6B9CA3",
"E. c #6799A1",
"W. c #58A5AA",
"Q. c #53AEB1",
"!. c #55B6BA",
"~. c #47B7B9",
"^. c #69A3AB",
"/. c #68A5AC",
"(. c #65ADB3",
"). c #68A9B0",
"_. c #65B0B6",
"`. c #63B5BA",
"'. c #5FA297",
"]. c #53BFC1",
"[. c #61BDC2",
"{. c #3DC9C8",
"}. c #40C4C4",
"|. c #43C7C8",
" X c #44CBCB",
".X c #4AC6C8",
"XX c #5EC6CA",
"oX c #5CCBCE",
"OX c #57C4C8",
"+X c #5CCED1",
"@X c #46D8D9",
"#X c #5AD2D5",
"$X c #59D6D9",
"%X c #57DBDD",
"&X c #56D8DA",
"*X c #60C3C7",
"=X c #56DFE1",
"-X c #58DEE1",
";X c #4AE7E7",
":X c #55E3E4",
">X c #53EDEE",
",X c #54E6E8",
"<X c #4FF6F6",
"1X c #4EF9F9",
"2X c #50F1F1",
"3X c #868A8B",
"4X c #BF9784",
"5X c None",
"6X c black",
/* pixels */
"5X5X5X5X5X5X5X5X5X5X5X5X5X5X5X5X5X5X5X5X5X5X5X5X5XO O O O O O O O O O 5X5X5X5X5X5X5X5X5X5X5X5X5X5X5X5X5X5X5X5X5X5X5X5X5X",
"5X5X5X5X5X5X5X5X5X5X5X5X5X5X5X5X5X5X5X5X5X+ + O M {.}.}.}.}.}.}.}.}.{.m O O + 5X5X5X5X5X5X5X5X5X5X5X5X5X5X5X5X5X5X5X5X5X",
"5X5X5X5X5X5X5X5X5X5X5X5X5X5X5X5X5X5X+ O N  X|.|.@X,X`.(.).).).).(.[.>X@X|.|. XM O O 5X5X5X5X5X5X5X5X5X5X5X5X5X5X5X5X5X5X",
"5X5X5X5X5X5X5X5X5X5X5X5X5X5X5X< + c {. X!.).).)./.`.,X(.I.I.I.I.`.,X_./.).).).!. X{.v + < 5X5X5X5X5X5X5X5X5X5X5X5X5X5X5X",
"5X5X5X5X5X5X5X5X5X5X5X5X+ + 4 S. X@X2X*X^.I.I.I.I./.@XW.J.J.J.J.W.@X^.I.I.I.I.^.XX2X@X XA.1 + 5X5X5X5X5X5X5X5X5X5X5X5X5X",
"5X5X5X5X5X5X5X5X5X5X5X< Z.@X.X(././.).$X*XE.J.D.J.F 5 > % % % % > 5 D J.D.J.R.XX#X/././.(.|.@XZ.< 5X5X5X5X5X5X5X5X5X5X5X",
"5X5X5X5X5X5X5X5X5X5X4 S.;X-X_.R.I.I.I.U.!.A.> % % : r u u u u u u r ; % % 5 S.Q.U.I.I.I.R._.,X;XS.4 5X5X5X5X5X5X5X5X5X5X",
"5X5X5X5X5X5X5X5X< m .X).^.`.%X_.U.V.V.7 % , r u u i I L g g g g g h u u u r , % 6 V.V.U.`.%X_.^.(..Xx < 5X5X5X5X5X5X5X5X",
"5X5X5X5X5X5X5X1 Z.OX^.I.I.R./..Xm & ; t u i g L s P 1.r.@.@.@.@.@...h I L g i u e ; & B .X^.I.I.I.^.OXZ.1 5X5X5X5X5X5X5X",
"5X5X5X5X5X5X+ {.XX/.I.I.I.P.D 7 w u u h g R @.r.{ P k.p.6.6.6.6.7.@.h $.g.-.T L h u u - 7 V.I.I.I.I.).oX{.@ 5X5X5X5X5X5X",
"5X5X5X5X5X+ v @X,X+X/.R.L.V ; r s P Y ..5.5.7.t.{ P k.p.6.6.6.6.7.@.h *.l.y.t.6.o.L L s t : G L.R.).#X,X X4 5X5X5X5X5X5X",
"5X5X5X5X  x @X/.R.`.&XG.6 - u a  .g.t.7.6.7.r.y.{ P k.p.6.6.6.6.7.@.h *.h.r.y.t.r.t.t.' i u = b H.&X_.R.).;Xv   5X5X5X5X",
"5X5X5X5X1 N =XR.I.R.U.2 9 a g a $.b.p.r.7.r.y.y.{ P k.p.6.6.7.7.7.@.g *.g.7.t.y.y.p.p.{ s P a - 3 U.R.I.^.=Xm 1 5X5X5X5X",
"5X5X5X  A.#XR.I.I.L.G ; q T X.g $.b.y.y.r.r.y.r._ P k.p.7.r.y.r.7.@.h *.g.7.7.t.y.p.y.' E 1.E 9 : F P.I.I.R.&XZ.  5X5X5X",
"5X5X5X4 ~.$X(.(.^.G X r h ) 5.g $.h.r.y.r.7.y.r._ P k.u.r.y.p.r.7.@.h *.g.7.7.t.y.y.r.) E k./ d t # F ^.(.(.&XA.4 5X5X5X",
"5X5X1 @X`.`.:X:XT.V * u _ 6.5.g $.h.7.y.t.r.y.r._ P k.u.r.y.y.r.6.@.h *.g.7.7.r.y.y.r.' E k.t.' r * V W.:X=X(.!. X< 5X5X",
"5X5X1 ;X`.I.R.R.z = i U o.7.5.g $.h.7.t.y.y.t.r._ P k.u.r.y.y.r.6.@.h *.g.7.7.7.r.y.r.' E k.u.} U i * b R.R.I.[.@X< 5X5X",
"5X5X1 ;X`.I.I.I.7 * f X.6.6.5.g $.h.7.6.t.t.7.7._ P k.u.r.y.y.r.6.@.h *.g.7.7.7.r.y.r.) E k.t.6...a X b I.I.I.[.@X+ 5X5X",
"5X4 x #X).I.P.F 7 - s O.7.6.5.g $.h.7.6.t.t.7.7._ P k.u.r.y.t.r.r.@.h *.g.7.7.7.r.y.p.{ E k.t.6.X.a - 6 D I.I._..Xc 1 5X",
"  M >X[.`.`.T.$ q g ! @.6.6.5.g $.h.7.6.r.t.7.7._ P k.p.t.y.7.t.t.@.h *.g.7.7.7.r.y.p.{ E k.t.6.@.R s 9 2 W.`.`.XX>Xc   ",
"  M 1X=X%X-X].+ q ^ k.r.6.6.5.g $.h.7.6.6.6.6.7._ P k.f.y.t.7.t.t.@.h *.g.7.6.6.r.y.p.{ E k.t.6.6.5.Y 9 2 .X%X%X:X1Xx   ",
"  M >X^.I.R.F.o 0 ^ n.r.6.8.5.g $.l.7.7.7.7.7.8._ P k.f.t.7.7.t.t.@.g *.h.7.7.7.r.t.t._ E b.u.6.6.6.Y 9 $ L.R.I./.2Xx   ",
"  M >XR.I.I.J.: e E &.| } } ` f ^ &.} } } } } } R I &.+.o.} } | | _ s / &.} } } } } } R I &.o.} } ` g q , L.I.I.^.2Xx   ",
"  M >XR.I.K.S _ ^ ^ ^ ^ ^ ^ ^ ^ ^ ^ ^ ^ ^ ^ ^ ^ ^ ^ ^ ^ ^ ^ ^ ^ ^ ^ ^ ^ ^ ^ ^ ^ ^ ^ ^ ^ ^ ^ ^ ^ ^ ^ ^ ^ ] H K.I.^.2Xx   ",
"  M 2XXX[.z.L 1.h.g.g.g.v.v.g.g.g.g.g.g.m.M.g.g.g.g.g.g.g.j.M.m.g.g.g.g.g.g.g.v.M.g.g.g.g.g.g.m.M.j.g.g.>.h K.[.XX<Xx   ",
"  M 1X&X&XY.I 1.s.7.7.7.c.c.8.7.7.7.7.7.e.x.8.7.7.7.7.7.7.0.x.q.7.7.7.7.7.7.7.e.c.8.7.7.7.7.7.e.x.8.7.8.X.d U.&X$X<Xx   ",
"  M >XR.I.J l +.| ` ` ` ` ` ` ` ` ` ` ` ` ` ` ` ` ` ` ` ` ` ` ` ` ` ` ` ` ` ` ` ` ` ` ` ` ` ` ` ` ` ` } ] l z.I.^.2Xx   ",
"  M >XR.I.I.K.y u a a a a a a a a a a a a a a a a a a a a a a a a a a a a a a a a a a a a a a a a a a r y P.I.I.^.2Xx   ",
"  M >XR.I.I.J.# q I / ' ( ( W s Q { ' ~ ( ( ( ( U s / / ' ~ ( ( ' ~ s ! { ( ( ( ( ( ( U I / ' ' ' ~ g 9 $ L.I.I.^.2Xx   ",
"  M 2XoXXXXXQ.$ 0 ^ b.r.7.7.5.g $.b.p.t.r.6.6.7._ P k.f.t.6.6.6.r.-.I *.h.7.6.6.6.6.7.) E k.u.r.y.6.Y 9 2 !.XXXX+X<Xx   ",
"  M 2X#XoX+XQ.+ q ^ b.r.6.7.5.g $.l.t.y.t.6.6.7._ P k.f.t.r.7.6.r.-.g *.g.7.6.6.6.6.7.) E k.p.t.y.r.T 9 2 !.+XoX#X<Xx   ",
"  M >XR.I.I.D.# 0 ^ b.r.2.2.5.g $.h.7.t.t.6.6.7._ P k.s.t.y.7.r.t.-.g *.g.7.6.6.6.6.7.) E k.a.t.t.t.T 9 $ L.I.I.^.2Xx   ",
"  M >XR.I.I.D.# 0 ^ h.3.H H A d $.l.r.y.t.r.7.7._ P k.u.r.y.7.t.y.#.g *.g.7.6.r.r.6.7.) E k.a.r.7.t.T 9 $ L.I.I.^.2Xx   ",
"  M >XR.I.I.D.# 0 ^ g.V C.3Xb p $.h.7.r.t.t.7.7._ P k.u.r.y.t.y.t.@.h *.g.7.6.t.t.7.7.) E k.a.r.7.t.T 9 $ L.I.I.^.2Xx   ",
"  M <X#X+X#X!.+ q ^ h.2.H H A h $.h.7.6.t.y.t.r._ P k.u.r.t.y.y.t.@.h *.g.7.7.t.t.6.7.) E k.a.r.7.t.T 9 2 ].#X+X&X<Xx   ",
"  M 2XoXXXoXQ.+ q ^ b.r.Z C @.g $.h.7.6.r.t.y.r._ P k.p.6.7.y.y.t.@.h *.g.7.7.t.t.7.7.) E k.a.t.t.y.T 9 2 !.XXXX+X<Xx   ",
"  M >XR.I.I.D.# 0 ^ b.r.Z C 5.g $.h.7.6.6.r.y.r._ P k.p.6.7.y.y.t.@.h *.g.7.7.t.t.7.7.) E k.a.y.y.r.Y 9 $ L.I.I.^.2Xx   ",
"  M >XR.I.I.D.# 0 ^ b.r.Z C 5.g $.h.7.6.6.r.y.r._ P k.p.6.7.y.y.t.@.h *.g.7.7.t.t.6.7.) E k.p.t.t.6.Y 9 $ L.I.I.^.2Xx   ",
"  M >XR.I.I.D.# 0 ^ b.r.Z C 5.g $.h.7.6.6.r.y.t.{ P k.p.6.7.y.y.t.@.h *.g.7.7.t.t.6.7.) E k.t.r.t.6.Y 9 $ L.I.I.^.2Xx   ",
"  M 1X%X&X&X~.+ q ^ b.r.Z C 5.g $.h.7.6.6.7.r.p.{ P k.p.6.7.y.y.t.@.h *.g.7.t.y.y.t.r.) E k.t.r.y.r.T 9 2 OX&X$X%X1Xx   ",
"  M 2XXX[.[.W.+ 0 ^ h.A H K Z d $.l.7.7.6.6.7.y.{ P k.p.6.7.y.y.t.@.h *.h.r.y.y.y.y.r.' E k.t.r.y.y.T 9 2 Q.[.[.XX<Xx   ",
"  M >XR.I.I.D.# 0 ^ g.C C.3Xb p $.h.7.7.6.6.7.t.{ P k.p.6.7.y.y.t.@.h *.g.r.y.y.y.y.r.' E k.t.r.y.r.Y 9 $ K.I.I.^.2Xx   ",
"  M >XR.I.I.D.# 0 ^ l.4.S S 3.h $.h.7.6.6.7.7.t.{ P k.p.6.7.r.r.r.@.h *.g.7.y.t.t.y.r.' E k.t.r.t.6.Y 9 $ L.I.I.^.2Xx   ",
"  M >X^.I.R.F.# 0 ^ b.r.w.4.5.g $.h.7.6.6.6.7.t.{ P k.p.6.6.6.6.6.@.h *.l.t.y.r.r.y.r.' E k.t.7.r.6.Y 9 $ L.R.I./.2Xx   ",
"  M 1X=X%X-X].+ q ^ b.r.7.7.5.g $.h.7.6.7.7.7.t.{ P k.p.6.6.6.6.7.@.h *.l.y.r.7.r.y.r.) E k.t.6.7.6.Y 9 2 .X%X%X:X1Xx   ",
"  M 2X[.`.`.T.$ 0 ^ b.r.6.7.5.g $.h.7.6.7.7.7.t.{ P k.p.6.6.6.6.7.@.h *.l.y.7.6.r.y.t.' E k.t.6.7.6.Y 9 8 W.`.`.[.<Xx   ",
"  M >XR.I.I.J.# q ^ k.r.6.6.@.g %.h.6.6.6.6.r.r._ P 1.t.6.6.6.6.6.O.h &.h.y.t.7.6.r.t.' E k.t.6.6.5.Y 9 $ L.I.I.^.2Xx   ",
"  M >XR.I.I.K.y i I ! T T T T s P ! T T T T Q T L s ! Q T T T T T T s P ! Q Q T T T Q L I ! Q T T T g i y K.I.I.^.2Xx   ",
"  M >X^.R.J k ;.:.;.;.;.;.;.;.:.;.;.;.;.;.>.;.;.:.:.;.;.;.;.>.;.;.;.:.;.;.;.;.;.;.;.;.;.:.;.;.;.>.;.:.:.-.k J R.).2Xx   ",
"  M 1X:X:XY.I 1.f.u.u.u.B.N.i.u.u.u.u.u.B.N.i.u.u.u.u.u.u.d.4Xd.u.u.u.u.u.u.u.B.N.i.u.u.u.u.u.B.N.i.u.i.#.h '.:X:X1Xx   ",
"  M 2X`.(.J U 1.t.5.5.5.9.0.5.5.5.5.5.5.9.0.5.5.5.5.5.5.5.6.q.9.5.5.5.5.5.5.5.9.0.5.5.5.5.5.5.9.q.6.5.5...j z.(.`.2Xx   ",
"  M >XR.I.P.K W L U L L L L L U L L L L L L L L L U L L L L L L L L U L L L L L L L L L U L L L L L U g k J P.I.^.2Xx   ",
"  M >XR.I.I.J.; e a s s s s s a s s s s s s s s a a s s s s s s s s a s s s s s s s s a a s s s s s a q > L.I.I.^.2Xx   ",
"  M >X/.R.^.G.o 0 ! 1.-.=.#...g  .,.O.X.#.#.X.X.( I :.#.X.O.=.O.O.o.h  .>.O.#.O.O.=.O.W P :.#.X.X...U 9 $ U.^.R.(.2Xx   ",
"  M 1X,X,X,X.X+ q ^ b.t.t.t.5.g $.l.7.6.t.y.7.8._ P k.p.r.y.y.y.t.@.h *.h.7.t.r.r.y.r.) E l.u.6.7.6.Y 9 3 @X,X:X,X1Xx   ",
"  M 2X(./.).H.o 0 ^ b.r.t.t.5.g $.h.7.7.t.t.7.7._ P k.u.r.y.r.t.t.@.h *.g.7.7.t.y.y.r.' E k.t.6.6.6.Y 9 $ E././._.2Xx   ",
"  M >XR.I.I.D.# 0 ^ b.r.r.y.r.L $.h.7.t.t.7.6.7._ P k.p.r.y.7.t.t.@.g *.g.7.6.t.t.7.7.) E k.t.6.6.6.Y 9 $ L.I.I.^.2Xx   ",
"  M 2XR.I.R.J.# q ^ b.r.7.r.r.L $.l.r.t.t.6.7.7._ P k.f.y.t.7.t.y.=.I *.h.7.7.7.7.6.8.) E l.u.6.7.6.Y 9 $ L.I.I./.2Xx   ",
"  m  XF.V.D.F o - Q 1.#.X.O...p { 1.=.@.O.O.O.@.[ g <.>.#.@.O.@.#.+.p  .,.@.O.O.O.O.@.W U 1.#.X.O.X.j - # D D.V.G. Xc   ",
"5X5X< o # # o   . - g h f f d * w I g h f f f h w * h g g f f f g d X t I f f f f f f w = h g f f d = . . o # # o < 5X5X"
};
