/* XPM */
static char *_ef0301d814e4a49a508700cd92ec697LzAuoWwCNyH2kxin[] = {
/* columns rows colors chars-per-pixel */
"60 60 199 2 ",
"   c None",
".  c #060709",
"X  c #0C0C0C",
"o  c #060606",
"O  c #16140E",
"+  c #0F0F10",
"@  c #0F1011",
"#  c #131314",
"$  c #191919",
"%  c #1A151B",
"&  c #241E13",
"*  c #2C2515",
"=  c #2B251B",
"-  c #2A2419",
";  c #362C1A",
":  c #3C311C",
">  c #1C1820",
",  c #201C23",
"<  c #272628",
"1  c #3A3323",
"2  c #373635",
"3  c #31263A",
"4  c #41371F",
"5  c #413721",
"6  c #493C21",
"7  c #524324",
"8  c #5B4A27",
"9  c #69552A",
"0  c #614F27",
"q  c #7B632F",
"w  c #7C6532",
"e  c #392C42",
"r  c #3D3045",
"t  c #4F3A5A",
"y  c #444444",
"u  c #65625C",
"i  c #6A675E",
"p  c #5C426A",
"a  c #72537A",
"s  c #686460",
"d  c #79697B",
"f  c gray50",
"g  c #8A6D2E",
"h  c #91722E",
"j  c #876C32",
"k  c #8D7132",
"l  c #927434",
"z  c #997A37",
"x  c #8E724C",
"c  c #A88537",
"v  c #B38E3B",
"b  c #BB943D",
"n  c #C49A3C",
"m  c #D4A53D",
"M  c #DCAB3F",
"N  c #D9A735",
"B  c #E2AF3E",
"V  c #E5B23E",
"C  c #EAB53E",
"Z  c #EEB83E",
"A  c #F2BB3E",
"S  c #A3874B",
"D  c #B99D5E",
"F  c #B9A67C",
"G  c #C59C45",
"H  c #CC9E5A",
"J  c #DCAD43",
"K  c #DCAE4E",
"L  c #D5A744",
"P  c #DDB14C",
"I  c #DFB147",
"U  c #D4AD55",
"Y  c #D4A25B",
"T  c #D2AD5C",
"R  c #DBA957",
"E  c #DBB153",
"W  c #D6B15E",
"Q  c #DCB45D",
"!  c #CFAC5B",
"~  c #E1AF42",
"^  c #E2AE4D",
"/  c #E5B344",
"(  c #E9B642",
")  c #EDB944",
"_  c #E5B44A",
"`  c #E9B54A",
"'  c #EBBA4B",
"]  c #E7B849",
"[  c #F3BC44",
"{  c #F2BD4A",
"}  c #E2AE58",
"|  c #E6B155",
" . c #E6B852",
".. c #E7B955",
"X. c #CC9878",
"o. c #D19D75",
"O. c #D39F61",
"+. c #CCAD64",
"@. c #C6AB6B",
"#. c #CAAC6A",
"$. c #D6A463",
"%. c #D2AF63",
"&. c #D7A765",
"*. c #CFB16B",
"=. c #D4B163",
"-. c #D8B365",
";. c #C6AC73",
":. c #C5AC76",
">. c #DCBE7B",
",. c #CCB072",
"<. c #E2B464",
"1. c #F5C04A",
"2. c #F8C145",
"3. c #DEC07C",
"4. c #745187",
"5. c #7E5A94",
"6. c #7B6682",
"7. c #7E6885",
"8. c #866B91",
"9. c #8C6B9A",
"0. c #886998",
"q. c #806A83",
"w. c #AD7E9B",
"e. c #8D62A7",
"r. c #956BA9",
"t. c #9B6CB4",
"y. c #9E6DBB",
"u. c #9968B5",
"i. c #9D70B7",
"p. c #9470A6",
"a. c #A472AE",
"s. c #AD7BAB",
"d. c #AF7CA3",
"f. c #B27DAD",
"g. c #B27FA0",
"h. c #A16EBD",
"j. c #A06EB2",
"k. c #A472B4",
"l. c #A17CB3",
"z. c #A271BD",
"x. c #AB76BB",
"c. c #AE7BB3",
"v. c #B47EB2",
"b. c #9F6BC1",
"n. c #A46EC2",
"m. c #A571C3",
"M. c #A872C6",
"N. c #A873C8",
"B. c #828181",
"V. c #8A8988",
"C. c #9E9D9A",
"Z. c #979797",
"A. c #9A9487",
"S. c #BC8A8B",
"D. c #BC8A87",
"F. c #BD8B92",
"G. c #B68597",
"H. c #A09F9B",
"J. c #A19988",
"K. c #ADA18A",
"L. c #B3A482",
"P. c #B9AA89",
"I. c #A3A29E",
"U. c #AAA69D",
"Y. c #ACA697",
"T. c #B5AB96",
"R. c #A086AC",
"E. c #B582A4",
"W. c #A989B2",
"Q. c #A5A5A2",
"!. c #A8A7A2",
"~. c #AAA9A3",
"^. c #ABABAA",
"/. c #BEB7AA",
"(. c #BAB9B7",
"). c #BBBBB9",
"_. c #B4B3B1",
"`. c #B1AFAC",
"'. c #C69481",
"]. c #C7B487",
"[. c #C3AEB1",
"{. c #DBC189",
"}. c #E5C785",
"|. c #C1C2BF",
" X c #E6CEA0",
".X c #B68ECC",
"XX c #C4A4D5",
"oX c #C3C3C2",
"OX c #CECECD",
"+X c #C8C8C7",
"@X c #D5D4D4",
"#X c #DBDBDB",
"$X c #F3E6C5",
"%X c #E5E5E5",
"&X c #EBECEB",
"*X c #E8E8E7",
"=X c #F3F3F3",
"-X c #F8F9FB",
";X c #F0F0F0",
/* pixels */
"                                                                                                                        ",
"                                                                                                                        ",
"                                      { ' 1.k X q 1.' { ' ' 8 # b { ' J = X                                             ",
"                                      m J Z h O g Z J m / V 8 & b ) M n : O                                             ",
"                              . 6 1.c = w [ ~ L J { w - c { L L / ( 7 : b n - .                                         ",
"                              & 0 C c - q ( ( ( / ( q & c ( / ( / B 7 ; m m 4 *                                         ",
"                          . 4 M / [ / / / [ ) [ ) [ / / ( [ ] [ ) [ / / ) ) / ~ [ n # .                                 ",
"                          * 0 V / V I P E P E K P V / V / V I / P K E K E K / / ( n : *                                 ",
"                          / / [ ) [ -.~.U.~.U.~.,.[ ) [ ) [ ' { P.~.U.~.~.T.] [ [ ) / /                                 ",
"                          / / / K U @.K.K.K.K.K.;.U K / / ~ U U F K.K.K.K.L.! U / ~ / ~                                 ",
"                          ' ' [ -.~.P.' ] { ' { :.!.*.[ ) { P.~.Q { ' ' ' ..Y.T.] ) { )                                 ",
"                          / _ T #.L.;./ / / / V +.L.@.T T ! F L.E / / / / I F F T U / K                                 ",
"                  m.m.N.v.{ ..~.P.[ ) [ ) [ ) [ ) [ :.!.!.~.=.[ ) [ [ [ [ [ [  .U.T.1.<.M.m.M.n.                        ",
"                  y.t.4.a z S C.L./ / V / / / / _ V F H.I.C.+./ / / / / / / / K Y.J.c x 4.5.y.y.                        ",
"          m.m.m.m.M.r.> # # 2 Q.P.[ ) 2.[ 2.[ 2.) [ :.!.Q.!.=.[ [ 2.[ [ [ [ [  .T.V.$ $ X e m.m.m.m.M.z.                ",
"          h.y.h.y.h.e., $ # 2 C.T.}.@.k l k l g D }.T.C.I.H.].}.S k k k l z >.{.U.B.$ $ # r y.h.y.h.y.y.                ",
"      n.m.m.m.m.m.M.r.% @ X 2 I.).-X^.+ # X @ X B.-XoX!.Q.!.@X;Xy X + + + < #X&X`.V.$ # X e m.m.m.m.M.m.M.              ",
"    z.h.h.h.y.h.y.h.u.p t $ 2 C._.&XQ.# $ # $ X f &X).H.I.I.OX%Xy + $ # # < @X#X!.B.$ < t a y.h.h.z.y.z.h.y.            ",
"  n.n.m.m.m.n.m.m.n.n.N.e.# 2 I.(.-X!.X X o X o f -X|.Q.Q.!.@X&Xy o X X X < #X*X`.V.@ 3 n.m.m.m.n.n.m.m.m.m.n.          ",
"  h.h.z.h.z.y.z.y.z.y.h.p.j x H._.*XoXB.B.B.7.f _.&X).H.I.I.OX%XZ.f S B.B.V.#X#X!.A.j x h.z.h.z.h.z.h.z.h.z.h.y.z.      ",
"  h.m.m.m.m.m.m.m.m.m.n.f.{ Q I.(.=X&X-X&X-X=X-X&X-X|.Q.Q.Q.@X=X;X-X=X-X-X=X=X*X`.T.[ &.z.z.m.m.n.m.m.m.m.m.m.m.m.      ",
"  y.h.z.z.z.h.z.z.z.z.h.s._ P +.].).+X*X%X*X*X&XOX).].+.#.#./.).#X*X*X*X*X%XoX/.,.%./ $.z.z.z.z.h.z.h.z.h.z.h.z.h.      ",
"  h.m.m.m.m.n.m.m.m.m.n.f.] ) A Q I.).=X&X=X&X-X+XQ.*.A ) [ P.!.#X=X&X;X=X*X^.Y.] ) [ $.m.m.m.m.n.m.n.m.n.m.n.m.n.      ",
"  h.z.z.z.z.z.z.z.z.z.n.s._ / ( _ %.].).).).(.).].=.E ( ( ( T =./.).(.(.)./.*.=.] / ( $.z.z.n.z.h.z.z.z.z.z.h.z.h.      ",
"  h.n.n.n.n.n.n.n.n.h.n.s.] ( ) ) A W I.I.I.I.Q.;.A ( A ) ) ( ) P.I.I.I.I.Y.] Z [ ) A R z.n.n.n.n.h.n.h.n.n.n.n.n.      ",
"          z.z.z.z.z.z.m.s._ / ( ] ( E =.%.=.%.=.E ( / ( ] ( _ ( W =.=.=.=.W ] / ( / ) $.z.z.z.z.m.y.                    ",
"          h.h.n.h.n.h.n.s.` ( ) ( ) / C / Z ( Z ( ) ( ) ( ) / ) ( ) ) ) ( / ( ( ) ( ) $.z.h.n.h.n.y.                    ",
"                  m.m.m.s._ / ) ( ) v : j ) ( ) ] ) ] ) ( ( ] ( ( ) ) J 8 7 L ( ( ( ) $.z.z.m.h.                        ",
"                  h.h.n.s.^ / ) ( A c X 9 V ~ B J B J B ~ B J B ~ B / m = - m ( ) ( ( $.h.h.h.y.                        ",
"                      m.x.f.F.) ) [ J n k : 1 : 5 : 5 : 6 7 7 7 6 : : 6 v G ( ) [ } E.s.m.h.                            ",
"                      h.h.b.d.^ _ C / A l O - = 1 = = * 8 h l l 9 5 = ; m ( ( ( / $.h.y.h.y.                            ",
"                      m.z.m.x.c.F.) ) ) J m *.3.>.3.=.M ~ / ] ]  .<.I L ( ' ) | E.c.m.m.m.m.M.m.                        ",
"                      h.h.h.h.b.g.^ K ( / C ..] ] ]  .C ( ( ( ( ( ) ( ( ( / ^ Y k.y.h.h.h.h.h.h.                        ",
"                  m.m.m.m.m.m.m.x.x.F.[ ) ( ) ( ( ( ( ( ( ( ( C C C ( C (  .f.x.m.m.m.m.m.m.m.n.                        ",
"                  y.y.h.y.y.h.h.y.y.G.K ^ C ) ( ( ( ( C ( ( ( ( ( ( C ( / Y k.y.y.h.h.y.y.h.h.y.                        ",
"                  m.m.m.m.m.m.m.m.M.x.x.'.) ( ( ( ( ( ) ( ( ( ( ( ( ( ( $.f.m.m.m.m.m.m.m.m.m.n.                        ",
"                  y.y.y.y.y.y.y.y.y.y.y.S.^ / ( ( ( ( / / V / ( ( ( ( _ S.k.y.y.y.y.y.y.y.y.y.y.                        ",
"                  m.m.m.m.m.m.m.m.m.m.M.x.v.F.o.R ) ) [ ) [ ) ) $.o.o.F.c.m.m.m.m.m.m.m.m.m.M.n.                        ",
"                  y.y.y.y.y.y.y.y.y.y.u.y.y.k.a.D.Y K B / M Y H g.a.a.j.y.y.y.y.y.y.y.y.y.y.y.y.                        ",
"              n.m.m.m.m.m.m.m.m.m.m.m.m.m.M.m.M.z.M.o.A [ [ G.M.m.m.m.m.m.m.m.m.m.m.M.m.M.m.m.m.M.n.                    ",
"              y.y.h.y.y.y.y.y.y.y.y.y.y.y.y.y.y.y.y.D.O.H G w.y.h.y.y.y.h.y.y.y.y.y.h.y.y.y.y.y.y.y.                    ",
"              n.m.M.m.m.m.M.m.M.m.M.m.M.m.M.m.M.m.m.m.M.q.i p.N.m.M.m.M.m.m.m.m.m.m.M.m.M.m.M.m.M.n.                    ",
"              y.y.h.y.y.y.h.y.h.y.y.y.y.h.y.y.y.y.y.h.y.0.6.8.9.t.y.y.y.y.y.y.y.h.y.y.y.y.y.y.y.y.y.                    ",
"              n.m.m.m.m.m.m.m.m.m.M.m.M.m.M.m.M.m.m.m.m.m.M.d s r.M.m.M.m.M.m.m.M.m.M.m.m.m.N.m.N.n.                    ",
"              D.S.S.F.z.y.y.y.y.h.y.y.y.y.y.z.y.y.y.l.R.l.y.d u p.y.h.y.h.y.y.y.h.y.h.k.S.S.D.D.D.D.                    ",
"              A [ [ | x.n.m.m.m.m.m.m.m.m.m.m.m.m.M.W.~.W.m.d s r.m.m.m.m.m.m.m.m.m.m.E.[ [ [ [ [ Z                     ",
"              / / / ^ X.S.z.y.h.z.h.h.h.z.h.z.y.z.h.l.R.l.y.d s p.h.h.h.z.h.h.h.h.y.y.E./ / / / / B                     ",
"              A ) [ [ A } x.m.m.m.m.m.m.m.n.m.m.m.m.m.n.m.m.d i r.m.m.m.m.m.m.m.m.m.m.E.[ ) [ ) [ Z                     ",
"                N ( ^ '.F.z.z.h.z.h.z.h.z.h.z.h.z.h.z.h.9.7.8.0.t.h.z.h.z.h.h.h.z.z.h.W. X}.( / ( ~                     ",
"                  A | x.n.m.m.n.m.m.m.m.m.n.m.m.m.m.m.m.6.u p.M.m.n.m.m.m.m.m.m.m.m.n..X-X$X[ ) [ Z                     ",
"                  D.G.z.h.z.z.h.z.h.z.h.z.h.z.h.z.h.9.6.8.9.t.z.z.h.z.h.z.z.z.z.z.z.h.N.XX[.                            ",
"                  n.n.n.h.n.m.n.n.n.h.n.n.n.n.n.z.n.7.u 9.n.z.n.n.n.n.n.n.n.n.n.n.n.n.n.n.y.                            ",
"                  z.z.z.z.z.z.z.z.z.z.z.z.z.z.m.z.z.0.      y.z.z.z.z.z.z.z.z.z.m.z.z.z.z.h.m.                          ",
"                  n.n.n.n.n.n.n.z.n.h.n.h.n.m.n.h.n.        y.n.n.n.n.n.n.n.n.h.n.h.n.n.n.h.n.h.                        ",
"                      m.z.z.z.m.z.m.z.m.z.m.z.m.y.              h.z.z.m.z.z.z.z.z.z.m.z.m.z.m.h.                        ",
"                      n.h.h.h.h.h.n.h.n.z.h.h.n.                n.n.n.n.n.n.n.h.n.h.n.h.n.h.n.h.                        ",
"                          m.m.m.m.m.z.m.m.m.h.                          h.m.m.m.m.m.m.z.m.y.                            ",
"                          h.h.h.h.h.h.h.h.h.y.                          y.h.h.h.h.h.h.h.h.y.                            ",
"                                                                                                                        ",
"                                                                                                                        "
};
