/* XPM */
static char *_4b582d7f9f242148f2fa2d36dd6e7e68B2iuq3Tx3TOUguf[] = {
/* columns rows colors chars-per-pixel */
"60 60 201 2 ",
"   c None",
".  c #060709",
"X  c #0C0C0C",
"o  c #060606",
"O  c #16140D",
"+  c #0F0F10",
"@  c #0F1011",
"#  c #131314",
"$  c #1A1A1A",
"%  c #191716",
"&  c #241E13",
"*  c #2C2515",
"=  c #2B251A",
"-  c #292317",
";  c #392F1B",
":  c #3C321D",
">  c #1C1820",
",  c #201C23",
"<  c #1F2021",
"1  c #262527",
"2  c #3F3520",
"3  c #373635",
"4  c #31263A",
"5  c #41371F",
"6  c #453A22",
"7  c #564626",
"8  c #675329",
"9  c #614F27",
"0  c #7B632F",
"q  c #7C6532",
"w  c #392C42",
"e  c #3D3045",
"r  c #4F3A5A",
"t  c #444444",
"y  c #65625C",
"u  c #6A675E",
"i  c #5C426A",
"p  c #72537A",
"a  c #686460",
"s  c #79697B",
"d  c gray50",
"f  c #FF001E",
"g  c #8A6D2E",
"h  c #876C32",
"j  c #8D7132",
"k  c #917434",
"l  c #9B7C39",
"z  c #90702F",
"x  c #8E724C",
"c  c #A88537",
"v  c #B38E3B",
"b  c #BB943D",
"n  c #C49A3C",
"m  c #CFA13D",
"M  c #D4A53D",
"N  c #DDAC3F",
"B  c #D9A735",
"V  c #E2AF3E",
"C  c #E5B23E",
"Z  c #EAB43E",
"A  c #EEB83E",
"S  c #F2BB3E",
"D  c #A3874B",
"F  c #B99D5E",
"G  c #B9A67C",
"H  c #C79D43",
"J  c #CD9E59",
"K  c #DCAD44",
"L  c #DCAE4E",
"P  c #D5A744",
"I  c #DDB14D",
"U  c #DFB147",
"Y  c #CDAA5B",
"T  c #D4AD55",
"R  c #DBAB52",
"E  c #D5A35C",
"W  c #D2AD5C",
"Q  c #DAA757",
"!  c #DBB153",
"~  c #D6B15E",
"^  c #DCB45D",
"/  c #CDA241",
"(  c #E1AF42",
")  c #E2AE4D",
"_  c #E4B344",
"`  c #EAB644",
"'  c #EDB944",
"]  c #E5B44A",
"[  c #EAB54A",
"{  c #EBBA4B",
"}  c #F3BC44",
"|  c #F1BD4A",
" . c #E2AD56",
".. c #E6B254",
"X. c #E6B853",
"o. c #E5BA5C",
"O. c #CE9B6D",
"+. c #CCAD64",
"@. c #C6AB6B",
"#. c #CAAC6A",
"$. c #D6A462",
"%. c #D2AF63",
"&. c #D9A963",
"*. c #CFB16B",
"=. c #D4B162",
"-. c #DAB362",
";. c #C6AC73",
":. c #C5AC76",
">. c #CBB075",
",. c #DCBE7D",
"<. c #E2AB62",
"1. c #F6C145",
"2. c #F5C04A",
"3. c #F9C245",
"4. c #F0C156",
"5. c #ECC265",
"6. c #E7C87E",
"7. c #745187",
"8. c #7E5A94",
"9. c #7B6682",
"0. c #7E6885",
"q. c #866B91",
"w. c #8C6B9A",
"e. c #886998",
"r. c #806A83",
"t. c #A77C9B",
"y. c #8D62A7",
"u. c #956BA9",
"i. c #9B6CB4",
"p. c #9E6DBB",
"a. c #9968B5",
"s. c #9D70B7",
"d. c #9470A6",
"f. c #AD7BAB",
"g. c #AB79A8",
"h. c #B27DAC",
"j. c #B27FA0",
"k. c #A16EBD",
"l. c #A271BD",
"z. c #AB76BC",
"x. c #A679B3",
"c. c #B47EB2",
"v. c #9F6BC1",
"b. c #A46EC2",
"n. c #A571C3",
"m. c #A872C5",
"M. c #A873C8",
"N. c #828181",
"B. c #8A8988",
"V. c #9E9D9A",
"C. c #979797",
"Z. c #9A9487",
"A. c #BC8A8B",
"S. c #BB8988",
"D. c #BC8B92",
"F. c #B78596",
"G. c #A09F9B",
"H. c #A19988",
"J. c #ADA18A",
"K. c #B3A482",
"L. c #B9AA89",
"P. c #A3A29E",
"I. c #AAA69D",
"U. c #ACA697",
"Y. c #B5AB96",
"T. c #A086AC",
"R. c #B582A4",
"E. c #B784A6",
"W. c #A989B2",
"Q. c #A5A5A2",
"!. c #A8A7A2",
"~. c #AAA9A3",
"^. c #ABABAA",
"/. c #BEB7AA",
"(. c #BBBBB9",
"). c #B7B6B5",
"_. c #B1AFAC",
"`. c #C69483",
"'. c #C8B486",
"]. c #C4B9A3",
"[. c #C6A4BD",
"{. c #DBC189",
"}. c #E6C885",
"|. c #E5C684",
" X c #EACE92",
".X c #C1C2BF",
"XX c #E6D3A6",
"oX c #E6CEA0",
"OX c #B68ECC",
"+X c #C4A4D5",
"@X c #C3C3C2",
"#X c #CCCBCB",
"$X c #C8C8C7",
"%X c #CFD0D1",
"&X c #CECFD1",
"*X c #E7DFCB",
"=X c #E8E5DB",
"-X c #EFE4C7",
";X c #EBEBE8",
":X c #FEFEFF",
">X c #F2F4F7",
/* pixels */
"                                                                                                                        ",
"                                                                                                                        ",
"                                      | { 2.j X 0 2.{ | { { 7 # b | { K = X                                             ",
"                                      M K A z O g A K M _ C 7 & b A N n : O                                             ",
"                              . 6 2.c = q } ( P K | q - c | P P _ ` 7 : b n - .                                         ",
"                              & 9 Z c - 0 ` ` ` _ ` 0 & c ` _ ` _ V 7 ; M M 5 -                                         ",
"                          . 5 N _ } _ _ _ } ' } ' } _ _ ` } [ } ' } _ _ ' ' _ ( } n # .                                 ",
"                          * 9 C _ C U I ! I ! L I C _ C _ C _ _ I L ! L ! L _ _ ` n : *                                 ",
"                          _ _ } ' } -.~.I.~.I.~.>.} ' } ' } { | L.~.I.~.~.Y.[ } } ' _ _                                 ",
"                          _ _ _ L T @.J.J.J.J.J.;.T L _ _ ( T T G J.J.J.J.K.Y T _ ( _ (                                 ",
"                          { { } -.~.L.{ [ | { | :.!.*.} ' | L.~.^ | { { { X.U.Y.[ ' | '                                 ",
"                          _ ] W #.K.;._ _ _ _ C +.K.@.W W Y G K.! _ _ _ _ U G G W T _ L                                 ",
"                  n.n.M.c.| o.~.L.} ' } ' } ' } ' } :.!.!.~.=.} ' } } } } } } X.I.Y.2.<.m.n.m.b.                        ",
"                  p.i.7.p l D V.K._ _ _ _ _ _ _ ] C G G.P.V.+._ _ _ _ _ _ _ _ R U.H.c x 7.8.p.p.                        ",
"          n.n.n.n.m.u.> # # 3 Q.L.} ' 3.} 3.} 3.' } :.!.Q.!.=.} } 3.} } } } } X.Y.B.% % X w n.n.n.n.m.l.                ",
"          k.p.k.p.k.y., % # 3 V.Y.}.@.j k j k g F }.Y.V.P.G.'.|.D j j j k l ,.{.I.N.$ $ # e p.k.p.k.p.p.                ",
"      b.n.n.n.n.n.m.u.% @ X 3 P.f f ^.+ # X # X N.f @X!.Q.!.f f t X + @ + 1 f f _.B.% # X w n.n.n.n.m.n.m.              ",
"    l.k.k.k.p.k.p.k.a.i r % 3 V.f f Q.# $ # $ X d f (.G.P.P.f f t + % % # 1 f f !.N.$ 1 r p p.k.k.l.p.l.k.p.            ",
"  b.b.n.n.n.b.n.n.b.n.M.y.# 3 P.f f !.X X o X o d f .XQ.Q.!.f f t o X X X 1 f f _.B.@ 4 b.n.n.n.b.b.n.n.n.n.b.          ",
"  k.k.l.k.l.p.l.p.l.p.k.d.h x G.f f @XN.N.N.N.d _.f (.G.P.P.f f C.d N.N.N.B.f f !.Z.h x k.l.k.l.k.l.k.l.k.l.k.p.l.      ",
"  k.n.n.n.n.n.n.n.n.n.b.h.| ^ P.f f f f f f f f f f .XQ.Q.Q.f f f f f f f f f f _.Y.} &.l.l.n.n.b.n.n.n.n.n.n.n.n.      ",
"  p.k.l.l.l.k.l.l.l.l.k.f.] I +.'.(.$Xf f f f f #X(.'.+.#.#./.(.f f f f f f @X/.>.%.` $.l.l.l.l.k.l.k.l.k.l.k.l.k.      ",
"  k.n.n.n.n.b.n.n.n.n.b.h.[ ' S ^ P.(.f f f f f $XQ.*.S ' } L.!.f f f f f f ^.U.[ ' } $.n.n.n.n.b.n.b.n.b.n.b.n.b.      ",
"  k.l.l.l.l.l.l.l.l.l.b.f.] _ ` ] %.'.(.(.(.(.(.'.=.! ` ` ` W =.].(.(.(.(./.*.=.] _ ` $.l.l.b.l.k.l.l.l.l.l.k.l.k.      ",
"  k.b.b.b.b.b.b.b.b.k.b.f.[ ` ' ' S ~ P.P.P.P.Q.;.S ` S ' ' ` ' L.P.P.P.P.U.] A } ' S E l.b.b.b.b.k.b.k.b.b.b.b.b.      ",
"          l.l.l.l.l.l.n.f.] _ ` ] ` ! =.%.=.%.=.! ` _ ` ] ` ] ` ~ =.=.=.=.~ ] _ ` _ ' $.l.l.l.l.n.p.                    ",
"          k.k.b.k.b.k.b.f.[ ` ' ` ' _ Z _ A ` A ` ' ` ' ` ' _ ' ` ' ' ' ` _ ` ` ' ` ' $.l.k.b.k.b.p.                    ",
"                  n.n.n.f.] _ ' ` ' v : h ' ` ' ] ' ] ' ` ` ] ` ` ' ' K 7 7 P ` ` ` ' $.l.l.n.k.                        ",
"                  k.k.b.f.) _ ' ` S c X 8 C ( V ( V K V ( V K V ( V _ M = - M ` ' ` ` $.k.k.k.p.                        ",
"                      n.z.h.D.' ' } K n j ; 2 : 6 : 6 : 2 : 6 : : : : 6 v H ` ' }  .E.f.n.k.                            ",
"                      k.k.v.j.) ] Z _ S k O $ % < % $ O % O 1 $ $ $ % * M ` ` ` _ $.k.p.k.p.                            ",
"                      n.l.n.z.c.D.' ' ' K m '.%X$X%X>.m H / ].&X$X#XY M ` { ' ..E.x.n.n.n.n.m.n.                        ",
"                      k.k.k.k.v.j.) L ` _ Z  X;X=X=X6.Z ` ` XX=X;X;X5.Z ` _ ) E x.p.k.k.k.k.k.k.                        ",
"                  n.m.n.n.n.n.n.z.z.D.} ' }  X>XXX4.[ } { ' X.4.*X;X5.' ' ..h.z.n.n.n.n.n.n.n.b.                        ",
"                  p.p.k.p.p.k.k.p.p.F.R L C }.:X:XC _ C _ C _ _ :X*Xo._ ) E x.p.p.p.k.p.p.k.k.p.                        ",
"                  n.n.n.n.n.n.n.n.m.z.z.`.} { :X[ } ' } ' } [ } { :X} [ E.z.n.n.n.n.n.n.n.n.n.b.                        ",
"                  p.p.p.p.p.p.p.k.p.p.p.F.Q Q Q L C _ C _ C _ _ R Q Q E x.p.p.p.p.p.p.p.p.p.p.p.                        ",
"                  n.n.n.n.n.n.n.n.m.n.m.z.z.z.m.`.1.' } ' | { | E.m.z.z.n.n.n.n.m.n.m.n.n.n.m.b.                        ",
"                  p.p.p.p.p.p.p.p.p.p.a.p.p.p.p.A.E R V _ N E J g.p.p.p.p.p.p.p.p.p.p.p.p.p.p.p.                        ",
"              b.n.n.n.n.n.n.n.n.n.n.l.n.n.m.n.m.l.m.O.} } } F.m.n.m.n.n.n.n.n.n.n.n.m.n.m.n.n.n.m.b.                    ",
"              p.p.k.p.p.p.p.p.p.p.p.p.p.p.p.p.p.p.p.S.E J F t.p.k.p.p.p.k.p.p.p.p.p.k.p.p.p.p.p.p.p.                    ",
"              b.n.m.n.n.n.m.n.m.n.m.n.m.n.m.n.m.n.m.n.m.r.u d.M.n.m.n.m.n.n.n.n.n.n.m.n.m.n.m.n.m.b.                    ",
"              p.p.k.p.p.p.k.p.k.p.p.p.p.k.p.p.p.p.p.k.p.e.9.q.w.i.p.p.p.p.p.p.p.k.p.p.p.p.p.p.p.p.p.                    ",
"              b.n.n.n.n.n.n.n.n.n.m.n.m.n.m.n.m.n.n.n.n.n.m.s a u.m.n.m.n.m.n.n.m.n.m.n.n.n.M.n.M.b.                    ",
"              S.A.A.D.l.p.p.p.p.k.p.p.p.p.p.l.p.p.p.x.T.l.p.s y d.p.k.p.k.p.p.p.k.p.k.x.A.A.S.S.S.S.                    ",
"              S } } ..z.b.n.n.n.n.n.n.n.n.n.n.n.n.m.W.~.W.n.s a u.n.n.n.n.n.n.n.n.n.n.E.} } } } } A                     ",
"              _ _ _ ) O.A.l.p.k.l.k.k.k.l.k.l.p.l.k.x.T.x.p.s a d.k.k.k.l.k.k.k.k.p.p.R._ _ _ _ _ V                     ",
"              } ' } } S  .z.n.n.n.n.n.n.n.b.n.n.n.n.n.b.n.n.s u u.n.n.n.n.n.n.n.n.n.n.R.} ' } ' } A                     ",
"                B ` ) `.D.l.l.k.l.k.l.k.l.k.l.k.l.k.l.k.w.0.q.e.i.k.l.k.l.k.k.k.l.l.k.W.oX}.` _ ` (                     ",
"                  S ..z.b.n.n.b.n.n.n.n.n.b.n.n.n.n.n.n.9.y d.m.n.b.n.n.n.n.n.n.n.n.b.OX:X-X} ' } A                     ",
"                  S.F.l.k.l.l.k.l.k.l.k.l.k.l.k.l.k.w.9.q.w.i.l.l.k.l.k.l.l.l.l.l.l.k.M.+X[.                            ",
"                  b.b.b.k.b.n.b.b.b.k.b.b.b.b.b.l.b.0.y w.b.l.b.b.b.b.b.b.b.b.b.b.b.b.b.b.p.                            ",
"                  l.l.l.l.l.l.l.l.l.l.l.l.l.l.n.l.l.e.      p.l.l.l.l.l.l.l.l.l.n.l.l.l.l.k.n.                          ",
"                  b.b.b.b.b.b.b.l.b.k.b.k.b.n.b.k.b.        p.b.b.b.b.b.b.b.b.k.b.k.b.b.b.k.b.k.                        ",
"                      n.l.l.l.n.l.n.l.n.l.n.l.n.p.              k.l.l.n.l.l.l.l.l.l.n.l.n.l.n.k.                        ",
"                      b.k.k.k.k.k.b.k.b.l.k.k.b.                b.b.b.b.b.b.b.k.b.k.b.k.b.k.b.k.                        ",
"                          n.n.n.n.n.l.n.n.n.k.                          k.n.n.n.n.n.n.l.n.p.                            ",
"                          k.k.k.k.k.k.k.k.k.p.                          p.k.k.k.k.k.k.k.k.p.                            ",
"                                                                                                                        ",
"                                                                                                                        "
};
