/* XPM */
static char *_043023166c84358af2c9bcf415dacc6Kaq5yF8XcKKYtLbq[] = {
/* columns rows colors chars-per-pixel */
"60 60 200 2 ",
"   c None",
".  c #060709",
"X  c #0C0C0C",
"o  c #060606",
"O  c #16140D",
"+  c #0F0F10",
"@  c #0F1011",
"#  c #131314",
"$  c #1A1A1A",
"%  c #191716",
"&  c #241E13",
"*  c #2C2515",
"=  c #2B251A",
"-  c #292317",
";  c #392F1B",
":  c #3C321D",
">  c #1C1820",
",  c #201C23",
"<  c #1F2021",
"1  c #262527",
"2  c #3F3520",
"3  c #373635",
"4  c #31263A",
"5  c #41371F",
"6  c #453A22",
"7  c #564626",
"8  c #675329",
"9  c #614F27",
"0  c #7B632F",
"q  c #7C6532",
"w  c #392C42",
"e  c #3D3045",
"r  c #4F3A5A",
"t  c #444444",
"y  c #65625C",
"u  c #6A675E",
"i  c #5C426A",
"p  c #72537A",
"a  c #686460",
"s  c #79697B",
"d  c gray50",
"f  c #8A6D2E",
"g  c #876C32",
"h  c #8D7132",
"j  c #917434",
"k  c #9B7C39",
"l  c #90702F",
"z  c #8E724C",
"x  c #A88537",
"c  c #B38E3B",
"v  c #BB943D",
"b  c #C49A3C",
"n  c #CFA23D",
"m  c #D4A53D",
"M  c #DDAC3F",
"N  c #D9A735",
"B  c #E2AF3E",
"V  c #E5B23E",
"C  c #EAB53E",
"Z  c #EEB83E",
"A  c #F2BB3E",
"S  c #A3874B",
"D  c #B99D5E",
"F  c #B9A67C",
"G  c #C79D43",
"H  c #C99E55",
"J  c #DCAD44",
"K  c #DCAE4E",
"L  c #D5A744",
"P  c #DDB14D",
"I  c #DFB147",
"U  c #CFAB5A",
"Y  c #D4AD55",
"T  c #D9A65D",
"R  c #D2AD5C",
"E  c #D8A756",
"W  c #DBB153",
"Q  c #D6B15E",
"!  c #DCB45D",
"~  c #CDA241",
"^  c #E1AF42",
"/  c #E2AE4D",
"(  c #E5B344",
")  c #EAB643",
"_  c #EDB944",
"`  c #E4B34A",
"'  c #E9B54A",
"]  c #EBBA4B",
"[  c #E7B94E",
"{  c #F3BC44",
"}  c #F2BD4A",
"|  c #E2AE58",
" . c #E6B254",
".. c #E6B853",
"X. c #E6BA55",
"o. c #CE9C6C",
"O. c #C99672",
"+. c #C89579",
"@. c #D29F6B",
"#. c #CCAD64",
"$. c #C6AB6B",
"%. c #CAAC6A",
"&. c #D6A463",
"*. c #D2AF63",
"=. c #D7A765",
"-. c #CFB16B",
";. c #D4B162",
":. c #DAB362",
">. c #C6AC73",
",. c #C5AC76",
"<. c #CCB176",
"1. c #DCBE7D",
"2. c #E5B562",
"3. c #F5C04A",
"4. c #F8C145",
"5. c #E8C678",
"6. c #745187",
"7. c #7E5A94",
"8. c #7B6682",
"9. c #7E6885",
"0. c #866B91",
"q. c #8C6B9A",
"w. c #886998",
"e. c #806A83",
"r. c #A77C9B",
"t. c #8D62A7",
"y. c #966EAB",
"u. c #946AA8",
"i. c #9B6CB4",
"p. c #9E6DBB",
"a. c #9968B5",
"s. c #9D70B7",
"d. c #9470A6",
"f. c #AD7BAB",
"g. c #A977A9",
"h. c #B27DAD",
"j. c #B27FA0",
"k. c #A16EBD",
"l. c #A673B2",
"z. c #A17CB3",
"x. c #AD79B4",
"c. c #A271BD",
"v. c #AB76BC",
"b. c #AF79B9",
"n. c #B47EB1",
"m. c #9F6BC1",
"M. c #A46EC2",
"N. c #A571C3",
"B. c #A872C5",
"V. c #A873C8",
"C. c #828181",
"Z. c #8A8988",
"A. c #9E9D9A",
"S. c #979797",
"D. c #9A9487",
"F. c #BC8A8B",
"G. c #BB8988",
"H. c #BC8B93",
"J. c #B78596",
"K. c #A09F9B",
"L. c #A19988",
"P. c #ADA18A",
"I. c #B3A482",
"U. c #B9AA89",
"Y. c #A3A29E",
"T. c #AAA69D",
"R. c #ACA697",
"E. c #B5AB96",
"W. c #A086AC",
"Q. c #B582A4",
"!. c #A989B2",
"~. c #A5A5A2",
"^. c #A8A7A2",
"/. c #AAA9A3",
"(. c #ABABAA",
"). c #BEB7AA",
"_. c #BAB9B7",
"`. c #BBBBB9",
"'. c #B4B3B1",
"]. c #B1AFAC",
"[. c #C39180",
"{. c #ED9898",
"}. c #C7B487",
"|. c #C4B9A3",
" X c #C6A4BD",
".X c #DBC189",
"XX c #E5C785",
"oX c #C7C4BE",
"OX c #D1C9BA",
"+X c #E6CFA0",
"@X c #B68ECC",
"#X c #C4A4D5",
"$X c #C3C3C2",
"%X c #CFCECC",
"&X c #C8C8C7",
"*X c #D1CEC6",
"=X c #D6D5D5",
"-X c #DCDCDB",
";X c #F3E6C5",
":X c #FEFEFF",
/* pixels */
"                                                                                                                        ",
"                                                                                                                        ",
"                                      } ] 3.h X 0 3.] } ] ] 7 # v } ] J = X                                             ",
"                                      m J Z l O f Z J m ( V 7 & v Z M b : O                                             ",
"                              . 6 3.x = q { ^ L J } q - x } L L ( ) 7 : v b - .                                         ",
"                              & 9 C x - 0 ) ) ) ( ) 0 & x ) ( ) ( B 7 ; m m 5 -                                         ",
"                          . 5 M ( { ( ( ( { _ { _ { ( ( ) { ' { _ { ( ( _ _ ( ^ { b # .                                 ",
"                          * 9 V ( V I P W P W K P V ( V ( V ( ( P K W K W K ( ( ) b : *                                 ",
"                          ( ( { _ { :./.T./.T./.<.{ _ { _ { ] } U./.T././.E.[ { { _ ( (                                 ",
"                          ( ( ( K Y $.P.P.P.P.P.>.Y K ( ( ^ Y Y F P.P.P.P.I.U Y ( ^ ( ^                                 ",
"                          ] ] { :./.U.] [ } ] } ,.^.-.{ _ } U./.! } ] ] ] X.R.E.[ _ } _                                 ",
"                          ( ` R %.I.>.( ( ( ( V #.I.$.R R U F I.W ( ( ( ( I F F R Y ( K                                 ",
"                  N.N.V.n.} X./.U.{ _ { _ { _ { _ { ,.^.^./.;.{ _ { { { { { { ..T.E.3.2.B.N.B.M.                        ",
"                  p.i.6.p k S A.I.( ( ( ( ( ( ( ` V F K.Y.A.#.( ( ( ( ( ( ( ( K R.L.x z 6.7.p.p.                        ",
"          N.N.N.N.B.u.> # # 3 ~.U.{ _ 4.{ 4.{ 4._ { ,.^.~.^.;.{ { 4.{ { { { { [ E.Z.% % X w N.N.N.N.B.c.                ",
"          k.p.k.p.k.t., % # 3 A.E.XX$.h j h j f D XXE.A.Y.K.}.XXS h h h j k 1..XT.C.$ $ # e p.k.p.k.p.p.                ",
"      M.N.N.N.N.N.B.u.% @ X 3 Y.`.{.(.+ # X # X C.{.$X^.~.^.=X{.t X + @ + 1 {.{.].Z.% # X w N.N.N.N.B.N.B.              ",
"    c.k.k.k.p.k.p.k.a.i r % 3 A.'.{.~.# $ # $ X d {.`.K.Y.Y.%X{.t + % % # 1 {.{.^.C.$ 1 r p p.k.k.c.p.c.k.p.            ",
"  M.M.N.N.N.M.N.N.M.N.V.t.# 3 Y._.{.^.X X o X o d {.oX~.~.^.=X{.t o X X X 1 {.{.].Z.@ 4 M.N.N.N.M.M.N.N.N.N.M.          ",
"  k.k.c.k.c.p.c.p.c.p.k.d.g z K.'.{.$XC.C.C.C.d '.{.`.K.Y.Y.%X{.S.d C.C.C.Z.{.{.^.D.g z k.c.k.c.k.c.k.c.k.c.k.p.c.      ",
"  k.N.N.N.N.N.N.N.N.N.M.h.} ! Y._.{.{.{.{.{.{.{.{.{.oX~.~.~.=X{.{.{.{.{.{.{.{.{.].E.{ =.c.c.N.N.M.N.N.N.N.N.N.N.N.      ",
"  p.k.c.c.c.k.c.c.c.c.k.f.` P #.}.`.&X{.{.{.{.{.%X`.}.#.%.%.).`.-X{.{.{.{.{.$X).>.*.) &.c.c.c.c.k.c.k.c.k.c.k.c.k.      ",
"  k.N.N.N.N.M.N.N.N.N.M.h.' _ A ! Y.`.{.{.{.{.{.&X~.-.A _ { U.^.-X{.{.{.{.{.(.R.' _ { &.N.N.N.N.M.N.M.N.M.N.M.N.M.      ",
"  k.c.c.c.c.c.c.c.c.c.M.f.` ( ) ` *.}.`.`.`.`.`.}.;.W ) ) ) R ;.|.`.`._.`.).-.;.` ( ) &.c.c.M.c.k.c.c.c.c.c.k.c.k.      ",
"  k.M.M.M.M.M.M.M.M.k.M.f.' ) _ _ A Q Y.Y.Y.Y.~.>.A ) A _ _ ) _ U.Y.Y.Y.Y.R.` Z { _ A T c.M.M.M.M.k.M.k.M.M.M.M.M.      ",
"          c.c.c.c.c.c.N.f.` ( ) ` ) W ;.*.;.*.;.W ) ( ) ` ) ` ) Q ;.;.;.;.Q ` ( ) ( _ =.c.c.c.c.N.p.                    ",
"          k.k.M.k.M.k.M.f.' ) _ ) _ ( C ( Z ) Z ( _ ) _ ) _ ( _ ) _ _ _ ) ( ) ) _ ) _ &.c.k.M.k.M.p.                    ",
"                  N.N.N.f.` ( _ ) _ c : g _ ) _ ` _ ` _ ) ) ` ) ) _ _ J 7 7 L ) ) ) _ &.c.c.N.k.                        ",
"                  k.k.M.f./ ( _ ) A x X 8 V ^ B ^ B J B ^ B J B ^ B ( m = - m ) _ ) ) &.k.k.k.p.                        ",
"                      N.v.h.H._ _ { J b h ; 2 : 6 : 6 : 2 : 6 : : : : 6 c G ) _ { | Q.f.N.k.                            ",
"                      k.k.m.j./ ` C ( A j O $ % < % $ O % O 1 $ $ $ % * m ) ) ) ( &.k.p.k.p.                            ",
"                      N.c.N.v.x.H._ _ _ J n <.*XOX%X<.n G ~ |.%XOXOXU m ) ] _  .Q.x.N.N.N.N.B.N.                        ",
"                      k.k.k.k.m.j./ K ) ( C 2.:X:X:X5.C ) ) +X:X:X:X[ ) ) ( / T l.p.k.k.k.k.k.k.                        ",
"                  N.B.N.N.N.N.N.v.v.H.{ _ ) _ [ ] :X] { _ _ [ :X[ [ ) ) _ ..h.v.N.N.N.N.N.N.N.M.                        ",
"                  p.p.k.p.p.k.k.p.p.J.K ( C ) ) ) C ) V ( V ( ) ) ) ) ) ( E l.p.p.p.k.p.p.k.k.p.                        ",
"                  N.N.N.N.N.N.N.N.B.v.n.T ) ) ) ) ) ) { _ { ) ) ) ) ) ) &.h.N.N.N.N.N.N.N.N.N.M.                        ",
"                  p.p.p.p.p.p.p.k.p.p.l.&.) ) ) ) ) ( V ( V ( ) ) ) ) ( o.l.p.p.p.p.p.p.p.p.p.p.                        ",
"                  N.N.N.N.N.N.N.N.B.N.v.H.=.` ` ( _ _ { _ } _ _ ` ` ` =.H.v.N.N.B.N.B.N.N.N.B.M.                        ",
"                  p.p.p.p.p.p.p.p.p.p.a.g.J.O.O.&.E K B ( M E E o.O.O.J.g.p.p.p.p.p.p.p.p.p.p.p.                        ",
"              M.N.N.N.N.N.N.N.N.N.N.N.N.N.B.x.b.x.v.o.{ { { J.B.x.x.x.v.N.N.N.N.N.N.B.N.B.N.N.N.B.M.                    ",
"              p.p.k.p.p.p.p.p.p.p.p.p.p.p.p.p.p.p.p.G.&.H G r.p.k.p.p.p.k.p.p.p.p.p.k.p.p.p.p.p.p.p.                    ",
"              M.N.B.N.N.N.B.N.B.N.B.N.B.N.B.N.B.N.B.N.B.e.u d.V.N.B.N.B.N.N.N.N.N.N.B.N.B.N.B.N.B.M.                    ",
"              p.p.k.p.p.p.k.p.k.p.p.p.p.k.p.p.p.p.p.k.p.w.8.0.q.i.p.p.p.p.p.p.p.k.p.p.p.p.p.p.p.p.p.                    ",
"              M.N.N.N.N.N.N.N.N.N.B.N.B.N.B.N.B.N.N.N.N.N.B.s a y.B.N.B.N.B.N.N.B.N.B.N.N.N.V.N.V.M.                    ",
"              F.F.F.H.c.p.p.p.p.k.p.p.p.p.p.c.p.p.p.z.W.z.p.s y d.p.k.p.k.p.p.p.k.p.k.l.F.F.F.F.F.G.                    ",
"              A { {  .v.M.N.N.N.N.N.N.N.N.N.N.N.N.B.!./.!.N.s a y.N.N.N.N.N.N.N.N.N.N.Q.{ { { { { Z                     ",
"              ) ( ( / +.F.c.p.k.c.k.k.k.c.k.c.p.c.k.z.W.z.p.s a d.k.k.k.c.k.k.k.k.p.p.Q.( ( ( ( ( B                     ",
"              A _ { { A | v.N.N.N.N.N.N.N.M.N.N.N.N.N.M.N.N.s u y.N.N.N.N.N.N.N.N.N.N.Q.{ _ { _ { Z                     ",
"                N ) / [.H.c.c.k.c.k.c.k.c.k.c.k.c.k.c.k.q.9.0.w.i.k.c.k.c.k.k.k.c.c.k.!.+XXX) ( ) ^                     ",
"                  A  .v.M.N.N.M.N.N.N.N.N.M.N.N.N.N.N.N.8.y d.B.N.M.N.N.N.N.N.N.N.N.M.@X:X;X{ _ { Z                     ",
"                  F.J.c.k.c.c.k.c.k.c.k.c.k.c.k.c.k.q.8.0.q.i.c.c.k.c.k.c.c.c.c.c.c.k.V.#X X                            ",
"                  M.M.M.k.M.N.M.M.M.k.M.M.M.M.M.c.M.9.y q.M.c.M.M.M.M.M.M.M.M.M.M.M.M.M.M.p.                            ",
"                  c.c.c.c.c.c.c.c.c.c.c.c.c.c.N.c.c.w.      p.c.c.c.c.c.c.c.c.c.N.c.c.c.c.k.N.                          ",
"                  M.M.M.M.M.M.M.c.M.k.M.k.M.N.M.k.M.        p.M.M.M.M.M.M.M.M.k.M.k.M.M.M.k.M.k.                        ",
"                      N.c.c.c.N.c.N.c.N.c.N.c.N.p.              k.c.c.N.c.c.c.c.c.c.N.c.N.c.N.k.                        ",
"                      M.k.k.k.k.k.M.k.M.c.k.k.M.                M.M.M.M.M.M.M.k.M.k.M.k.M.k.M.k.                        ",
"                          N.N.N.N.N.c.N.N.N.k.                          k.N.N.N.N.N.N.c.N.p.                            ",
"                          k.k.k.k.k.k.k.k.k.p.                          p.k.k.k.k.k.k.k.k.p.                            ",
"                                                                                                                        ",
"                                                                                                                        "
};
