/* XPM */
static char *_ec8bd05182d45e3c9f70f1f391ad240Rts3jiS8JU44fdkl[] = {
/* columns rows colors chars-per-pixel */
"60 60 205 2 ",
"   c None",
".  c #060709",
"X  c #0C0C0C",
"o  c #060606",
"O  c #16140D",
"+  c #0F0F10",
"@  c #0F1011",
"#  c #131314",
"$  c #1A1A1A",
"%  c #191716",
"&  c #241E13",
"*  c #2C2515",
"=  c #2B251A",
"-  c #292317",
";  c #392F1B",
":  c #3C321D",
">  c #1C1820",
",  c #201C23",
"<  c #1F2021",
"1  c #262527",
"2  c #3F3520",
"3  c #373635",
"4  c #31263A",
"5  c #41371F",
"6  c #453A22",
"7  c #564626",
"8  c #675329",
"9  c #614F27",
"0  c #7B632F",
"q  c #7C6532",
"w  c #392C42",
"e  c #3D3045",
"r  c #4F3A5A",
"t  c #444444",
"y  c #65625C",
"u  c #6A675E",
"i  c #5C426A",
"p  c #72537A",
"a  c #686460",
"s  c #79697B",
"d  c gray50",
"f  c #8A6D2E",
"g  c #876C32",
"h  c #8D7132",
"j  c #917434",
"k  c #9B7C39",
"l  c #90702F",
"z  c #8E724C",
"x  c #A88537",
"c  c #B38E3B",
"v  c #BC943D",
"b  c #C49A3C",
"n  c #CFA13D",
"m  c #D4A53D",
"M  c #DDAC3F",
"N  c #D9A735",
"B  c #E2AF3E",
"V  c #E5B23E",
"C  c #EAB53E",
"Z  c #EEB93F",
"A  c #F2BB3E",
"S  c #A3874B",
"D  c #B99D5E",
"F  c #B9A67C",
"G  c #C79D43",
"H  c #CD9E59",
"J  c #DCAD43",
"K  c #DCAE4E",
"L  c #D5A744",
"P  c #DDB14D",
"I  c #DFB147",
"U  c #CDAA5B",
"Y  c #D4AD55",
"T  c #DBAB52",
"R  c #D5A35C",
"E  c #D2AD5C",
"W  c #DAA757",
"Q  c #DBB153",
"!  c #D6B15E",
"~  c #DCB45D",
"^  c #CDA241",
"/  c #E1AF42",
"(  c #E2AE4D",
")  c #E4B344",
"_  c #EAB644",
"`  c #EDB944",
"'  c #E5B44A",
"]  c #EAB54A",
"[  c #EBBA4B",
"{  c #F3BC44",
"}  c #F2BD4A",
"|  c #E2AD56",
" . c #E6B254",
".. c #E6B853",
"X. c #E5BA5C",
"o. c #CE9B6D",
"O. c #CCAD64",
"+. c #C8AC6A",
"@. c #D6A462",
"#. c #D2AF63",
"$. c #D9A963",
"%. c #CFB16B",
"&. c #D4B162",
"*. c #DAB362",
"=. c #C6AC73",
"-. c #C5AC76",
";. c #CBB075",
":. c #DCBE7D",
">. c #E2AB62",
",. c #F6C145",
"<. c #F5C04A",
"1. c #F9C245",
"2. c #F2C152",
"3. c #EFC159",
"4. c #ECC265",
"5. c #E7C87E",
"6. c #745187",
"7. c #7E5A94",
"8. c #7B6682",
"9. c #7E6885",
"0. c #8C6B9A",
"q. c #876A94",
"w. c #806A83",
"e. c #A77C9B",
"r. c #8D62A7",
"t. c #956BA9",
"y. c #9B6CB4",
"u. c #9E6DBB",
"i. c #9A67B7",
"p. c #9D70B7",
"a. c #9470A6",
"s. c #AD7BAB",
"d. c #AB79A8",
"f. c #B27DAC",
"g. c #B27FA0",
"h. c #A16EBD",
"j. c #A271BD",
"k. c #AB76BC",
"l. c #A679B3",
"z. c #B47EB2",
"x. c #9F6BC1",
"c. c #A46EC2",
"v. c #A571C3",
"b. c #A872C5",
"n. c #A873C8",
"m. c #828181",
"M. c #8A8988",
"N. c #9E9D9A",
"B. c #979797",
"V. c #9A9487",
"C. c #BB8A8B",
"Z. c #BB8A88",
"A. c #BC8B92",
"S. c #B78596",
"D. c #A09F9B",
"F. c #A19988",
"G. c #ADA18A",
"H. c #B3A482",
"J. c #B9AA89",
"K. c #A3A29E",
"L. c #AAA69D",
"P. c #ACA697",
"I. c #B5AB96",
"U. c #A086AC",
"Y. c #B582A4",
"T. c #B784A6",
"R. c #A989B2",
"E. c #A5A5A2",
"W. c #A8A7A2",
"Q. c #AAA9A3",
"!. c #ABABAA",
"~. c #BEB7AA",
"^. c #BAB9B7",
"/. c #BBBBB9",
"(. c #B4B3B1",
"). c #B1AFAC",
"_. c #C69483",
"`. c #C8B486",
"'. c #C4B9A3",
"]. c #C6A5BD",
"[. c #DBC189",
"{. c #E6C885",
"}. c #E5C786",
"|. c #EACE92",
" X c #C1C2BF",
".X c #E6D4A9",
"XX c #E6CEA0",
"oX c #B68ECC",
"OX c #C4A4D5",
"+X c #C3C3C2",
"@X c #CDCCCB",
"#X c #C8C8C7",
"$X c #CFD0D1",
"%X c #D5D4D4",
"&X c #DBDBDB",
"*X c #CECFD1",
"=X c #E7DFCB",
"-X c #E8E4D9",
";X c #EFE4C7",
":X c #E5E5E5",
">X c #ECECEC",
",X c #E8E8E4",
"<X c #F3F3F3",
"1X c #F8F9FB",
"2X c #F0F0F0",
/* pixels */
"                                                                                                                        ",
"                                                                                                                        ",
"                                      } [ <.h X 0 <.[ } [ [ 7 # v } [ I = X                                             ",
"                                      m J Z l O f Z J m ) V 7 & v Z M b : O                                             ",
"                              . 6 } x = q { / L J } q - x } L L ) _ 7 : v b - .                                         ",
"                              & 9 C x - 0 _ _ _ ) _ 0 & x _ ) _ ) B 7 ; m m 5 -                                         ",
"                          . 5 M ) { ) ) ) { ` { ` { ) ) _ { ] { ` { ) ) ` ` ) / { b # .                                 ",
"                          * 9 V ) V I P Q P Q K P V ) V ) V ) ) P K Q K Q K ) ) _ b : *                                 ",
"                          ) ) { ` { *.Q.L.Q.L.Q.;.{ ` { ` { [ } J.Q.L.Q.Q.I.] { { ` ) )                                 ",
"                          ) ) ) K Y +.G.G.G.G.G.=.Y K ) ) / Y Y F G.G.G.G.H.U Y ) / ) /                                 ",
"                          [ [ { *.Q.J.[ ] } [ } -.W.%.{ ` } J.Q.~ } [ [ [ ..P.I.] ` } `                                 ",
"                          ) ' E +.H.=.) ) ) ) V O.H.+.E E U F H.Q ) ) ) ) I F F E Y ) K                                 ",
"                  v.v.n.z.} X.Q.J.{ ` { ` { ` { ` { -.W.W.Q.&.{ ` { { { { { { ..L.I.<.>.b.v.b.c.                        ",
"                  u.y.6.p k S N.H.) ) ) ) ) ) ) ' V F D.K.N.O.) ) ) ) ) ) ) ) T P.F.x z 6.7.u.u.                        ",
"          v.v.v.v.b.t.> # # 3 E.J.{ ` 1.{ 1.{ 1.` { -.W.E.W.&.{ { 1.{ { { { { ..I.M.% % X w v.v.v.v.b.j.                ",
"          u.u.h.u.h.r., % # 3 N.I.{.+.h j h j f D {.I.N.K.D.`.}.S h h h j k :.[.L.m.$ $ # e u.h.u.h.u.u.                ",
"      c.v.v.v.v.v.b.t.% @ X 3 K./.1X!.X # X @ X m.1X+XW.E.W.%X2Xt X + @ + 1 &X>X).M.% # X w v.v.v.v.b.v.b.              ",
"    v.h.h.h.u.h.u.h.y.i r % 3 N.(.>XE.# $ # % X d >X/.D.K.K.@X:Xt + % # # 1 %X&XW.m.$ 1 r p u.h.h.j.u.j.h.u.            ",
"  c.c.v.v.v.c.v.c.c.v.n.r.# 3 K.^.1XW.X X o X o d 1X XE.E.W.%X>Xt o X X X 1 &X,X).M.@ 4 c.v.v.v.c.c.v.v.v.v.c.          ",
"  u.h.j.h.j.u.j.u.h.u.h.a.g z D.(.,X+Xm.d m.9.d (.>X/.D.K.K.@X:XB.d z m.m.M.&X&XW.V.g z h.j.h.j.h.j.h.j.h.j.h.u.j.      ",
"  h.v.v.v.v.v.v.v.v.v.c.f.} ~ K.^.<X>X1X>X1X<X1X>X1X XE.E.E.%X<X2X1X<X1X1X<X<X,X).I.{ $.j.j.v.v.c.v.v.v.v.v.v.v.v.      ",
"  u.h.j.j.j.h.j.j.h.j.h.s.' P O.`./.#X,X:X,X,X>X@X/.`.O.+.+.~./.&X,X,X,X,X:X+X~.=.#._ @.j.j.j.j.h.j.h.j.h.j.h.j.h.      ",
"  h.v.v.v.v.c.v.v.v.v.c.f.] ` A ~ K./.<X>X<X>X1X#XE.%.A ` { J.W.&X<X>X2X<X,X!.P.] ` { @.v.v.v.v.c.v.c.v.c.v.c.v.c.      ",
"  u.j.j.j.j.j.j.j.j.j.c.s.' ) _ ' #.`./././.^./.`.&.Q _ _ _ E &.~././.^./.~.%.&.' ) _ @.j.j.c.j.h.j.j.j.j.j.h.j.h.      ",
"  h.c.c.c.c.c.c.c.c.h.c.s.] _ ` ` A ! K.K.K.K.E.=.A _ A ` ` _ ` J.K.K.K.K.P.' Z { ` A R j.c.c.c.c.h.c.h.c.c.c.c.c.      ",
"          j.j.j.j.j.j.v.s.' ) _ ' _ Q &.#.&.#.&.Q _ ) _ ' _ ' _ ! &.&.&.&.! ' ) _ ) ` @.j.j.j.j.v.u.                    ",
"          h.h.c.h.c.h.c.s.] _ ` _ ` ) C ) Z _ Z _ ` _ ` _ ` ) ` _ ` ` ` _ ) _ _ ` _ ` @.j.h.c.h.c.u.                    ",
"                  v.v.v.s.' ) ` _ ` c : g ` _ ` ' ` ' ` _ _ ' _ _ ` ` J 7 7 J _ _ _ ` @.j.j.v.h.                        ",
"                  h.h.c.s.( ) ` _ A x X 8 V / B J B J B / B J B / B ) m = - m _ ` _ _ @.h.h.h.u.                        ",
"                      v.k.f.A.` ` { J b h ; 2 : 6 : 6 : 2 : 6 : : : : 6 c G _ ` { | Y.s.v.h.                            ",
"                      h.h.x.g.( ' C ) A j O $ % < % $ O % O 1 $ $ $ % * m _ _ _ ) @.h.u.h.u.                            ",
"                      v.j.v.k.z.A.` ` ` J n `.$X#X$X;.n G ^ '.*X#X@XU m _ [ `  .Y.l.b.v.v.v.b.v.                        ",
"                      h.h.h.h.x.g.( K _ ) C |.>X-X-X5.C _ _ .X-X,X,X4.C _ ) ( R l.u.h.h.h.h.h.u.                        ",
"                  v.v.v.v.v.v.v.k.k.A.{ ` { |.<XXX2.] { [ ` ..3.=X>X4.` `  .f.k.v.v.v.v.v.v.v.c.                        ",
"                  u.u.h.u.u.h.h.u.u.S.T K V {.-X}.V ) V ) V ) ) .X=XX.) ( R l.u.u.u.h.u.u.h.h.u.                        ",
"                  v.v.v.v.v.v.v.v.b.k.k._.{ [ 2.] { ` { ` { ] { [ 2.{ ] T.k.v.v.v.v.v.v.v.v.v.c.                        ",
"                  u.u.u.u.u.u.u.h.u.u.u.S.W W W K V ) V ) V ) ) T W W R l.u.u.u.u.u.u.u.u.u.u.u.                        ",
"                  v.v.v.v.v.v.v.v.b.v.b.k.k.k.b._.,.` { ` } [ } T.b.k.k.b.v.v.v.b.v.b.v.v.v.b.c.                        ",
"                  u.u.u.u.u.u.u.u.u.u.i.u.u.u.i.C.R T / ) M R H d.i.u.u.u.u.u.u.u.u.u.u.u.u.u.i.                        ",
"              c.v.v.v.v.v.v.v.v.v.v.v.v.v.b.v.b.j.b.o.{ { { S.b.v.b.v.v.v.v.v.v.v.v.b.v.b.v.v.v.b.c.                    ",
"              u.u.h.u.u.u.u.u.u.u.u.u.u.u.u.u.u.u.u.Z.R H D e.u.h.u.u.u.h.u.u.u.u.u.h.u.u.u.u.u.u.u.                    ",
"              c.v.b.v.v.v.b.v.b.v.b.v.b.v.b.v.b.v.b.v.b.w.u a.n.v.b.v.b.v.v.v.v.v.v.b.v.b.v.b.v.b.c.                    ",
"              u.u.h.u.u.u.h.u.h.u.u.u.u.h.u.u.u.u.u.h.u.q.8.q.0.y.u.u.u.u.u.u.u.h.u.u.u.u.u.u.u.u.u.                    ",
"              c.v.v.v.v.v.v.v.v.v.b.v.b.v.b.v.b.v.v.v.v.v.b.s a t.b.v.b.v.b.v.v.b.v.b.v.v.v.n.v.n.c.                    ",
"              C.C.C.A.j.u.u.u.u.h.u.u.u.u.u.j.u.u.u.l.U.j.u.s y a.u.h.u.h.u.u.u.h.u.h.l.C.C.C.C.C.Z.                    ",
"              A { {  .k.c.v.v.v.v.v.v.v.v.v.v.v.v.b.R.Q.R.v.s a t.v.v.v.v.v.v.v.v.v.v.Y.{ { { { { Z                     ",
"              ) ) ) ( o.C.j.u.h.j.h.h.h.j.h.j.u.j.h.l.U.l.u.s a a.h.h.h.j.h.h.h.h.u.u.Y.) ) ) ) ) B                     ",
"              { ` { { A | k.v.v.v.v.v.v.v.c.v.v.v.v.v.c.v.v.s u t.v.v.v.v.v.v.v.v.v.v.Y.{ ` { ` { Z                     ",
"                N _ ( _.A.j.j.h.j.h.j.h.j.h.j.h.j.h.j.h.0.9.q.q.y.h.j.h.j.h.h.h.j.j.h.R.XX{._ ) _ /                     ",
"                  A  .k.c.v.v.c.v.v.v.v.v.c.v.v.v.v.v.v.8.y a.b.v.c.v.v.v.v.v.v.v.v.c.oX1X;X{ ` { Z                     ",
"                  C.S.j.h.j.j.h.j.h.j.h.j.h.j.h.j.h.0.8.q.0.y.j.j.h.j.h.j.j.j.j.j.j.h.n.OX].                            ",
"                  c.c.c.h.c.v.c.c.c.h.c.c.c.c.c.j.c.9.y 0.c.j.c.c.c.c.c.c.c.c.c.c.c.c.c.c.u.                            ",
"                  h.j.j.j.j.j.j.j.j.j.j.j.j.j.v.j.j.0.      u.j.j.j.j.j.j.j.j.j.v.j.j.j.j.h.v.                          ",
"                  c.c.c.c.c.c.c.j.c.h.c.h.c.v.c.h.c.        u.c.c.c.c.c.c.c.c.h.c.h.c.c.c.h.c.h.                        ",
"                      j.j.j.j.v.j.v.j.v.j.v.j.v.u.              h.j.j.v.j.j.j.j.j.j.v.j.v.j.v.h.                        ",
"                      c.h.h.h.h.h.c.h.c.j.h.h.c.                c.c.c.c.c.c.c.h.c.h.c.h.c.h.c.h.                        ",
"                          v.v.v.v.v.j.v.v.v.u.                          h.v.v.v.v.v.v.j.v.h.                            ",
"                          u.h.h.h.h.h.h.h.h.i.                          u.h.h.h.h.h.h.h.h.i.                            ",
"                                                                                                                        ",
"                                                                                                                        "
};
