/* XPM */
static char *_1f36fd65b9c497ad4f3558058d43114CteZKnYttBDW14Sc[] = {
/* columns rows colors chars-per-pixel */
"60 60 143 2 ",
"   c None",
".  c #060507",
"X  c #0D0C0E",
"o  c #0F0C14",
"O  c #131313",
"+  c #15111B",
"@  c #1B1B1B",
"#  c #1B1523",
"$  c #1E1B24",
"%  c #1E1728",
"&  c #1F182A",
"*  c #201E25",
"=  c #221B2D",
"-  c #251D32",
";  c #232323",
":  c #27232E",
">  c #2C2C2C",
",  c #272232",
"<  c #292036",
"1  c #2D2B32",
"2  c #2C233B",
"3  c #2F293B",
"4  c #322E3A",
"5  c #333334",
"6  c #36343B",
"7  c #38363D",
"8  c #393939",
"9  c #2F2540",
"0  c #322643",
"q  c #342A44",
"w  c #362A49",
"e  c #3A2D4E",
"r  c #3A3641",
"t  c #3C344B",
"y  c #3E384A",
"u  c #3C2E52",
"i  c #3F3155",
"p  c #403A4D",
"a  c #403157",
"s  c #423C50",
"d  c #43345B",
"f  c #463D59",
"g  c #493C5C",
"h  c #473760",
"j  c #483761",
"k  c #473860",
"l  c #4A3964",
"z  c #4E3C6A",
"x  c #523F6F",
"c  c #523F70",
"v  c #434243",
"b  c #434148",
"n  c #48454F",
"m  c #4C4C4C",
"M  c #4C4855",
"N  c #4A425A",
"B  c #4F485E",
"V  c #54445B",
"C  c gray35",
"Z  c #4E4563",
"A  c #504565",
"S  c #554B67",
"D  c #534769",
"F  c #544A6A",
"G  c #594F6A",
"H  c #585266",
"J  c #5D5A64",
"K  c #5E5769",
"L  c #554173",
"P  c #5A4777",
"I  c #5A4E72",
"U  c #5B467D",
"Y  c #5E487F",
"T  c #5D5177",
"R  c #605E64",
"E  c #615B6E",
"W  c #61547B",
"Q  c #65597A",
"!  c #626262",
"~  c #6A6A69",
"^  c #6C6A72",
"/  c #6B6579",
"(  c #727274",
")  c #76747B",
"_  c gray48",
"`  c #5F4981",
"'  c #624B85",
"]  c #654E8A",
"[  c #665881",
"{  c #6A5C85",
"}  c #67508D",
"|  c #69508E",
" . c #6D5E8A",
".. c #6C5394",
"X. c #6F5598",
"o. c #72579C",
"O. c #73589D",
"+. c #6F608D",
"@. c #70618F",
"#. c #777085",
"$. c #797485",
"%. c #7B7981",
"&. c #7D768A",
"*. c #736392",
"=. c #776896",
"-. c #7B6F93",
";. c #7A699C",
":. c #7E6EA2",
">. c #80798F",
",. c #82769B",
"<. c #816FA5",
"1. c #8271A6",
"2. c #8573AB",
"3. c #8876AF",
"4. c #8B77B3",
"5. c #8D7AB5",
"6. c #927EBB",
"7. c #917DBA",
"8. c #927EBC",
"9. c #917DBB",
"0. c #898989",
"q. c #8B8B8B",
"w. c #8E8E8D",
"e. c #8B8596",
"r. c #8D8699",
"t. c #8D8798",
"y. c #918D9A",
"u. c #959494",
"i. c #979897",
"p. c #9B9B9B",
"a. c #9C94A0",
"s. c #A39AA7",
"d. c #A7A7A7",
"f. c #AFB0AE",
"g. c gray71",
"h. c gray75",
"j. c #C2C2C1",
"k. c #D6D7D5",
"l. c #E6E7E6",
"z. c #EAEAEA",
"x. c #EDECED",
"c. c #EEEFEC",
"v. c #F8F8F8",
/* pixels */
"                                                                                                                        ",
"                                                                                                                        ",
"                                                                                                                        ",
"                                                                                                                        ",
"                                                                                                                        ",
"                                                                                                                        ",
"                                                              +                                                         ",
"                                                              <                                                         ",
"                                                            + d -                                                       ",
"                                                            e ` w                                                       ",
"                                                          - ] o.d   +                                                   ",
"                                                          z O.O.x   <                                                   ",
"                                                        e o.O.O.U o e 2                                                 ",
"                                                      0 ..O.O.O.] + u l                                                 ",
"                                                    0 | O.O.O.O...= u ' #                                               ",
"                                          -       w | O.O.O.O.O...- a X.2                                               ",
"                                      % d       u ..O.O.O.O.O.O.X.2 l O.e                                               ",
"                                    # L d     d X.O.O.O.O.O.o.o.o.w P O.e                                               ",
"                                    c | -   j o.O.O.O.O.O.O.o.O.o.z ..X.0           = = #                               ",
"                                  j O.U o d o.O.O.O.O.O.o.O.O.O.o.X.O.] %   < u j L ] L                                 ",
"                                0 ..O.L - | O.O.O.O.o.o.o.o.O.O.O.O.O.l - L | o.O.O.O.z                                 ",
"                            o X L O.O.Y k O.O.O.o.O.O.o.o.o.O.O.O.O...j ] O.O.O.O.O.] 2                                 ",
"                            2 - ' O.O.X.| O.O.O.o.o.O.O.O.O.O.o.O.O.....O.O.O.O.O.O.j                                   ",
"                            u j ' O.O.O.O.O.O.O.o.o.O.O.O.O.o.o.O.O.O.O.O.O.O.O.O.U                                     ",
"                            9 ] } O.O.O.o.o.o.O.o.O.O.O.o.o.o.o.O.O.O.o.o.o.O.O.] 2   e                                 ",
"                            % | O.O.O.O.o.o.o.o.O.O.O.O.o.o.o.o.O.O.O.O.o.o.O.] 2 - L z                                 ",
"                            = ] O.o.O.O.o.o.O.O.O.O.O.O.O.O.o.o.O.O.O.O.o.o.] e h | | 9   =                             ",
"                              l O.o.O.O.O.O.o.O.O.O.O.O.O.O.O.o.O.O.O.O.o.o.' ] O.X.i   e 0                             ",
"                              & ' O.O.O.O.O.O.O.O.O.O.O.O.O.O.O.o.o.o.o.O.O.O.O.X.l w L d                               ",
"                                0 ..O.O.O.O.O.O.O.O.O.o.O.O.O.O.o.o.o.o.O.O.O.O.X.| ..h                                 ",
"                                  a o.O.o.O.O.O.O.X...X.O.o.O.O.O.o.O.O.O.O.O.O.o.U w                                   ",
"                                    j o.o.O.O.X.P S K G P X.O.o.O.O.O.O.O.X.] L u                                       ",
"                                      z o.O.o.D ( %.$.%.( A | O.O.O.O.O...j -                                           ",
"                                        x X.l ( #.1.5.1.$.! : d ` o.O.O...j - .                                         ",
"                                          q v q.e.Q g { &._ 5 > 1 t P X.' l q                                           ",
"                                          > m u.l.a.V s.j._ v 5 5 5 1 3                                                 ",
"                                          4 M q.h.v.c.z.p.~ n r 5 5 5 @                                                 ",
"                                        q =.=.^ w.d.g.i.( b =.1.F 5 >                                                   ",
"                                        I 7.4. .E ( ( R s +.7.8.7. .:                                                   ",
"                                        D -.r.&.>.Q  .;.4.8.7.7.7.3.t                                                   ",
"                                        f y.c.f.k./ r.,.5.7.7.7.7.<.                                                    ",
"                                        3 H $.E / B ) J G <.7.7.8.;.                                                    ",
"                                        I ;.3.5.5.5.3.:. .W +.3.8.;.                                                    ",
"                                      T 7.8.7.7.7.7.7.7.8.7.3.3.7.T                                                     ",
"                                      D 5.7.7.7.7.7.7.7.7.7.7.8.=.s                                                     ",
"                                         .7.7.7.7.7.7.7.7.7.8.:.y +.I                                                   ",
"                                        , *.8.7.7.7.7.7.7.8.2.y N 7. .                                                  ",
"                                          f *.8.7.7.7.7.8.2.s > +.4.;.                                                  ",
"                                          A 1  .7.8.8.7.=.y > 7 :.*.2.                                                  ",
"                                          D > 6 F *.*.F 4 5 5 5  .[ 3.Z                                                 ",
"                                          W > 5 5 5 5 > 5 5 5 5 7 p 1.W                                                 ",
"                                        D { O > 5 C ! 5 5 5 5 5 5 $ =. .                                                ",
"                                    f I ;.F   O ; > 8 > > > > ; @   { ;.                                                ",
"                            O @ T =.=.*.F       ; ; ; @ X @ > > ;   A 3.Z     * O                                       ",
"                          O @ @ 4               @ ; ; @   O @ @ O     ;.3.=.:.Z @ @                                     ",
"                            O                 O @ @ @ O   O @ @ O       +.;.@.3 O O                                     ",
"                                                            O O                                                         ",
"                                                                                                                        ",
"                                                                                                                        ",
"                                                                                                                        "
};
