/* XPM */
static char *e6a00b0ea8df448f8ab2bfa49d8db42agX9EBFMRtkWdp6TB[] = {
/* columns rows colors chars-per-pixel */
"60 60 101 2 ",
"   c None",
".  c black",
"X  c #000100",
"o  c #010101",
"O  c #010201",
"+  c #010301",
"@  c #010202",
"#  c #000203",
"$  c #020302",
"%  c #030703",
"&  c #040A04",
"*  c #040A05",
"=  c #09170A",
"-  c #0D1D0D",
";  c #0D1D0E",
":  c #0F2210",
">  c #0F2310",
",  c #102411",
"<  c #102511",
"1  c #153016",
"2  c #173418",
"3  c #173518",
"4  c #183719",
"5  c #19391A",
"6  c #1C411E",
"7  c #1F4921",
"8  c #204B22",
"9  c #214B22",
"0  c #214C23",
"q  c #214D23",
"w  c #224E24",
"e  c #245225",
"r  c #2A612C",
"t  c #2A622D",
"y  c #2B632D",
"u  c #2B642D",
"i  c #2C662E",
"p  c #2C662F",
"a  c #2F6C31",
"s  c #327234",
"d  c #347736",
"f  c #357835",
"g  c #347837",
"h  c #347937",
"j  c #357937",
"k  c #24775A",
"l  c #39843C",
"z  c #3C8A3F",
"x  c #3C8B3F",
"c  c #3D8C40",
"v  c #38AD7D",
"b  c #439A47",
"n  c #48A54B",
"m  c #48A54C",
"M  c #48A74C",
"N  c #49A74C",
"B  c #4BAE49",
"V  c #4AAA4D",
"C  c #4AAB4E",
"Z  c #48AD4C",
"A  c #49AE4D",
"S  c #4BAD4F",
"D  c #49AE4E",
"F  c #4AAE4E",
"G  c #4AAE4F",
"H  c #4BAE4F",
"J  c #4BAF4F",
"K  c #4DAF4D",
"L  c #4DAF4E",
"P  c #4DAF4F",
"I  c #4FB24F",
"U  c #4CAE50",
"Y  c #4CAF50",
"T  c #49AF56",
"R  c #4CB050",
"E  c #4DB051",
"W  c #4DB151",
"Q  c #4DB251",
"!  c #4EB352",
"~  c #4EB452",
"^  c #4FB553",
"/  c #43AE63",
"(  c #43AE64",
")  c #0374A6",
"_  c #0274A7",
"`  c #35AD83",
"'  c #34AD84",
"]  c #35AD84",
"[  c #36B086",
"{  c #28AB9A",
"}  c #1DAAB1",
"|  c #0DAADE",
" . c #0CAAE0",
".. c #03A9F3",
"X. c #04A9F2",
"o. c #03A8F4",
"O. c #03A9F4",
"+. c #02A9F5",
"@. c #04A9F4",
"#. c #04ACF6",
"$. c #03ACF8",
/* pixels */
"                                          . . . . . . . . . . . . . . . . . .                                           ",
"                                          . . . . . . . . . . . . . . . . . .                                           ",
"                                          . . . . . . . . . . . . . . . . . .                                           ",
"                                          . . . . . . . . . . . . . . . . . .                                           ",
"                          . . . . . . . . w j j j j j j j j j j j j j j j j w . . . . . . . .                           ",
"                          . . . . . . . . y ^ E E E E E E E E E E E E E E ^ u . . . . . . . .                           ",
"                          . . . . . . . . y E Y Y Y Y Y Y Y Y Y Y Y Y Y Y E y . . . . . . . .                           ",
"                          . . . . . . . . y E Y Y Y Y Y Y Y Y Y Y Y Y Y Y E y . . . . . . . .                           ",
"                        ; 8 q q q q q q q l E Y Y Y Y Y Y Y Y Y Y Y Y Y Y E l q q q q q q q 8 ;                         ",
"                  . . . < M E E E E E E E E Y Y Y Y Y Y Y Y Y Y Y Y Y Y Y Y E E E E E E E E M < . . .                   ",
"                  . . . < M E Y Y Y Y Y Y Y Y Y Y Y Y Y Y Y Y Y Y Y Y Y Y Y Y Y Y Y Y Y Y E M < . . .                   ",
"                  . . . > n E Y Y Y Y Y Y Y Y Y Y Y Y Y Y Y Y Y Y Y Y Y Y Y Y Y Y Y Y Y Y E n > . . .                   ",
"                ; < < > 6 M Y Y Y Y Y Y Y Y Y Y Y Y Y Y Y Y Y Y Y Y Y Y Y Y Y Y Y Y Y Y Y Y M 6 > < < ;                 ",
"        . . . . 8 M M n M Y Y Y Y Y Y Y Y Y Y Y Y Y Y Y Y Y Y Y Y Y Y Y Y Y Y Y Y Y Y Y Y Y Y M n M M 8 . . . .         ",
"        . . . . q E E E Y Y Y Y Y Y Y Y Y Y Y Y Y Y Y Y Y Y Y Y Y Y Y Y Y Y Y Y Y Y Y Y Y Y Y Y E E E q . . . .         ",
"        . . . . q E Y Y Y Y Y Y Y Y Y Y Y Y Y Y Y Y Y Y Y Y Y Y Y Y Y Y Y Y Y Y Y Y Y Y Y Y Y Y Y Y E q . . . .         ",
"        . . . . q E Y Y Y Y Y Y Y J J J J J J J J J Y Y Y Y Y Y Y Y Y Y Y Y Y Y Y Y Y J Y Y Y Y Y J E 7 . . . .         ",
"        . . . . q E Y Y Y Y Y Y J                   Y Y Y Y Y Y Y Y Y Y Y Y Y Y Y Y J                 = . . . .         ",
"        . . . . q E Y Y Y Y Y Y J                   Y Y Y Y Y Y Y Y Y Y Y Y Y Y Y Y J                 . . . . .         ",
"        . . . . q E Y Y Y Y Y Y J                   Y Y Y Y Y Y Y Y Y Y Y Y Y Y Y Y J                 . . . . .         ",
"        . . . . q E Y Y Y Y Y Y J                   J Y Y Y Y Y Y Y Y Y Y Y Y Y Y Y J                 . . . . .         ",
"        . . . . q E Y Y J                                   J Y Y Y Y Y Y Y J                                           ",
"        . . . . q E Y Y J                                   J Y Y Y Y Y Y Y J                                           ",
"        . . . . q E Y Y J                                   J Y Y Y Y Y Y Y J                                           ",
"        . . . . 8 E Y Y J                                   J Y Y Y Y Y Y Y J                                           ",
"        1 4 4 3 a E Y Y J                                   T Y Y Y Y Y Y Y J                                           ",
". . . . d Y J J J Y Y Y J                 O.O.O.O.O.O.O.O. .( P Y Y Y Y Y Y J                 @.O.O.O.O.O.O.$.) . . . . ",
". . . . j E Y Y Y Y Y Y J                 O.O.O.O.O.O.O.O. .( P Y Y Y Y Y Y J                 @.O.O.O.O.O.O.$.) # . . . ",
". . . . j E Y Y Y Y Y Y J                 O.O.O.O.O.O.O.O. .( P Y Y Y Y Y Y J                 @.O.O.O.O.O.O.$.) . . . . ",
". . . . j E Y Y Y Y Y Y J                 O.O.O.O.O.O.O.O. .( P Y Y Y Y Y Y J                 @.O.O.O.O.O.O.$.) . . . . ",
". . . . j E Y Y Y Y Y Y J                 O.O.O.O.O.O.O.O. .( P Y Y Y Y Y Y J                 @.O.O.O.O.O.O.$.) . . . . ",
". . . . j E Y Y Y Y Y Y J                 O.O.O.O.O.O.O.O. .( P Y Y Y Y Y Y J                 @.O.O.O.O.O.O.$.) . . . . ",
". . . . j E Y Y Y Y Y Y J                 O.O.O.O.O.O.O.O. .( P Y Y Y Y Y Y J                 @.O.O.O.O.O.O.$.) . . . . ",
". . . . j E Y Y Y Y Y Y J                 O.O.O.O...X.X...| / P Y Y Y Y Y Y J                 @.O.O.O...X.X.#.) . . . . ",
". . . . j E Y Y Y Y Y Y Y J J J J                 } ' ' ' v T Y Y Y Y Y Y Y J J J J J                 { ` ' [ k . . . . ",
". . . . j E Y Y Y Y Y Y Y Y Y Y J                   P P P P Y Y Y Y Y Y Y Y Y Y Y Y J                 B P P I j . . . . ",
". . . . j E Y Y Y Y Y Y Y Y Y Y J                   Y Y Y Y Y Y Y Y Y Y Y Y Y Y Y Y J                 J Y Y E j . . . . ",
". . . . j E Y Y Y Y Y Y Y Y Y Y J                   Y Y Y Y Y Y Y Y Y Y Y Y Y Y Y Y J                 J Y Y E j . . . . ",
". . . . j E Y Y Y Y Y Y Y Y Y Y J J               J Y Y Y Y Y Y Y Y Y Y Y Y Y Y Y Y J                 J Y Y E j . . . . ",
". . . . j E Y Y Y Y Y Y Y Y Y Y Y Y Y Y Y Y Y Y Y Y Y Y Y Y Y Y Y Y Y Y Y Y Y Y Y Y Y Y Y Y Y Y Y Y Y Y Y Y E j . . . . ",
". . . . j E Y Y Y Y Y Y Y Y Y Y Y Y Y Y Y Y Y Y Y Y Y Y Y Y Y Y Y Y Y Y Y Y Y Y Y Y Y Y Y Y Y Y Y Y Y Y Y Y E j . . . . ",
". . . . j E Y Y Y Y Y Y Y Y Y Y Y Y Y Y Y Y Y Y Y Y Y Y Y Y Y Y Y Y Y Y Y Y Y Y Y Y Y Y Y Y Y Y Y Y Y Y Y Y E j . . . . ",
". . . . j E Y Y Y Y Y Y Y Y Y Y Y Y Y Y Y Y Y Y Y Y Y Y Y Y Y Y Y Y Y Y Y Y Y Y Y Y Y Y Y Y Y Y Y Y Y Y Y Y E j . . . . ",
". . . . j E Y Y Y Y Y Y Y Y Y Y Y Y Y Y Y Y Y Y Y Y Y Y Y Y Y Y Y Y Y Y Y Y Y Y Y Y Y Y Y Y Y Y Y Y Y Y Y Y E j . . . . ",
". . . . j E Y Y Y Y Y Y Y Y Y Y Y Y Y Y Y Y Y Y Y Y Y Y Y Y Y Y Y Y Y Y Y Y Y Y Y Y Y Y Y Y Y Y Y Y Y Y Y Y E j . . . . ",
". . . . j E Y Y Y E E E Y Y Y Y Y Y Y Y Y Y E E E E E E E E E E E E E E E E Y Y Y Y Y Y Y Y Y Y E E E Y Y Y E j . . . . ",
". . . . j E Y Y C M M n M Y Y Y Y Y Y Y Y C n M M M M M M M M M M M M M M n C Y Y Y Y Y Y Y Y M n M M C Y Y E j . . . . ",
". . . . j E Y E s > < > 6 M Y Y Y Y Y Y E y > < < < < < < < < < < < < < < > y E Y Y Y Y Y Y M 6 > < > s E Y E j . . . . ",
". . . . j E Y E y . . . > n E Y Y Y Y Y E 8 . . . . . . . . . . . . . . . . 8 E Y Y Y Y Y E n > . . . y E Y E j . . . . ",
". . . . j E Y E y . . . < M E Y Y Y Y Y E q . . . . . . . . . . . . . . . . q E Y Y Y Y Y E M < . . . y E Y E j . . . . ",
". . . . j E E E y . . . < M E E E Y Y Y E q . . . . . . . . . . . . . . . . q E Y Y Y E E E M < . . . y E E E j . . . . ",
". . . . 3 w q q 5       ; 8 q q e b E Y E q . . . .                 . . . . q E Y E b e q q 8 ;       5 q q w 3 . . . . ",
". . . . . . . . .         . . . % x E Y E q . . . .                 . . . . q E Y E x % . . .         . . . . . . . . . ",
". . . . . . . . .         . . . & x E Y E q . . . .                 . . . . q E Y E x & . . .         . . . . . . . . . ",
". . . . . . . . .         . . . & c ^ E E w . . . .                 . . . . w E E ^ c & . . .         . . . . . . . . . ",
". . . . . . . .           . . . & i j j j 3 . . . .                 . . . . 3 j j j i & . . .           . . . . . . . . ",
". . . .                           . . . . . . . . .                 . . . . . . . . .                           . . . . ",
". . . .                           . . . . . . . . .                 . . . . . . . . .                           . . . . ",
". . . .                           . . . . . . . . .                 . . . . . . . . .                           . . . . ",
". . . .                           . . . . . . . . .                 . . . . . . . . .                           . . . . "
};
