/* XPM */
static char *_a0df7982d114e1dc979ba82f84c6833Y2YAIxkBqmXP4TV4[] = {
/* columns rows colors chars-per-pixel */
"60 60 217 2 ",
"   c None",
".  c #010101",
"X  c #04050B",
"o  c #0B0B0B",
"O  c #090806",
"+  c #1F1B06",
"@  c #171408",
"#  c #040610",
"$  c #090C17",
"%  c #131313",
"&  c #181816",
"*  c #17181A",
"=  c #1A1A1A",
"-  c #15161B",
";  c #101010",
":  c #221D05",
">  c #241D09",
",  c #231F12",
"<  c #24210F",
"1  c #372F0A",
"2  c #393516",
"3  c #37341A",
"4  c #35300F",
"5  c #0D132C",
"6  c #0B1226",
"7  c #0E1533",
"8  c #0F1838",
"9  c #101936",
"0  c #121B3F",
"q  c #0B0E22",
"w  c #1D253B",
"e  c #393A39",
"r  c gray18",
"t  c #443A09",
"y  c #443E1D",
"u  c #453F22",
"i  c #46401E",
"p  c #554B0F",
"a  c #746513",
"s  c #534C27",
"d  c #5B5428",
"f  c #5A5329",
"g  c #4E4826",
"h  c #635928",
"j  c #736A32",
"k  c #7A6D29",
"l  c #1F2844",
"z  c #1B2545",
"x  c #192657",
"c  c #283048",
"v  c #1D316D",
"b  c #1E3373",
"n  c #1E367A",
"m  c #1F387D",
"M  c #1B2C63",
"N  c #21367A",
"B  c #444444",
"V  c #4A4A4A",
"C  c #545454",
"Z  c #5D6C7E",
"A  c #616E7D",
"S  c #777777",
"D  c #4D5A7B",
"F  c #847418",
"G  c #816C0B",
"H  c #84782B",
"J  c #7D8067",
"K  c #B69A15",
"L  c #AA9215",
"P  c #8D833A",
"I  c #B9A639",
"U  c #B5A831",
"Y  c #A49031",
"T  c #CEAE0E",
"R  c #CDAB12",
"E  c #C5A914",
"W  c #DBBB12",
"Q  c #D9BB1A",
"!  c #F6B911",
"~  c #F5B711",
"^  c #F7B90F",
"/  c #D3BA2D",
"(  c #C7B53C",
")  c #C9B83C",
"_  c #D2BB32",
"`  c #DFC11E",
"'  c #E7C20B",
"]  c #E9C30C",
"[  c #EFCC0E",
"{  c #F8C40E",
"}  c #FED60D",
"|  c #FFD90B",
" . c #F6D10D",
".. c #E9C812",
"X. c #E8C716",
"o. c #F7CA10",
"O. c #F5D314",
"+. c #FED914",
"@. c #FDDA1B",
"#. c #F8D516",
"$. c #EFD21A",
"%. c #DCC229",
"&. c #DDC43E",
"*. c #EACD29",
"=. c #F9D82A",
"-. c #E0C536",
";. c #E3C83A",
":. c #E4C937",
">. c #FDDF3C",
",. c #FFE33A",
"<. c #958A42",
"1. c #A3954A",
"2. c #A49844",
"3. c #B2A748",
"4. c #8D8D6C",
"5. c #B7AC79",
"6. c #CAB95A",
"7. c #CBB647",
"8. c #CCBE6B",
"9. c #DDC444",
"0. c #D9C34D",
"q. c #D8C85A",
"w. c #E3CB44",
"e. c #EAD146",
"r. c #E4CC54",
"t. c #E9D359",
"y. c #F1DA5E",
"u. c #F6DD55",
"i. c #F8DD44",
"p. c #FEE34C",
"a. c #FEE144",
"s. c #FEE354",
"d. c #FEE55C",
"f. c #F6E05E",
"g. c #DDCD74",
"h. c #D7CA7A",
"j. c #D4C971",
"k. c #E8D569",
"l. c #F3DC61",
"z. c #F5DE67",
"x. c #E5D57E",
"c. c #E4D475",
"v. c #E2CF71",
"b. c #FEE563",
"n. c #FFE963",
"m. c #F6E165",
"M. c #1F3981",
"N. c #213A85",
"B. c #223C89",
"V. c #253F90",
"C. c #264294",
"Z. c #27449C",
"A. c #2A469C",
"S. c #38539C",
"D. c #334C85",
"F. c #294AA5",
"G. c #2A4CAA",
"H. c #2848A3",
"J. c #334FA6",
"K. c #3C5AAB",
"L. c #3756AE",
"P. c #2D4FB2",
"I. c #2E4FBA",
"U. c #2E51B5",
"Y. c #2F52BA",
"T. c #3656B3",
"R. c #3154B9",
"E. c #3B5CBC",
"W. c #3A59B5",
"Q. c #526586",
"!. c #4A67B7",
"~. c #4966B9",
"^. c #4D68A8",
"/. c #627BBF",
"(. c #4C5E8A",
"). c #3B5DC1",
"_. c #3F61C2",
"`. c #4465C4",
"'. c #4C6CC9",
"]. c #4C6CC3",
"[. c #5273CC",
"{. c #5B78C3",
"}. c #75869D",
"|. c #758AB3",
" X c #808081",
".X c #8C8B8D",
"XX c #9E9C96",
"oX c #9D9D9C",
"OX c gray59",
"+X c #8D918A",
"@X c #A29F91",
"#X c #A4A29E",
"$X c #ABA59B",
"%X c #B1AA88",
"&X c #9B9DA1",
"*X c #8D98A3",
"=X c #A09EA1",
"-X c #A3A2A3",
";X c #ACACAC",
":X c #A8A6A7",
">X c #B0AEB1",
",X c #B4B4B3",
"<X c #BCBBBB",
"1X c #B8B7B7",
"2X c #B2AFAB",
"3X c #CCC48A",
"4X c #EADA83",
"5X c #C7C4BB",
"6X c #C4C4C4",
"7X c #CBCBCA",
"8X c #C8C6C6",
"9X c #D2D2D2",
"0X c #DADADA",
"qX c #E2E1E2",
"wX c gray93",
"eX c #FEFEFE",
"rX c gray97",
/* pixels */
"                                            . . .                                                                       ",
"                                            . . .                                                                       ",
"                                                  . . .         . .                                                     ",
"                                                  . . .       . . .                                                     ",
"                                                        . . .                                                           ",
"                                                        . . . .                                                         ",
"                                      . . . . . . . . . . . . . . . . . . . . . .                                       ",
"                                      3 2 2 2 2 2 2 2 3 @ . . < 2 2 2 2 2 2 2 2 3                                       ",
"                          . . . . . , q.y.y.y.y.y.y.y.k.g . . P l.y.l.l.l.l.l.l.1.. . . . . .                           ",
"                          y y i i y h t.b.b.b.b.b.b.b.m.H t t U p.p.p.p.p.p.p.p.7.i u i i i y                           ",
"                    . . u y.m.l.l.y.l.b.b.b.b.b.b.b.b.d.=. . .} } } } } } } } } =.f.m.l.l.m.6.@ . .                     ",
"                  1 p p k 4X4X4X4X4X4Xx.x.x.x.x.c.u.a.a.@.| } =.e.e.w.w.w.w.w.w.r.g.g.k.p.a.9.h s g                     ",
"              . . p O.} e.5X6X6X6X6X5X1X,X,X2X;X2X:.} } } | } g.6X5X<X,X,X2X;X;X:XoXoX5.#.} @.d.n.q.< . .               ",
"              . . s r.r.g.6X6X6X<X<X<X,X,X,X;X;X2X8.9.9.r.t.t.3X<X<X1X,X,X,X;X;X;XoXoX%X7.9.7.1.2.<.@ . .               ",
"              . . V 6X6X6X7X7X6X,X,X,X;X;X;X;X;X;X-X-X-X<X7X7X<X,X,X,X;X;X;X;X;X;X-X-X-XoXoX4.% . . . . .               ",
"              . . V 6X6X6X6X6X6X9X0X0X0X9X9X9X9X7X;X-X-X1X6X6X9X0X0X0X0X0X9X9X9X6X-X-X=XoXoX4.o . . . . .               ",
"              . . V 7X7X6X,X,X6XeXeXeXeXeXeXeXeXrX1X-X-X>X1X7XrXeXeXeXeXeXeXeXeXqX-X-X-XoXoX Xo . . . . .               ",
"              . . V 7X7X6X,X,X1XqXrXeXeXeXeXeXeXrX1X-X-X>X6XwXrXeXeXeXeXeXeXeXeXqX-X-X-XoXoXQ.o . . . . .               ",
"              . . V 7X7X6X,X,X:X6XrXeXeXeXeXeXeXrX1X-X-X>X6XwXrXeXeXeXeXeXeXeXeXqX-X-X-XoXoX X; . . . . .               ",
"              . . B <X<X1X,X,X1XqXrX,XC e C ,XeXrX1X-X-X;X<XwXrXeX,XC e C ,XeXeXqX-X-X-XoXoX+XF G a @ . .               ",
"              . . B ,X,X,X;X;X<XeXeXS . . . S eXrX1X-X-X;X>X6XrXeXS . . . S eXeXqX-X-X-XoXoX5.` ] T : . .               ",
"              . . e ;X;X;X;X;X,X7X9XOXB r B .X8X6X:XoXoX;X;X>X7X9XOXB r B .X8X8X1XoXoX&X#X=X%XQ ' T : . .               ",
"              . . e #X-X-X;X;X;X;X;X;X-X-X-X-X-X-XoXXXoX:X;X;X;X;X;X:X-X-X-X-X-XoXoXoXoX#X-X%XQ ' R : . .               ",
"              . . s h.g.3X:X:X:X:X:X-X&XoXoXoX&X@X6.&.&.9.w.w.5.:X:X-XoXoXoXoXoXoX=X=X%X0.&.-.] ' R : . .               ",
"              . . d b.b.c.$X-X#X#X#X#XoXXXXXXXXX@X:.| | | | } 6.-X#X#XXXXXXXXXXXXX#X#X5.#.| } ] ' R : . .               ",
"              . . d b.b.z.c.c.k.;.;.;.-.-.-.-.-.-.#.| } } } } *.;.;.;.-.-.-.-.-.-.;.;.*.+.} } ] ' R : . .               ",
"              . . d b.b.b.d.b.p.+.| | | | | | | } } } } } } } } } | | | | | | | | | | | } }  .] ' R : . .               ",
"              . . d b.b.b.b.b.s.+.} } } } } } } } } } } } } } } } } } } } } } } } } } } } }  .] ' R : . .               ",
"              . . d b.b.b.b.b.s.+.} } } } } } } } } } } } } } } } } } } } } } } } } } } } }  .] ' R : . .               ",
"              . . d b.b.b.b.b.p.+.| } } } } } } } } } } } } } } } } } } | | } } } } } } } }  .] ' R : . .               ",
"              . . d b.b.b.b.b.s.@.+.+.} } } } } } } } } } } } } } } } } } } } } } } } } } }  .] ' R : . .               ",
"              . . d b.b.b.b.b.d.s.s.p.+.} } } } } } } } } } } } } } o.^ ! { } } } } } } } }  .] ' R : . .               ",
"              . . d b.b.b.b.b.b.b.b.s.@.} } } } } } } } } } } } } } { ! ! { } } } } } } } } } ] ] T : . .               ",
"              . . d b.b.b.b.b.b.b.b.s.+.| } } } } { ~ ! ! ! ! ! ! ! { } } } } } } } } } } } } } | W : . .               ",
"              . . s g.c.c.b.b.b.b.b.d.=.@.@.+.} } { ! ! ! ! ! ! ! ! o.} } } } } } } } } } | O.%.%.U > . .               ",
"              . . c {.{.*Xm.n.b.b.d.b.d.d.s.@.} } } } } } } } } } } } } } } } } } | | | | | %.(.S.D.$ . .               ",
"              . . c |.|.*Xh.h.h.j.j.g.m.b.d.@.} } } } } } } } } } } } } } } } } $./ _ / / / 3.A Q.D $ . .               ",
"              . . f z.m.3X/.{.{.W.W.^.k.n.d.@.| | | | | | | | | | | | | | | | | I S.S.S.S.J.Q.%.O.Q + . .               ",
"            3 y 2 H p.p.q..X}.}.R.I.^.%Xj.8.7.( ( ( ( ( ( ( ( ( ( ( ( ( ( ( ( ) 4.F.H.S.Z Z J $.| X.p t t               ",
"      . . . j l.l.i.+.| +.#.#.) K.U.Y.T.T.T.T.T.T.T.T.T.T.T.T.T.T.T.T.T.T.T.T.T.L.G.H.Z *.O.O.} | } O.O.X.1 . .         ",
"      . . . j b.b.w.K L E } } _ K.Y.Y.Y.Y.R.E.E.).E.E.).E.).E.E.E.E.E.W.E.R.Y.Y.P.H.F.Z $.| [ K L K  .} ..1 . .         ",
"      . . . j b.n.1.O . p O.| _ K.Y.Y.Y.Y.R.'.[.[.[.[.[.[.[.[.[.[.[.].!.!.E.R.Y.U.H.F.A $.| W + . > W | ..1 . .         ",
"      . . . j b.n.1.. . 3 3.3.4.L.Y.Y.Y.Y.R.'.[.[.'.`.`.`.`.`.`.`.~.~.!.!.E.Y.Y.P.H.H.(.2.U P @ . + W } ..1 . .         ",
"      . . . j b.n.1.. . 9 J.U.R.Y.Y.Y.Y.Y.R.'.[.[.E.Y.Y.Y.Y.R.P.G.H.K.!.!.E.Y.Y.P.H.H.A.N.N.v # . + W } ..1 . .         ",
"      . . . j b.n.1.. . 9 P.Y.Y.Y.Y.Y.Y.Y.R.'.[.[.E.Y.Y.P.P.P.G.H.H.K.!.!.E.Y.Y.P.H.H.H.B.B.b # . + W } ..1 . .         ",
"      . . . j b.n.1.. . 9 P.Y.Y.Y.Y.Y.Y.Y.R.'.[.[.E.Y.U.G.H.H.H.H.H.K.!.!.E.Y.Y.U.H.H.H.B.B.b # . + W } ..1 . .         ",
"      . . . k >.,.Y . . 9 P.Y.Y.Y.Y.Y.Y.Y.R._.`.`.`.`._.E.E.E.W.T.T.W.E.E.T.P.P.G.Z.Z.C.B.N.b # . + W } ..1 . .         ",
"      . . . a +.| L . . 9 U.Y.Y.Y.Y.Y.Y.Y.Y.Y.Y.R.'.[.[.[.[.[.].!.!.E.Y.Y.P.H.H.A.B.B.N.B.N.b # . + W | ..1 . .         ",
"      . . . 2 F F p . . 5 Z.A.H.Y.Y.Y.Y.Y.Y.Y.Y.R.)._._._._._.E.E.E.T.G.P.H.C.C.B.M.N.N n N M X . @ a F a + . .         ",
"      . . . o * * ; . . 6 N.N.V.U.Y.Y.Y.Y.Y.Y.Y.Y.Y.Y.Y.Y.Y.Y.Y.Y.Y.G.G.G.Z.N.N.M.n n b v v x X . . * * % X . .         ",
"  . . o % ; % = = % . . # 9 8 x C.Z.Z.Z.Z.Z.Z.Z.Z.Z.Z.Z.Z.Z.Z.Z.Z.Z.Z.C.C.B.m m n b b M 7 5 5 . . . * = = % o ; . . .   ",
". . . o = = = = = % . . . . . $ N N.N.N.N.N.N.N.N.N.N.N.N.N.N.N.N.N.N.N.N.N.n N b v v x X . . . . . % = = = = = . . .   ",
". . . o = = = = = % . . .       7 7 7 7 7 7 7 7 7 7 7 7 7 7 7 7 7 7 7 7 7 7 5 5 5 5 5 6       . . . % = = = = = . . .   ",
". . . o = = = = = % . . .       . . . . . . . . . . . . . . . . . . . . . . . . . . . .       . . . % = = = = = . . .   ",
"      . o o o o o o             . . $ N N.N b b v q . . .     . . . 0 b b n N.N.x . . .             o o o o o o         ",
"        . . . . . .             . . q A.Y.U.G.H.A.5 . .       . . . x H.H.G.U.R.N X . .             . . . . . .         ",
"                          . . O % % - w l l l w w $ . .       . . . - l w l l l w % % % . . .                           ",
"                          . . . * = = & & = = & & o . .       . . . o & & & & & & = = % . . .                           ",
"                          . . . . . . . . . . . . . . .       . . . . . . . . . . . . . . . .                           ",
"                          . . . . . . . . . . . . . . .       . . . . . . . . . . . . . . . .                           "
};
