/* XPM */
static char *d7ddc0dfc7b042e4f57988129d3a795fCDYiNVX16XAu3DqO[] = {
/* columns rows colors chars-per-pixel */
"60 60 219 2 ",
"   c None",
".  c #010101",
"X  c #04050B",
"o  c #0B0B0B",
"O  c #0A0706",
"+  c #1F1B06",
"@  c #171408",
"#  c #040610",
"$  c #090C17",
"%  c #131313",
"&  c #181816",
"*  c #17181A",
"=  c #1A1A1A",
"-  c #15161B",
";  c #101010",
":  c #221D05",
">  c #241D09",
",  c #231F12",
"<  c #24210F",
"1  c #372F09",
"2  c #37300B",
"3  c #393516",
"4  c #38351A",
"5  c #322F18",
"6  c #0D132C",
"7  c #0B1226",
"8  c #0E1533",
"9  c #0F1838",
"0  c #101936",
"q  c #121B3F",
"w  c #0B0E22",
"e  c #1D253B",
"r  c #333433",
"t  c #443A09",
"y  c #443E1D",
"u  c #453F20",
"i  c #46401E",
"p  c #554B0F",
"a  c #746513",
"s  c #4A4422",
"d  c #534C27",
"f  c #5B5428",
"g  c #5A5329",
"h  c #514C30",
"j  c #635928",
"k  c #736A32",
"l  c #7A6D29",
"z  c #1F2844",
"x  c #1B2545",
"c  c #192657",
"v  c #283048",
"b  c #1D316D",
"n  c #1E3373",
"m  c #1E367A",
"M  c #1F387D",
"N  c #1B2C63",
"B  c #21367A",
"V  c #494948",
"C  c #5D6C7E",
"Z  c #616E7D",
"A  c #7C7C7C",
"S  c #4D5A7B",
"D  c #847418",
"F  c #816C0B",
"G  c #84782B",
"H  c #7D8067",
"J  c #B69A15",
"K  c #AA9215",
"L  c #8D833A",
"P  c #B9A639",
"I  c #B5A831",
"U  c #A49031",
"Y  c #CEAE0E",
"T  c #CDAB12",
"R  c #C5A914",
"E  c #DBBB12",
"W  c #D9BB1A",
"Q  c #F6B911",
"!  c #F5B711",
"~  c #F7B90F",
"^  c #D3BA2D",
"/  c #C7B53C",
"(  c #C9B83C",
")  c #D2BB32",
"_  c #DFC11E",
"`  c #E7C20B",
"'  c #E9C30C",
"]  c #EFCC0E",
"[  c #F8C40E",
"{  c #FED60D",
"}  c #FFD90B",
"|  c #F6D10D",
" . c #E9C812",
".. c #E8C716",
"X. c #F7CA10",
"o. c #F5D314",
"O. c #FED914",
"+. c #FDDA1B",
"@. c #F8D516",
"#. c #EFD21A",
"$. c #DCC229",
"%. c #DDC43E",
"&. c #EACD29",
"*. c #F9D82A",
"=. c #E0C536",
"-. c #E3C83A",
";. c #E4C937",
":. c #FDDF3C",
">. c #FFE33A",
",. c #958A42",
"<. c #A3954A",
"1. c #A49844",
"2. c #B2A748",
"3. c #8D8D6C",
"4. c #B7AC79",
"5. c #CAB95A",
"6. c #CBB647",
"7. c #CCBE6B",
"8. c #DDC444",
"9. c #D9C34D",
"0. c #D8C85A",
"q. c #E3CB44",
"w. c #EAD146",
"e. c #E4CC54",
"r. c #E9D359",
"t. c #F1DA5E",
"y. c #F6DD55",
"u. c #F8DD44",
"i. c #FEE34C",
"p. c #FEE144",
"a. c #FEE354",
"s. c #FEE55C",
"d. c #F6E05E",
"f. c #DDCD74",
"g. c #D7CA7A",
"h. c #D4C971",
"j. c #E8D569",
"k. c #F3DC61",
"l. c #F5DE67",
"z. c #E4D375",
"x. c #E5D57E",
"c. c #E8D870",
"v. c #E2CF71",
"b. c #FEE563",
"n. c #FFE963",
"m. c #F6E165",
"M. c #1F3981",
"N. c #213A85",
"B. c #223C89",
"V. c #253F90",
"C. c #264294",
"Z. c #27449C",
"A. c #2A469C",
"S. c #38539C",
"D. c #334C85",
"F. c #294AA5",
"G. c #2A4CAA",
"H. c #2848A3",
"J. c #334FA6",
"K. c #3C5AAB",
"L. c #3756AE",
"P. c #2D4FB2",
"I. c #2E4FBA",
"U. c #2E51B5",
"Y. c #2F52BA",
"T. c #3656B3",
"R. c #3154B9",
"E. c #3B5CBC",
"W. c #3A59B5",
"Q. c #526586",
"!. c #4A67B7",
"~. c #4966B9",
"^. c #4D68A8",
"/. c #627BBF",
"(. c #4C5E8A",
"). c #3B5DC1",
"_. c #3F61C2",
"`. c #4465C4",
"'. c #4C6CC9",
"]. c #4C6CC3",
"[. c #5273CC",
"{. c #5B78C3",
"}. c #75869D",
"|. c #758AB3",
" X c #818182",
".X c #8B8B8B",
"XX c #9E9C96",
"oX c #9D9C9C",
"OX c #939393",
"+X c #8D918A",
"@X c #A19F96",
"#X c #A49F89",
"$X c #A4A29E",
"%X c #ABA59B",
"&X c #B1AA88",
"*X c #9B9DA1",
"=X c #8D98A3",
"-X c #A09EA1",
";X c #A3A1A3",
":X c #ACACAC",
">X c #A8A6A7",
",X c #B0AEB1",
"<X c #B4B4B4",
"1X c #BCBBBB",
"2X c #B8B7B7",
"3X c #B2AFAB",
"4X c #CCC48A",
"5X c #EADA83",
"6X c #C7C4BB",
"7X c #C4C4C3",
"8X c #C7C5C8",
"9X c #CBCBCB",
"0X c #C8C6C5",
"qX c #D0D0D0",
"wX c gray83",
"eX c gray87",
"rX c #E1E0E2",
"tX c #FFFEFF",
"yX c #F1F1F1",
/* pixels */
"                                                                      . . .                                             ",
"                                                                      . . .                                             ",
"                                                    . .         . . .                                                   ",
"                                                    . . .       . . .                                                   ",
"                                                          . . .                                                         ",
"                                                        . . . .                                                         ",
"                                      . . . . . . . . . . . . . . . . . . . . . .                                       ",
"                                      5 3 3 3 3 3 3 3 3 < . . @ 4 3 3 3 3 3 3 3 4                                       ",
"                          . . . . . . <.k.k.k.k.k.k.t.k.L . . s j.t.t.t.t.t.t.t.0., . . . . .                           ",
"                          y i i i u s 6.i.i.i.i.i.i.i.i.I t t G m.b.b.b.b.b.b.b.r.j y i i y y                           ",
"                    . . @ 5.m.k.k.m.d.*.} } } } } } } } { | | *.s.b.b.b.b.b.b.b.b.k.t.k.k.m.t.s . .                     ",
"                    d d j 8.p.i.j.f.f.e.q.q.q.q.q.q.w.w.*.} { +.p.p.y.z.x.x.x.x.x.5X5X5X5X5X5Xl p p 2                   ",
"              . . < 0.n.s.+.} @.4.XXoX>X:X:X3X<X<X1X6X7Xf.} } { } } ;.3X:X3X<X<X2X6X7X7X7X7X6X-.{ o.p . .               ",
"              . . @ ,.1.1.6.8.6.&XoXoX>X:X:X:X<X<X2X1X1X4Xr.r.e.8.8.7.3X:X:X<X<X<X1X1X1X8X8X6Xf.e.e.d . .               ",
"              . . . . . % 3.oXXX;X;X;X>X:X:X:X:X:X<X<X<X1X9X9X1X;X;X>X:X:X:X:X:X:X<X<X<X8X9X9X8X7X7XV . .               ",
"              . . . . . o  XoXoX;X;X;X7XwXwXwXwXwXwXwXwX9X7X7X2X;X;X:X9X9XwXwXwXwXwXwXwX8X7X7X8X8X8XV . .               ",
"              . . . . . o  XoXoX;X;X;XrXtXtXtXtXtXtXtXtXrX<X<X,X;X;X2XtXtXtXtXtXtXtXtXtX8X<X<X8X9X9XV . .               ",
"              . . . . . o Q.oXoX;X;X;XrXtXtXtXtXtX7X X XoX<X<X,X;X;X2XtXtXtXtXtXyXOX X X>X<X<X8X9X9XV . .               ",
"              . . . . . ;  XoXoX;X;X;XrXtXtXtXtXtXA . . V <X<X,X;X;X2XtXtXtXtXtXrX= . O OX<X<X8X9X9XV . .               ",
"              . . @ a F D +XoXoX;X;X;XrXtXtXtXtXtX8X.X.XoX<X<X:X;X;X2XtXtXtXtXtXyXoX.X.X>X<X<X2X1X1XV . .               ",
"              . . : Y ' _ 4.oXoX;X;X;XrXtXtXtXtXtXtXtXtXeX:X:X>X;X;X2XtXtXtXtXtXtXtXtXtX1X:X:X<X<X<XV . .               ",
"              . . : Y ` W &X-X$X*XoXoX2X8X8X8X8X8X9X9X9X7X:X:X>XoXoX>X7X8X8X8X8X8X9X9X9X<X:X:X>X>X>Xr . .               ",
"              . . : T ` W &X;X$XoXoXoXoX;X;X;X;X;X>X:X:X:X:X:X>XoXXXoX;X;X;X;X;X;X>X:X:X:X:X:X>X;X$Xr . .               ",
"              . . : T ` ' =.%.9.&X-X-XoXoXoXoXoXoX;X>X>X4.q.q.8.%.%.5.@X*XoXoXoX*X>X>X>X>X>X>X4Xz.g.h . .               ",
"              . . : T ` ' { } @.4.$X$X@XXXXXXXXXXX$X$X;X5.{ } } } } ;.#XXXXXXXXXoX$X$X$X$X;X%Xz.b.b.f . .               ",
"              . . : T ` ' { { O.&.-.-.=.=.=.=.=.=.-.-.-.&.{ } { { } @.=.=.=.=.=.=.-.-.-.j.z.z.l.b.b.f . .               ",
"              . . : T ` ' { } { } } } } } } } } } } } } } } { { { } } { } } } } } } } O.i.b.s.b.b.b.f . .               ",
"              . . : T ` ' { } { { { { { { { { { { { { { { { { { { { { { { { { { { { { O.a.b.b.b.b.b.f . .               ",
"              . . : T ` ' { { { { { { { { { { { { { { { { { { { { { { { { { { { { { { O.a.b.b.b.b.b.f . .               ",
"              . . : T ` ' { { { { { { { { { } } } { { { { { { { { { { { { { { { { } } O.i.b.b.b.b.b.f . .               ",
"              . . : T ` ' { { { { { { { { { { { { { { { { { { { { { { { { { { { } O.O.+.a.b.b.b.b.b.f . .               ",
"              . . : T ` ' { { { { { { { { { [ Q ~ X.} } { { { { { { { { { { { { O.i.a.a.s.b.b.b.b.b.f . .               ",
"              . . : Y ' ' { { { { { { { } { [ Q Q [ { { { { { { { { { { { { { { +.a.b.b.b.b.b.b.b.b.f . .               ",
"              . . : E } { { { { { { { { { { { { { [ Q Q Q Q Q Q Q ! ~ { } { { } O.a.b.b.b.b.b.b.b.b.f . .               ",
"              . . > I $.$.o.} { { { { { { { { } } X.Q Q Q Q Q Q Q Q [ { { O.+.+.*.s.b.b.b.b.b.c.z.f.h . .               ",
"              . . $ D.S.(.$.} } } } } } { { { { } { { { { { { { { { { { { +.a.s.s.b.s.b.b.n.m.=X{.{.v . .               ",
"              . . $ S Q.Z 2.^ ^ ^ ) ^ #.} { { { { { { { { { { { { { { { { +.s.b.m.f.h.h.g.g.g.=X|.|.v . .               ",
"              . . + W o.$.Q.J.S.S.S.S.P } } } } } } } } } } } } } } } } } +.s.n.c.^.W.W.{.{./.4Xm.l.g . .               ",
"              t t p ..}  .H C C S.F.F.3.( / / / / / / / / / / / / / / / / 6.7.h.&X^.I.R.}.}..X0.i.i.G 4 y 5             ",
"        . . 2 ..o.o.} } } o.o.&.C F.F.L.T.T.T.T.T.T.T.T.T.T.T.T.T.T.T.T.T.T.T.T.T.Y.Y.K.( @.@.O.} O.u.k.k.k . . .       ",
"        . . 1  .} | J K J ] } #.C F.F.P.Y.Y.R.E.R.E.E.).E.E.E.E.E.E.E.E.E.E.R.Y.Y.Y.Y.K.) } { R K J q.b.b.k . . .       ",
"        . . 1  .} E > . + Y } #.Z F.F.U.Y.R.E.!.!.].[.[.[.[.[.[.[.[.[.[.[.'.R.Y.Y.Y.Y.K.) } o.p . O <.n.b.k . . .       ",
"        . . 1  .} E + . @ L I 1.(.F.F.P.Y.Y.E.!.!.~.`.`.`.`.`.`.`.`.'.[.[.'.R.Y.Y.Y.Y.L.3.2.2.5 . . <.n.b.k . . .       ",
"        . . 1  .} E + . # b N.B.A.F.F.P.Y.Y.E.!.!.K.F.F.P.R.Y.Y.Y.Y.E.[.[.'.R.Y.Y.Y.Y.Y.R.U.J.0 . . <.n.b.k . . .       ",
"        . . 1  .} E + . # n B.B.H.F.F.P.Y.Y.E.!.!.K.F.F.G.P.P.P.Y.Y.E.[.[.'.R.Y.Y.Y.Y.Y.Y.Y.P.0 . . <.n.b.k . . .       ",
"        . . 1  .} E + . # n B.B.H.F.F.U.Y.Y.E.!.!.K.F.F.F.F.F.G.U.Y.E.[.[.'.R.Y.Y.Y.Y.Y.Y.Y.P.0 . . <.n.b.k . . .       ",
"        . . 1  .} E + . # b B.B.C.Z.Z.F.P.P.T.E.E.W.L.L.W.E.E.E._.`.`.`.`._.R.Y.Y.Y.Y.Y.Y.Y.P.0 . . U >.:.l . . .       ",
"        . . 1  .} E + . # n B.B.B.B.B.A.F.F.P.Y.Y.E.!.!.~.[.[.[.[.[.'.R.Y.Y.Y.Y.Y.Y.Y.Y.Y.Y.U.0 . . K } O.a . . .       ",
"        . . + a D a @ . X N B m B N.M.B.C.C.F.P.G.T.W.E.E._._._._._.).R.Y.Y.Y.Y.Y.Y.Y.Y.F.A.Z.6 . . p D D 3 . . .       ",
"        . . X & * - . . X c b b n m m M.B.B.Z.F.F.G.Y.Y.Y.Y.Y.Y.Y.Y.Y.Y.Y.Y.Y.Y.Y.Y.Y.U.B.B.N.7 . . ; * * o . . .       ",
"  . . O o o % = = * O . . 7 6 8 N n n m M M B.C.C.Z.Z.Z.Z.Z.Z.Z.Z.Z.Z.Z.Z.Z.Z.Z.Z.Z.Z.C.c 9 0 # . . % = = & ; % O . .   ",
"  . . O = = = = = & O . . . . X c b b n B m N.B.B.B.B.B.B.B.B.B.B.B.B.B.B.B.B.B.B.B.B.B $ . . . . . % = = = = = o . . . ",
"  . . O = = = = = & O . .       7 7 6 6 6 6 8 8 8 8 8 8 8 8 8 8 8 8 8 8 8 8 8 8 8 8 8 8       . . . % = = = = = o . . . ",
"  . . O = = = = = & O . .       . . . . . . . . . . . . . . . . . . . . . . . . . . . .       . . . % = = = = = o . . . ",
"        O O O O O O             . . . c B.N.m n n q . . .     . . . w b n n B N.B $ . .             O O O O O O O       ",
"        . . . . . .             . . X B R.U.G.F.F.c . . .       . . 7 A.F.F.U.U.A.$ . .             . . . . . .         ",
"                          . . . % % & e z z z e z - . . .       . . $ e e z z z e - % % O . .                           ",
"                          . . . % = = & & & & & & o . . .       . . O & & & & & & = = * O . .                           ",
"                          . . . O O O O O O O O O . . . .       . . . O O O O O O O O O . . .                           ",
"                          . . . . . . . . . . . . . . . .       . . . . . . . . . . . . . . .                           "
};
