/* XPM */
static char *_8f8ad747cc44aacfbee571b3fd07250TnSJH8QTOPjts8wo[] = {
/* columns rows colors chars-per-pixel */
"60 60 203 2 ",
"   c None",
".  c #010101",
"X  c #0C0A02",
"o  c #05050B",
"O  c #0A0A0A",
"+  c #0A0706",
"@  c #1B1701",
"#  c #1E1A04",
"$  c #171408",
"%  c #050711",
"&  c #060912",
"*  c #090C18",
"=  c #0F1114",
"-  c #131314",
";  c #181816",
":  c #15161B",
">  c #17181A",
",  c #1A1A1A",
"<  c #100F0F",
"1  c #221D05",
"2  c #262105",
"3  c #26210C",
"4  c #2A2306",
"5  c #372F09",
"6  c #393109",
"7  c #3B3513",
"8  c #37341B",
"9  c #312F19",
"0  c #0D132B",
"q  c #0B1226",
"w  c #0E1533",
"e  c #0F1838",
"r  c #101936",
"t  c #111A3C",
"y  c #0B0E22",
"u  c #1D263D",
"i  c #1C2233",
"p  c #433909",
"a  c #423D1B",
"s  c #594D0A",
"d  c #4E4516",
"f  c #4F471F",
"g  c #574E1A",
"h  c #5A501C",
"j  c #4E430F",
"k  c #645508",
"l  c #61561D",
"z  c #776816",
"x  c #75650F",
"c  c #524B26",
"v  c #5B5223",
"b  c #57502A",
"n  c #5B5637",
"m  c #635D39",
"M  c #6B6227",
"N  c #776A22",
"B  c #736A32",
"V  c #6F673E",
"C  c #131C41",
"Z  c #1F2844",
"A  c #1B2545",
"S  c #1B295E",
"D  c #192758",
"F  c #283048",
"G  c #1F316D",
"H  c #1E3575",
"J  c #1E3778",
"K  c #23366C",
"L  c #22367A",
"P  c #213677",
"I  c #2C447F",
"U  c #655F41",
"Y  c #545F77",
"T  c #6E7772",
"R  c #687576",
"E  c #857517",
"W  c #8E7B13",
"Q  c #837629",
"!  c #7E8478",
"~  c #9F8708",
"^  c #9A851E",
"/  c #AC9412",
"(  c #B59B17",
")  c #AE9412",
"_  c #BAA119",
"`  c #B9A013",
"'  c #928533",
"]  c #8D813F",
"[  c #B49E26",
"{  c #A49031",
"}  c #B4A735",
"|  c #D6B50F",
" . c #CEAD12",
".. c #C8AC18",
"X. c #DBBA12",
"o. c #D4B916",
"O. c #E1BE0D",
"+. c #E0BF12",
"@. c #D8BD29",
"#. c #C9B53C",
"$. c #C8B53C",
"%. c #D2BD33",
"&. c #C4AE2E",
"*. c #E9C40C",
"=. c #EBC70D",
"-. c #F2CD0D",
";. c #F6D00D",
":. c #FED70D",
">. c #FED80D",
",. c #E9C812",
"<. c #E4C414",
"1. c #F1CF17",
"2. c #F4D213",
"3. c #FCD613",
"4. c #FED813",
"5. c #FAD61A",
"6. c #FEDA1D",
"7. c #F6D21B",
"8. c #EFD219",
"9. c #DEC327",
"0. c #DCC12A",
"q. c #E7CB27",
"w. c #FCDA25",
"e. c #F5D52C",
"r. c #FADA2C",
"t. c #F8D622",
"y. c #E4C938",
"u. c #FCDC31",
"i. c #FDDE3C",
"p. c #F1D336",
"a. c #EED02D",
"s. c #FFE139",
"d. c #A2954A",
"f. c #A9974A",
"g. c #A39C59",
"h. c #BFAF44",
"j. c #BAAC49",
"k. c #B2A94A",
"l. c #B3A84B",
"z. c #888C72",
"x. c #8E8F63",
"c. c #C9B648",
"v. c #F9DD44",
"b. c #F4D945",
"n. c #E2CE53",
"m. c #ECD550",
"M. c #FEE24C",
"N. c #FFE459",
"B. c #D8C967",
"V. c #D7CC7B",
"C. c #DED076",
"Z. c #F3DD65",
"A. c #E4D572",
"S. c #FEE564",
"D. c #FFEA64",
"F. c #F5E26A",
"G. c #223A84",
"H. c #263E8D",
"J. c #253F90",
"K. c #2D4487",
"L. c #2A4495",
"P. c #27459C",
"I. c #2A459B",
"U. c #2D499E",
"Y. c #2B4695",
"T. c #3C5798",
"R. c #3B5281",
"E. c #2947A0",
"W. c #2D4BA4",
"Q. c #2B4CA9",
"!. c #314EA8",
"~. c #3553AC",
"^. c #3C59AB",
"/. c #2F4FB0",
"(. c #2E51B4",
"). c #2E52BA",
"_. c #3555B5",
"`. c #3C5BB4",
"'. c #3455BA",
"]. c #3758BA",
"[. c #3858B9",
"{. c #3758B4",
"}. c #435B94",
"|. c #485F8D",
" X c #4D618C",
".X c #5B6B80",
"XX c #536488",
"oX c #556A9E",
"OX c #4B639B",
"+X c #6A788C",
"@X c #425EAC",
"#X c #415EA7",
"$X c #415DB1",
"%X c #4A63A5",
"&X c #4862A8",
"*X c #627BBF",
"=X c #5D79C3",
"-X c #5773C0",
";X c #76879C",
":X c #758AB3",
">X c #848E93",
",X c #909AA3",
"<X c #C6C385",
/* pixels */
"                                            . . .                                                                       ",
"                                            . . .                                                                       ",
"                                                  . . .         . .                                                     ",
"                                                  . . .       . . .                                                     ",
"                                                        . . .                                                           ",
"                                                        . . . .                                                         ",
"                                      . . . . . . . . . . . . . . . X @ @ @ X . .                                       ",
"                                      a d d d d d d d a $ . . 3 7 d z / / / z d 9                                       ",
"                          . . . . . 7 y.u.r.r.u.r.r.r.b.l . . ] Z.b.w.4.4.4.w.b.f.. . . . . .                           ",
"                          a f h h l ^ t.4.4.4.4.4.4.4.w.( k s &.s.w.4.>.:.>.4.w.#.c h h h f a                           ",
"                    X @ v m.v.u.u.r.6.4.:.:.:.:.:.:.:.4.4.:.:.:.:.>.:.:.:.:.:.>.6.i.r.r.u.v.c.$ . .                     ",
"                  s W ` ..e.w.4.4.4.3.:.:.:.:.:.:.:.:.:.>.:.:.>.>.:.:.:.:.:.:.3.5.5.3.3.4.6.a.Q v c                     ",
"              . X W :.:.3.3.3.>.:.:.:.:.:.:.:.:.:.:.:.:.:.:.:.:.:.:.:.:.:.:.:.:.:.:.:.:.:.:.>.6.s.n.3 . .               ",
"              . @ ( 3.:.:.:.:.>.:.:.:.:.:.:.:.:.:.:.:.:.:.:.:.:.:.:.:.:.:.:.:.:.:.:.:.:.:.:.:.:.2...5 . .               ",
"              . @ [ 5.:.:.:.:.:.:.>.>.:.>.>.:.:.:.>.:.:.:.:.:.:.:.:.:.:.:.>.:.:.:.:.:.:.:.:.:.:.:.O.k X .               ",
"              . @ [ 3.:.:.:.:.:.>.:.:.>.:.>.:.>.>.>.>.>.>.:.:.>.>.:.>.>.:.>.:.:.:.:.:.:.:.:.>.:.:.;.~ @ .               ",
"              . X ' t.:.:.:.:.:.:.:.>.:.:.>.>.:.:.>.>.:.>.:.>.:.:.>.:.:.>.>.:.>.>.:.:.:.:.:.>.:.:.;.~ @ .               ",
"              . . V p.:.:.:.:.:.:.:.:.:.>.:.:.:.>.:.>.>.:.:.:.>.>.>.>.:.:.>.>.:.>.>.>.>.>.>.:.:.:.;.~ @ .               ",
"              . . U p.:.:.:.:.:.>.>.:.:.:.>.>.>.>.:.:.:.:.:.:.:.:.>.:.>.>.:.:.:.>.>.>.:.:.:.:.:.:.*.k X .               ",
"              . . m p.:.:.:.:.:.>.>.:.:.:.>.:.:.>.>.:.:.:.:.>.:.>.:.:.>.:.:.>.>.:.>.>.>.>.:.:.:.:.X.p . .               ",
"              . . n a.:.:.:.:.:.>.>.:.:.>.4.4.:.>.:.:.>.>.>.>.>.>.>.>.:.:.>.:.:.:.>.>.:.:.:.:.:.:.=.6 . .               ",
"              . . m a.:.:.:.:.:.:.:.:.:.:.t.5.:.:.>.:.>.>.:.>.>.:.:.>.:.:.:.:.>.>.:.>.:.:.:.:.:.:.O.4 . .               ",
"              . . n y.3.:.:.:.:.:.:.:.>.3.7.3.:.>.:.:.:.:.:.:.>.:.>.:.:.>.>.>.>.:.>.:.:.:.:.>.:.-.| 1 . .               ",
"              . . M e.:.:.:.:.:.:.:.:.:.:.:.>.:.:.:.:.:.:.>.>.>.>.:.:.>.:.:.:.:.>.>.>.:.:.:.:.;.=. .1 . .               ",
"              . . N w.>.:.:.:.:.:.:.:.:.:.:.:.:.:.:.:.:.:.>.:.:.>.:.:.:.:.>.:.:.:.:.>.:.:.>.>.;.=. .1 . .               ",
"              . . M r.4.:.:.:.:.:.:.:.:.:.:.:.:.:.:.>.>.>.:.>.>.:.:.>.>.>.:.:.:.>.:.:.:.:.:.:.-.=. .2 . .               ",
"              . . N w.4.>.:.>.>.>.:.:.:.:.:.:.:.>.:.>.>.>.:.>.:.:.>.:.:.>.:.>.:.:.:.>.>.:.>.:.*.*. .2 . .               ",
"              . X ^ w.4.>.>.:.4.:.:.:.:.:.:.:.:.:.:.>.:.>.:.:.:.:.>.>.:.:.>.:.>.:.:.:.:.:.>.:.*.*. .2 . .               ",
"              . @ _ 4.>.:.:.4.4.>.>.:.>.>.:.:.:.:.:.:.:.:.:.:.:.:.:.:.>.:.>.:.:.>.:.:.:.>.:.;.*.*. .2 . .               ",
"              . @ _ 4.:.:.:.4.4.>.>.:.>.:.>.:.:.:.:.:.:.:.:.:.:.:.:.:.:.>.>.:.:.>.:.:.:.:.:.;.*.=. .2 . .               ",
"              . @ _ 4.>.:.>.4.>.:.:.:.:.:.:.:.>.:.>.>.:.:.:.:.:.:.:.:.:.:.:.:.:.:.>.:.:.:.:.;.*.=. .2 . .               ",
"              . X W w.4.4.4.6.4.>.:.:.:.>.>.:.:.>.>.:.>.:.:.:.:.:.:.:.:.:.:.:.>.:.>.:.:.:.:.;.*.=. .2 . .               ",
"              . . M M.u.u.u.i.4.>.:.:.:.:.>.:.:.:.:.:.>.:.:.:.:.:.:.:.:.:.:.:.>.:.>.:.:.:.:.:.=.=. .4 . .               ",
"              . . v S.N.N.N.M.6.>.:.:.:.>.:.:.:.:.;.:.:.:.:.:.:.:.:.:.>.:.:.>.>.:.>.:.:.:.:.:.:.>.+.4 . .               ",
"              . . b C.A.A.S.N.u.4.>.:.:.:.:.:.:.:.;.:.>.:.:.:.:.:.:.:.>.>.>.:.:.:.>.:.:.:.:.2.q.9.} 3 . .               ",
"              . . F =X=X,XF.D.M.u.6.4.>.:.:.:.:.:.:.:.:.:.>.>.:.>.>.:.>.:.:.>.:.>.>.>.>.>.>.9..X}.R.= . .               ",
"              . . F :X:X,XV.V.V.B.n.e.4.:.:.:.:.:.:.>.:.>.:.:.>.:.:.>.:.:.:.:.>.1.@.@.@.@.@.$.T .XY - . .               ",
"              . . b Z.F.<X*X=X-X$XoXj.3.>.:.:.>.>.>.>.>.>.>.>.>.>.>.>.>.>.>.>.>.$..XXX X X}.R 9.2.o.2 . .               ",
"            9 a 8 Q M.M.B.>X;X;X{.^.z.a.3.8.q.0.$.j.h.h.c.h.j.l.j.h.#.#.h.h.h.#.g.|.}. XT T x.,.>.,.k p p               ",
"      . . . B Z.Z.v.4.>.4.2.3.#.#X_.%X! g.z.+XoX@X`.$X$X@X$X`.`.`.@X&X&X@X@X@X&XOX}.}.T q.2.2.>.>.>.2.2.<.5 . .         ",
"      . . . B S.D.n.( / ..:.>.%.#X'._.@X&X`.`.[.[.[.[.[.[.[.[.].[.[.`.`.[.[.[.`.#X}.}.T 8.>.-.` ) ( ;.>.,.5 . .         ",
"      . . . B S.D.d.+ . j 2.>.%.#X'._._._.'.].].].].].].].].].].].].[.[.].[.].[.^.T.T.T 2.>.| 2 + 4 X.>.,.5 . .         ",
"      . . . B S.D.d.. . 9 f.k.x.^.'.'._.'.].[.].].].].].].].].].].].].[.[.].].[.`.T.T..X} } ' $ . 1 X.>.,.5 . .         ",
"      . . . B S.D.d.. . r !.(.'.).'.'.'.'.'.].].].].].].].].].].].].].].].].].].`.^.T.T.K.I K & . 1 X.>.,.5 . .         ",
"      . . . B S.D.d.. . r /.).).).).'.'.'.].].].].].].].].].].].].].[.[.].].].[.`.{.~.~.Y.K.K % . # X.>.,.5 . .         ",
"      . . . B S.D.d.. . r /.).).).).'.'.].].].].].].].].].].].].].].].[.].].].[.[.{._._.~.Y.P % . # X.>.,.5 . .         ",
"      . . . N i.s.{ . . r (.).).).).'.'.'.].].].].].].].].].].].].].].[.].].].].].].].]._.W.L % . # X.>.,.5 . .         ",
"      . . . x 4.>./ . . r (.).).).).'.'.'.].].].].].].].].].].].].].].].].].].].].].].'._.W.L % . # X.>.,.5 . .         ",
"      . . . 7 E E g . . 0 L.P.E.).).'.'.'.'.'.'.'.].].].].].].].].].].].].].[.'.'.].'.]._.U.G o . $ z E z # . .         ",
"      . . . O > > < . . q G.G.J.(.).).).'.'.'.'.'.'.].].].].].].].].].].].].[._._._._._.W.G.S o . . > > - o . .         ",
"  . . O - < - , , - . . % e e A L.P.P.P.P.E.E.E.Q._._._._._._._.'.'.'._._._._.~.U.U.U.Y.S t 0 . . . > , , - O O . . .   ",
". . . O , , , , , - . . . . . * L G.G.G.G.G.G.G.H.L.W.W.W.L.L.L.W.W.W.W.W.W.U.H.L H H S % . . . . . - , , , , , . . .   ",
". . . O , , , , , - . . .       w w w w w w w w w t C C C t w t C C C C C C t w 0 0 0 q       . . . - , , , , , . . .   ",
". . . O , , , , , - . . .       . . . . . . . . . . . . . . . . . . . . . . . . . . . .       . . . - , , , , , . . .   ",
"      . O O O O O O             . . * P G.L H H G y . . .     . . . t H H J G.G.D . . .             O O O O O O         ",
"        . . . . . .             . . y U.).(.Q.E.I.0 . .       . . . D E.E.Q.(.'.L o . .             . . . . . .         ",
"                          . . + - - : u Z Z Z u u & . .       . . . : Z u Z Z Z i - - - . . .                           ",
"                          . . . > , , ; ; , , ; ; + . .       . . . O ; ; ; ; ; ; , , - . . .                           ",
"                          . . . . . . . . . . . . . . .       . . . . . . . . . . . . . . . .                           ",
"                          . . . . . . . . . . . . . . .       . . . . . . . . . . . . . . . .                           "
};
