/* XPM */
static char *_d188bebe53d47669f66427a29e49026Pc6CWFw60CnE9CHx[] = {
/* columns rows colors chars-per-pixel */
"60 60 218 2 ",
"   c None",
".  c #010101",
"X  c #04050B",
"o  c #0B0B0B",
"O  c #090806",
"+  c #1F1B06",
"@  c #171408",
"#  c #040610",
"$  c #090C17",
"%  c #131313",
"&  c #181816",
"*  c #17181A",
"=  c #1A1A1A",
"-  c #15161B",
";  c #101010",
":  c #221D05",
">  c #241D09",
",  c #231F12",
"<  c #24210F",
"1  c #372F0A",
"2  c #393516",
"3  c #37341A",
"4  c #35300F",
"5  c #0D132C",
"6  c #0B1226",
"7  c #0E1533",
"8  c #0F1838",
"9  c #101936",
"0  c #121B3F",
"q  c #0B0E22",
"w  c #1D253B",
"e  c #333433",
"r  c #443A09",
"t  c #443E1D",
"y  c #453F22",
"u  c #46401E",
"i  c #554B0F",
"p  c #746513",
"a  c #534C27",
"s  c #5B5428",
"d  c #5A5329",
"f  c #4E4826",
"g  c #635928",
"h  c #736A32",
"j  c #7A6D29",
"k  c #1F2844",
"l  c #1B2545",
"z  c #192657",
"x  c #283048",
"c  c #1D316D",
"v  c #1E3373",
"b  c #1E367A",
"n  c #1F387D",
"m  c #1B2C63",
"M  c #20367B",
"N  c #213779",
"B  c #494948",
"V  c #5D6C7E",
"C  c #616E7D",
"Z  c #7C7C7C",
"A  c #4D5A7B",
"S  c #847418",
"D  c #816C0B",
"F  c #84782B",
"G  c #7D8067",
"H  c #B69A15",
"J  c #AA9215",
"K  c #8D833A",
"L  c #B9A639",
"P  c #B5A831",
"I  c #A49031",
"U  c #CEAE0E",
"Y  c #CDAB12",
"T  c #C5A914",
"R  c #DBBB12",
"E  c #D9BB1A",
"W  c #F6B911",
"Q  c #F5B711",
"!  c #F7B90F",
"~  c #D3BA2D",
"^  c #C7B53C",
"/  c #C9B83C",
"(  c #D2BB32",
")  c #DFC11E",
"_  c #E7C20B",
"`  c #E9C30C",
"'  c #EFCC0E",
"]  c #F8C40E",
"[  c #FED60D",
"{  c #FFD90B",
"}  c #F6D10D",
"|  c #E9C812",
" . c #E8C716",
".. c #F7CA10",
"X. c #F5D314",
"o. c #FED914",
"O. c #FDDA1B",
"+. c #F8D516",
"@. c #EFD21A",
"#. c #DCC229",
"$. c #DDC43E",
"%. c #EACD29",
"&. c #F9D82A",
"*. c #E0C536",
"=. c #E3C83A",
"-. c #E4C937",
";. c #FDDF3C",
":. c #FFE33A",
">. c #958A42",
",. c #A3954A",
"<. c #A49844",
"1. c #B2A748",
"2. c #8D8D6C",
"3. c #B7AC79",
"4. c #CAB95A",
"5. c #CBB647",
"6. c #CCBE6B",
"7. c #DDC444",
"8. c #D9C34D",
"9. c #D8C85A",
"0. c #E3CB44",
"q. c #EAD146",
"w. c #E4CC54",
"e. c #E9D359",
"r. c #F1DA5E",
"t. c #F6DD55",
"y. c #F8DD44",
"u. c #FEE34C",
"i. c #FEE144",
"p. c #FEE354",
"a. c #FEE55C",
"s. c #F6E05E",
"d. c #DDCD74",
"f. c #D7CA7A",
"g. c #D4C971",
"h. c #E8D569",
"j. c #F3DC61",
"k. c #F5DE67",
"l. c #E4D375",
"z. c #E5D57E",
"x. c #E8D870",
"c. c #E2CF71",
"v. c #FEE563",
"b. c #FFE963",
"n. c #F6E165",
"m. c #1F3981",
"M. c #213A85",
"N. c #223C89",
"B. c #253F90",
"V. c #264294",
"C. c #27449C",
"Z. c #2A469C",
"A. c #38539C",
"S. c #334C85",
"D. c #294AA5",
"F. c #2A4CAA",
"G. c #2848A3",
"H. c #334FA6",
"J. c #3C5AAB",
"K. c #3756AE",
"L. c #2D4FB2",
"P. c #2E4FBA",
"I. c #2E51B5",
"U. c #2F52BA",
"Y. c #3656B3",
"T. c #3154B9",
"R. c #3B5CBC",
"E. c #3A59B5",
"W. c #526586",
"Q. c #4A67B7",
"!. c #4966B9",
"~. c #4D68A8",
"^. c #627BBF",
"/. c #4C5E8A",
"(. c #3B5DC1",
"). c #3F61C2",
"_. c #4465C4",
"`. c #4C6CC9",
"'. c #4C6CC3",
"]. c #5273CC",
"[. c #5B78C3",
"{. c #75869D",
"}. c #758AB3",
"|. c #818182",
" X c #8B8B8B",
".X c #9E9C96",
"XX c #9D9C9C",
"oX c #939393",
"OX c #8D918A",
"+X c #A19F96",
"@X c #A49F89",
"#X c #A4A29E",
"$X c #ABA59B",
"%X c #B1AA88",
"&X c #9B9DA1",
"*X c #8D98A3",
"=X c #A09EA1",
"-X c #A3A1A3",
";X c #ACACAC",
":X c #A8A6A7",
">X c #B0AEB1",
",X c #B4B4B4",
"<X c #BCBBBB",
"1X c #B8B7B7",
"2X c #B2AFAB",
"3X c #CCC48A",
"4X c #EADA83",
"5X c #C7C4BB",
"6X c #C4C4C3",
"7X c #C7C5C8",
"8X c #CBCBCB",
"9X c #C8C6C5",
"0X c #D0D0D0",
"qX c gray83",
"wX c gray87",
"eX c #E1E0E2",
"rX c #FFFEFF",
"tX c #F1F1F1",
/* pixels */
"                                            . . .                                                                       ",
"                                            . . .                                                                       ",
"                                                  . . .         . .                                                     ",
"                                                  . . .       . . .                                                     ",
"                                                        . . .                                                           ",
"                                                        . . . .                                                         ",
"                                      . . . . . . . . . . . . . . . . . . . . . .                                       ",
"                                      3 2 2 2 2 2 2 2 3 @ . . < 2 2 2 2 2 2 2 2 3                                       ",
"                          . . . . . , 9.r.r.r.r.r.r.r.h.f . . K j.r.j.j.j.j.j.j.,.. . . . . .                           ",
"                          t t u u t g e.v.v.v.v.v.v.v.v.F r r P u.u.u.u.u.u.u.u.5.u y u u u t                           ",
"                    . . y r.n.j.j.r.j.v.v.v.v.v.v.v.v.a.&.} } [ [ [ [ [ [ [ [ [ &.s.n.j.j.v.4.@ . .                     ",
"                  1 i i j 4X4X4X4X4X4Xz.z.z.z.z.l.t.i.i.O.[ [ &.q.q.0.0.0.0.0.0.w.d.d.h.u.i.7.g a f                     ",
"              . . i X.[ q.5X6X6X6X6X5X1X,X,X2X;X2X-.[ [ [ [ [ d.6X5X<X,X,X2X;X;X:XXXXX3.+.[ O.a.b.9.< . .               ",
"              . . a w.w.d.9X6X6X<X<X<X,X,X,X;X;X2X6.7.7.w.e.e.3X<X<X1X,X,X,X;X;X;XXXXX%X5.7.5.,.<.>.@ . .               ",
"              . . B 6X6X6X8X8X6X,X,X,X;X;X;X;X;X;X-X-X-X<X8X8X<X,X,X,X;X;X;X;X;X;X-X-X-XXXXX2.% . . . . .               ",
"              . . B 6X6X6X6X6X6X0XqXqX0X0X0X0X0X8X;X-X-X1X6X6X8XqXqX0X0X0X0X0X0X6X-X-X=XXXXX2.o . . . . .               ",
"              . . B 8X8X6X,X,X6XrXrXrXrXrXrXrXrXrX1X-X-X>X,X,XeXrXrXrXrXrXrXrXrXeX-X-X-XXXXX|.o . . . . .               ",
"              . . B 8X8X6X,X,X;X X|.oXtXrXrXrXrXrX1X-X-X>X,X,XXX|.|.6XrXrXrXrXrXeX-X-X-XXXXXW.o . . . . .               ",
"              . . B 8X8X6X,X,XoXo . = eXrXrXrXrXrX1X-X-X>X,X,XB . . Z rXrXrXrXrXeX-X-X-XXXXX|.; . . . . .               ",
"              . . B <X<X1X,X,X;X X XXXtXrXrXrXrXrX1X-X-X;X,X,XXX X X6XrXrXrXrXrXeX-X-X-XXXXXOXS D p @ . .               ",
"              . . B ,X,X,X;X;X<XrXrXrXrXrXrXrXrXrX1X-X-X;X;X;XwXrXrXrXrXrXrXrXrXeX-X-X-XXXXX3.) ` U : . .               ",
"              . . e ;X;X;X;X;X,X8X8X8X7X7X7X7X7X6X:XXXXX;X;X;X6X8X8X8X6X6X7X7X7X1XXXXX&X#X=X%XE _ U : . .               ",
"              . . e #X-X-X;X;X;X;X;X;X-X-X-X-X-X-XXX.XXX:X;X;X;X;X;X:X-X-X-X-X-XXXXXXXXX#X-X%XE _ Y : . .               ",
"              . . a f.d.3X:X:X:X:X:X-X&XXXXXXX&X+X4.$.$.7.0.0.3.:X:X-XXXXXXXXXXXXX=X=X%X8.$.*.` _ Y : . .               ",
"              . . s v.v.l.$X-X#X#X#X#XXX.X.X.X.X@X-.{ { { { [ 4.-X#X#X.X.X.X.X.X+X#X#X3.+.{ [ ` _ Y : . .               ",
"              . . s v.v.k.l.l.h.=.=.=.*.*.*.*.*.*.+.{ [ [ [ [ %.=.=.=.*.*.*.*.*.*.=.=.%.o.[ [ ` _ Y : . .               ",
"              . . s v.v.v.a.v.u.o.{ { { { { { { [ [ [ [ [ [ [ [ [ { { { { { { { { { { { [ [ } ` _ Y : . .               ",
"              . . s v.v.v.v.v.p.o.[ [ [ [ [ [ [ [ [ [ [ [ [ [ [ [ [ [ [ [ [ [ [ [ [ [ [ [ [ } ` _ Y : . .               ",
"              . . s v.v.v.v.v.p.o.[ [ [ [ [ [ [ [ [ [ [ [ [ [ [ [ [ [ [ [ [ [ [ [ [ [ [ [ [ } ` _ Y : . .               ",
"              . . s v.v.v.v.v.u.o.{ [ [ [ [ [ [ [ [ [ [ [ [ [ [ [ [ [ [ { { [ [ [ [ [ [ [ [ } ` _ Y : . .               ",
"              . . s v.v.v.v.v.p.O.o.o.[ [ [ [ [ [ [ [ [ [ [ [ [ [ [ [ [ [ [ [ [ [ [ [ [ [ [ } ` _ Y : . .               ",
"              . . s v.v.v.v.v.a.p.p.u.o.[ [ [ [ [ [ [ [ [ [ [ [ [ [ ..! W ] [ [ [ [ [ [ [ [ } ` _ Y : . .               ",
"              . . s v.v.v.v.v.v.v.v.p.O.[ [ [ [ [ [ [ [ [ [ [ [ [ [ ] W W ] [ [ [ [ [ [ [ [ [ ` ` U : . .               ",
"              . . s v.v.v.v.v.v.v.v.p.o.[ [ [ [ [ ] Q W W W W W W W ] [ [ [ [ [ [ [ [ [ [ [ [ [ { R : . .               ",
"              . . a d.l.x.v.v.v.v.v.a.&.O.O.o.[ [ ] W W W W W W W W ..[ [ [ [ [ [ [ [ [ [ { X.#.#.P > . .               ",
"              . . x [.[.*Xn.b.v.v.a.v.a.a.p.O.[ [ [ [ [ [ [ [ [ [ [ [ [ [ [ [ [ [ { { { { { #./.A.S.$ . .               ",
"              . . x }.}.*Xf.f.f.g.g.d.n.v.a.O.[ [ [ [ [ [ [ [ [ [ [ [ [ [ [ [ [ @.~ ( ~ ~ ~ 1.C W.A $ . .               ",
"              . . d k.n.3X^.[.[.E.E.~.x.b.a.O.{ { { { { { { { { { { { { { { { { L A.A.A.A.H.W.#.X.E + . .               ",
"            3 t 2 F u.u.9. X{.{.T.P.~.%Xg.6.5.^ ^ ^ ^ ^ ^ ^ ^ ^ ^ ^ ^ ^ ^ ^ ^ / 2.D.G.A.V V G @.{  .i r r               ",
"      . . . h j.j.y.o.{ o.+.+./ J.I.U.Y.Y.Y.Y.Y.Y.Y.Y.Y.Y.Y.Y.Y.Y.Y.Y.Y.Y.Y.Y.Y.K.F.G.V %.X.X.[ { [ X.X. .1 . .         ",
"      . . . h v.v.0.H J T [ [ ( J.U.U.U.U.T.R.R.(.R.R.(.R.(.R.R.R.R.R.E.R.T.U.U.L.G.D.V @.{ ' H J H } [ | 1 . .         ",
"      . . . h v.b.,.O . i X.{ ( J.U.U.U.U.T.`.].].].].].].].].].].].'.Q.Q.R.T.U.I.G.D.C @.{ R + . > R { | 1 . .         ",
"      . . . h v.b.,.. . 3 1.1.2.K.U.U.U.U.T.`.].].`._._._._._._._.!.!.Q.Q.R.U.U.L.G.G./.<.P K @ . + R [ | 1 . .         ",
"      . . . h v.b.,.. . 9 H.I.T.U.U.U.U.U.T.`.].].R.U.U.U.U.T.L.F.G.J.Q.Q.R.U.U.L.G.G.Z.M.M.c # . + R [ | 1 . .         ",
"      . . . h v.b.,.. . 9 L.U.U.U.U.U.U.U.T.`.].].R.U.U.L.L.L.F.G.G.J.Q.Q.R.U.U.L.G.G.G.N.N.v # . + R [ | 1 . .         ",
"      . . . h v.b.,.. . 9 L.U.U.U.U.U.U.U.T.`.].].R.U.I.F.G.G.G.G.G.J.Q.Q.R.U.U.I.G.G.G.N.N.v # . + R [ | 1 . .         ",
"      . . . j ;.:.I . . 9 L.U.U.U.U.U.U.U.T.)._._._._.).R.R.R.E.Y.Y.E.R.R.Y.L.L.F.C.C.V.N.M.v # . + R [ | 1 . .         ",
"      . . . p o.{ J . . 9 I.U.U.U.U.U.U.U.U.U.U.T.`.].].].].].'.Q.Q.R.U.U.L.G.G.Z.N.N.M.N.M.v # . + R { | 1 . .         ",
"      . . . 2 S S i . . 5 C.Z.G.U.U.U.U.U.U.U.U.T.(.).).).).).R.R.R.Y.F.L.G.V.V.N.m.M.M b M m X . @ p S p + . .         ",
"      . . . o * * ; . . 6 M.M.B.I.U.U.U.U.U.U.U.U.U.U.U.U.U.U.U.U.U.F.F.F.C.M.M.m.b b v c c z X . . * * % X . .         ",
"  . . o % ; % = = % . . # 9 8 z V.C.C.C.C.C.C.C.C.C.C.C.C.C.C.C.C.C.C.V.V.N.n n b v v m 7 5 5 . . . * = = % o ; . . .   ",
". . . o = = = = = % . . . . . $ M M.M.M.M.M.M.M.M.M.M.M.M.M.M.M.M.M.M.M.M.M.b M v c c z X . . . . . % = = = = = . . .   ",
". . . o = = = = = % . . .       7 7 7 7 7 7 7 7 7 7 7 7 7 7 7 7 7 7 7 7 7 7 5 5 5 5 5 6       . . . % = = = = = . . .   ",
". . . o = = = = = % . . .       . . . . . . . . . . . . . . . . . . . . . . . . . . . .       . . . % = = = = = . . .   ",
"      . o o o o o o             . . $ N M.M v v c q . . .     . . . 0 v v b M.M.z . . .             o o o o o o         ",
"        . . . . . .             . . q Z.U.I.F.G.Z.5 . .       . . . z G.G.F.I.T.N X . .             . . . . . .         ",
"                          . . O % % - w k k k w w $ . .       . . . - k w k k k w % % % . . .                           ",
"                          . . . * = = & & = = & & o . .       . . . o & & & & & & = = % . . .                           ",
"                          . . . . . . . . . . . . . . .       . . . . . . . . . . . . . . . .                           ",
"                          . . . . . . . . . . . . . . .       . . . . . . . . . . . . . . . .                           "
};
