/* XPM */
static const char *b2FrX3dhbGw_[] = {
/* columns rows colors chars-per-pixel */
"60 60 152 2 ",
"   c #1E1101",
".  c #231404",
"X  c #2B1605",
"o  c #271805",
"O  c #2D1A05",
"+  c #2C1709",
"@  c #261909",
"#  c #2D1B0A",
"$  c #321C06",
"%  c #321D0B",
"&  c #341E10",
"*  c #2F200B",
"=  c #372207",
"-  c #35210D",
";  c #3A250E",
":  c #3E2A0E",
">  c #362211",
",  c #3B2612",
"<  c #372813",
"1  c #3A2814",
"2  c #3B2915",
"3  c #3B2817",
"4  c #3D2815",
"5  c #3E2914",
"6  c #3F2914",
"7  c #3F2A15",
"8  c #3E2916",
"9  c #3C2A16",
"0  c #3E2C14",
"q  c #3E2C16",
"w  c #3E2A13",
"e  c #3A2718",
"r  c #3E2C18",
"t  c #3F2D19",
"y  c #3D2A19",
"u  c #412C0E",
"i  c #402711",
"p  c #402713",
"a  c #402810",
"s  c #412911",
"d  c #412812",
"f  c #422913",
"g  c #402A12",
"h  c #402A13",
"j  c #412B13",
"k  c #422A12",
"l  c #432B13",
"z  c #402C13",
"x  c #432815",
"c  c #412B14",
"v  c #402A15",
"b  c #432A14",
"n  c #402B16",
"m  c #412B16",
"M  c #432A16",
"N  c #442B15",
"B  c #442916",
"V  c #452A17",
"C  c #442B17",
"Z  c #402C14",
"A  c #412D14",
"S  c #412D15",
"D  c #422C14",
"F  c #422C15",
"G  c #432D15",
"H  c #412C17",
"J  c #432D16",
"K  c #422C17",
"L  c #402E16",
"P  c #422E16",
"I  c #432F16",
"U  c #432F17",
"Y  c #442C14",
"T  c #452D15",
"R  c #452C16",
"E  c #462D17",
"W  c #442E16",
"Q  c #442E17",
"!  c #452F17",
"~  c #462E16",
"^  c #472F17",
"/  c #422D15",
"(  c #482E15",
")  c #492F16",
"_  c #482E16",
"`  c #402B18",
"'  c #412C19",
"]  c #422D18",
"[  c #432D18",
"{  c #402E18",
"}  c #432E19",
"|  c #422D1A",
" . c #402E1A",
".. c #452C18",
"X. c #462D19",
"o. c #452F18",
"O. c #442E19",
"+. c #472E18",
"@. c #442F1A",
"#. c #452F1A",
"$. c #472E1A",
"%. c #432E1A",
"&. c #492F18",
"*. c #482F19",
"=. c #492E1B",
"-. c #482F1B",
";. c #4A2F1C",
":. c #482F19",
">. c #453115",
",. c #4A3017",
"<. c #493117",
"1. c #423018",
"2. c #433119",
"3. c #443018",
"4. c #453119",
"5. c #463018",
"6. c #463019",
"7. c #473119",
"8. c #45301B",
"9. c #47311A",
"0. c #46301B",
"q. c #44321A",
"w. c #45331B",
"e. c #46321A",
"r. c #46311C",
"t. c #47311C",
"y. c #45331D",
"u. c #47321D",
"i. c #46341E",
"p. c #45311A",
"a. c #483018",
"s. c #493119",
"d. c #4B3118",
"f. c #4A3019",
"g. c #49301A",
"h. c #48321B",
"j. c #4A321A",
"k. c #4B331B",
"l. c #49301C",
"z. c #4A311D",
"x. c #49331C",
"c. c #48321D",
"v. c #4B321C",
"b. c #48331E",
"n. c #49331E",
"m. c #4C331D",
"M. c #49341F",
"N. c #4A341F",
"B. c #49321B",
"V. c #442E20",
"C. c #473120",
"Z. c #483321",
/* pixels */
"c h w w , , , , , , , > - - > , , , , 5 K  .K c c 5 w 5 5 5 , , - , 5 K K c c c c c c c c R R R c R c R R c c c , , ; ; ",
"h.9.9.^ K c 5 5 5 5 9 9 5 5 9 9 , w 5 K o.t.9.o.9.o. . . .K c w , 5  .9.9.9.o.9.o.o.o.*.*.*.*.*.*.-.-.v.v.v.-.-.K c c c ",
"h.h.*.^ K h w w c 5 5 5  . .r 9 5 5 c o.t.v.v.t.v.t.9.o.o.o.c 5 w c  .t.v.t.v.v.v.v.v.v.v.v.v.v.o.*.v.-.v.v.-.-.K c c c ",
"^ ^ ^ ^ c h w w c 5 w w , , 4 w c c c  .9.9.o. .o.o. .K  .K c w w 5  . .o. .o.o.o.o.-.-.*.o.o...R o.o.o.o.o.o.o.5 5 w , ",
",.,.h.,.h.h.h.9.h K K ; % $ - 5 K K K K ^ ^ K h w h w h h h w , w w D K w w w w c K ^ ^ ^ R h p ^ ^ o.*.h.h.9.9.c c w w ",
",.) h.h.h.h.h.h.K 9.o.; O X = K o.^ ^ ^ o.K c w w , , w h h w w w w D w w w w w c K ^ ^ ^ R p p ^ ^ ^ *.*.h.9.9.c c w w ",
") ) ) ) ) ) h.h.^ ^ ^ ; $ O = h o.^ ^ ^ ^ K h w w : w w h h w ; : w 0 0 w w w K c K ^ ^ ^ c h p h h ^ ^ ^ ^ o.o.w w w : ",
"h.h.,.,.) ) h.h.h ^ K ; $ $ = , K K K K ^ ^ h w h w w w w w ; ; ; : : w w 0 K K c K ^ ^ ^ h h ; h R ^ ^ 9.o.9.9.D w w w ",
") ) ) *.h.^ ^ ^ w w w w 5 5 5 w K w w w w w K ^ 3.K 9.9.9.K = O O ; K w.9.q.K K 9.9.o.9.9.9.9.o.v.h.9.o.9.9.9.K K K q q ",
"h.h.h.,.h.^ ^ ^ w w w 5 5 5 5 5 w w w ; w w K K K K K K K w = O O - 0 q.w.9.9.9.9.K K K K o.o.o.h.9.o.o.9.9.9.9.w w 1 1 ",
"m.h.v.h.9.9.9.9.5 c c `  .r  .r 5 5 5 5 c  .o.t.9.9.9.9.9.c ; % - ;  .t.i.i.i.i.t.9. . .9.v.Z.Z.v.v.t.v.v.Z.v.t.q q q q ",
"- = - = - - - - % % % % - - - - - = - % - - > - - - > - > - % O X # > ; > - - - - - - = - - > - - - % - > > > - - - - - ",
"X X X O O O O O X X X # # # # # % # # # # # # # # # # # % % # O # # # # # O X X X X X O # O X X O X X O # $ # # # O # # ",
"O O O O O O O # # # # # # # # # # % % # # # # # # # # # # % % % # # # # # # # # # # # # $ $ # # # O O # $ $ # # # # # # ",
"# # # # # # # # # # # # # @ @ # # # # # # # # # # # # # # # # % # # # # # # # # # + X X + # % % # # + # % % # # # # # # ",
" . . .r 5 9 9 9 9 9 e e e e e 9 3 3 y y  . . . . . .` y 5 9 y r  .y e e e e e e > & % % % > y  . .` y `  . . .y  . . .t ",
"9.t.9. .5 1 w 5 5 5 5 q q 1 5  ., w K 9.9.9.h.9.9.9.c w w K 9.v.t. .5 4 4 5 y y 4 % # $ > ` @.o.o.o.o.o.^ ^ ^ 3.^ 1.9.9.",
"3.9.9.K K w w w w : : K K w w w w w K ^ 9.9.9.9.9.^ h w w K ^ h.9.o.c 5 5 5 5 5 c - X X % 4 o.9.^ ^ K K ^ ^ ^ ^ 3.3.3.9.",
"K 9.9.K K w w w ; ; ; w K K w w h h K ^ 9.9.9.9.9.^ h w w h ^ 9.9.^ h h h h c w K ; $ $ = w K K K K K D D D D K ^ ^ ^ ^ ",
"w K K K w w ; ; = $ = w 9.9.K K D K ^ ^ 9.9.^ ^ 9.^ h w w h ^ 9.^ D h D K D K D K D h D K D h ; h h h h h h h h h h h h ",
"w w w w w w ; ; O O O ; K 9.9.9.^ ^ o.o.o.o.o.o.9.^ K h w c K ^ T T D T 3.3.3.T ^ 3.3.,.3.T : : w w w w w w w w w : : w ",
"w w w w w w w ; O O $ ; K K K 9.o.^ o.o.o.o.9.9.9.^ K h w h K K T T T >.3.3.3.D 3.3.3.T D u u D w w w w w w w w w w w w ",
"K c 5 c  . .K 5 ; - , 5  .K  .9.o.o.o.o.o.9.9.t.9.o.K c 5 c c K D D K T K D ; = w D K D h D D 3.D K K K K K K K K K K K ",
"t.o.K  .9.t.t.o.9.o.o.t.9.K  .t.o.o.o.o.o.9.t.t.o.o.K c 5 c c K w w w w , - % $ % ; ^ h.9.^ ^ ^ ^ ^ ^ ^ ^ o.o.^ ^ o.o.o.",
"9.9.9.9.9.9.9.9. . . . . . . .o. . . . . .o. . .o. .K 5 w , , , 5 5 5 5 4 , % $ $ 5 t.t.@.Z.Z. . .K K K K K K K 9.9.9.9.",
"t.t.t.t.t.t.t.t.9.9.9.9.9.9.9.9.Z.M.t.t.t.v.v.v.t.9. .K c c c ` ` y y y y 3 > % &  .Z.t.V.Z.Z.@.v.x.M.M.M.M.x.x.M.M.M.M.",
"- - - - - - - - - - - - - - - - , > - - - - - - - - - % % % % - % % & % & % + X + & > & & > > & - - - - - - - - - - - - ",
"% % % % % % % % O O O O O O O O O O O O O O O O $ $ $ % % % % % % % % % & % # + + % & # # % % # O O O O O $ $ $ $ $ $ $ ",
"O O O O O O O O X X X X X X X X . X # # # X # # X X # # # # # # # # # # # # # X + # # X X X # X X O O O O O O O O O O O ",
"% % % % % % % % % % % % % % % % X # # # X X # # # # # # % % % % % # # # % # # O # # O O O O # # O O O O $ % % % O O O O ",
" . . . . . . . . . . . . . . . .y y 9 > % % > 9 e y y  . . . . . .K q q K K q w q q q q q K K K q q q q q q q q 1 1 1 1 ",
"9.9.9.9.9.9.9.9.9.9.9.9.9.9.9.t.Z.8.y % # # > y y y  . .t.8.t.8.9.9.1.1.q.q.1.K 1.q K K 9.9.9.9.9.9.9.9.9.o.o.o.5 5 5 5 ",
"9.9.9.9.9.9.9.9.9.9.9.9.9.9.9.t.@.@.5 % X O % 5 4 5 ` @.C.C.@.t.q.q.9.9.9.9.9.9.9.9.^ ^ ^ ^ 9.h.9.o.o.o.@.v.v.t.5 5 5 5 ",
"^ ^ ^ ^ ^ ^ ^ ^ ^ ^ ^ ^ ^ ^ ^ ^ o. .c , - - 4 ` c ` o.@.@.@.o. . .K K K K K K K K w ; ; h ^ *.*.o.^ R R o.o.o.o.c c c c ",
"h h h h w w h h h h w h h w h h w h h K K K ^ o.K o.9.9.o.K c w K q w w w w 0 0 w - $ $ ; c o.*.D D w w h h h h w w w w ",
"w w w w w w w w : w w w w w w w ; : w ^ h.h.9.K o.3.9.3.^ D h w w w w 1 w w w w , % O O = c *.9.D u : : : : : : : : : : ",
"w w w w w w w w w w w w w w w w h : h D 3.,.^ D D D ^ T D D u : w w w w w w w 0 w = $ $ - K 9.h.D : : : : : : : : : : : ",
"K K D D D D K K D D K K K K D D 3.T D >.3.,.3.D h u D u D u D : w w w w w w K K K ; = - w ^ 9.9.>.u : u D u D u : : : : ",
"^ ^ ^ ^ K ^ ^ ^ K K ^ ^ ^ ^ ^ ^ 9.3.3.3.9.3.K h w : w : w : w w w 9 5 5 5 q r r  .K c K o.o.o.^ 3.>.0 D 1.>.1.>.: : : : ",
"9.9.9.9.9.9.9.9.9.9.9.9.9.9.9.9.K ^ 9.h.9.^ c w w w w w w w w w 1 1 1 5 5 q  . .o.9.t.t.t.o. .K 1.1.K K 1.q.q.1.w w w w ",
"h.h.9.9.9.9.9.9.9.9.9.9.9.9.9.9.t.t.t.t.Z.Z.@.` y y 5 ` ` ` ` ` q q q q q q q.t. .q.9.9.9.o. . .t.t.t.t.t.t.t.t.5 5 5 5 ",
"% % % % $ $ $ $ $ $ % % % % $ % > - & > > > & % & % & > > > > - - - - - - - ; ; - - - ; - - - - % % % % % % % % > - > - ",
"$ $ $ $ $ $ $ $ % % % % % % % % + + + # # # + X + + # % % % % # # # # # # # # # O O # # O O O O # $ # # # # # # % # % $ ",
"O O O X X X X X $ $ $ $ $ $ $ $ # # + # # # # # + + % % % % % # # * # # # # # # O O O O O O O O X X X X X X X X # # % $ ",
"% % % % % % % % % % % % % % % % % # # # # # % % % % & % % % % % - * # # # % % % % % % % % % % % $ $ $ $ $ $ $ $ % % % % ",
"o.o.o.o.o.o.o.o.o.o.o.o.o.o.o.o.5 5 9 9 > , 5 r 5 9 9 9 , , , , 9 > * # % - > > 9 , , , 9 9 5 5  . . . . . . . .K K K K ",
"o.o.o.o.o.o.o.o.o.o.o.o.o.o.o.o.M.i.9.q.q K 9.i.9.q.K q w w 0 0 r < * # * > 9 r r r r r  .8.t.t.^ ^ ^ ^ ^ ^ ^ ^ v.m.v.v.",
"v.9.v.h.t.9.9.9.t.9.t.9.t.9.t.9.3.K K w ; : D K 9.9.D w : : : w q ; O O O - 1 q 1 1 1 5 q  .q.t.9.h.h.h.h.h.h.h.h.h.h.h.",
"*.^ ^ ^ o.^ K K w ; ; K h.h.h.h.) ^ T D D D T T 3.3.D : : h ^ 3.D : = = = ; : w K w w w K K K D K D D D D D T T ,.,.,.,.",
") ^ ^ ^ c h w : = $ $ w ^ h.*.*.h.^ ^ ^ ^ ^ ,.,.,.^ h u u h ^ ,.h.>.T u T T 3.3.^ D w w w w w : h u h h h h u u ^ ^ ) ) ",
"*.R R c h w ; ; O O $ ; ^ *.*.h.h.9.9.3.9.9.9.h.9.^ h w w h ^ 3.h.,.^ ^ 3.3.3.^ K D w w w w : : : w w w : : : : ^ ^ ^ ^ ",
"*.^ R K c w w ; O O % w ^ *.*.h.o.^ 9.9.9.h.h.h.9.^ h w w h ^ 3.3.3.T T 3.^ D h K D w w w w 1 1 w w w w w w w w ^ ^ ^ ^ ",
"*.o.o.o.o. .K 5 ; - , K o.o.o.o.c K K o.9.9.9.9.9.o.c w w h K 9.9.9.9.9.9.^ K w w q q q q q  .K K K K K K K K K o.o.o.o.",
"*.o.o.9.t.t.q. .1 1 w c K 5 p 5 w w K ^ 9.9.9.9.9.o.c w w h ^ 9.9.9.9.9.3.K D w w q r q.q.q.q.8.9.9.9.9.9.9.9.9.9.9.9.9.",
"9.o.o.9.t.t.q.q.q 1 1 5 w , , 5 , 5 K  .9.9.9.9.t.o.c 5 w 5  .9.9.9.9.9.K K w , 1 q 8.8.8.8.8.i.8.8.t.t.t.t.t.t.t.t.t.t.",
"9.o.o. .q.q.r q q 1 1 1 , , , c , 5  .o.t.t.t.9.t.o.` 5 5 5  .9.t.9.9.9.9. .q 1 9 r 8.8.8.8.8.t.8.q.8.q.8.q.t.9.t.9.@.9.",
"% % - - - - - - # # # % - - % $ % % % % # % - - > - % # # % % - - - - - - - - - - # # * # o . . # # - # # - % % - - - - ",
"$ % % # # # # # # # # # - - % # # # # # # # # % % % # # # # # % # # # # # # # # # # # # # . . . . X # X X # # X # # % % ",
"# # # # # # # # # # # # - - % % + # # # # # # # # # # # # # # # # # # # # # # # # # # # @       . @ # # @ # # # # # # # ",
"$ $ # # # # # # # # # # - - % # # # # # # # # % % # # # # # # # # # # # # # # # # # # # @ .     . # # # # # # # # # # # "
};
