/* XPM */
static char *_4ec5599b29b40f1adf8c334f90b2cb4AdAGrkUia78PLrgu[] = {
/* columns rows colors chars-per-pixel */
"50 50 73 1 ",
"  c black",
". c #020202",
"X c #010101",
"o c #000001",
"O c #020202",
"+ c #010101",
"@ c #010101",
"# c #010101",
"$ c black",
"% c black",
"& c black",
"* c black",
"= c #000001",
"- c black",
"; c black",
": c black",
"> c black",
", c #110F04",
"< c #1E1C07",
"1 c black",
"2 c #1E1C07",
"3 c #C8B92F",
"4 c black",
"5 c #111005",
"6 c #020202",
"7 c black",
"8 c #000001",
"9 c #1F1C07",
"0 c #111005",
"q c #1E1C08",
"w c #010101",
"e c black",
"r c black",
"t c black",
"y c #121105",
"u c #010000",
"i c #100F04",
"p c #1F1C07",
"a c #111004",
"s c black",
"d c #121105",
"f c #020202",
"g c #010101",
"h c #100F04",
"j c black",
"k c #111004",
"l c #121005",
"z c #110F04",
"x c #121004",
"c c None",
"v c #1F1C08",
"b c black",
"n c #1F1C07",
"m c #E2D035",
"M c #E0CF35",
"N c #1D1B07",
"B c #E1D035",
"V c #FFEF3D",
"C c #FFED3C",
"Z c #3A350E",
"A c #E4D236",
"S c #FFEB3C",
"D c #FBE83B",
"F c #3A360E",
"G c #E0CE35",
"H c #1B1906",
"J c #1B1907",
"K c #FFED3D",
"L c #FFEE3D",
"P c #FFF13D",
"I c #E3D235",
"U c #1F1D07",
"Y c white",
/* pixels */
"                                                  ",
"                    ..XXXXXXXXXXX                 ",
"                    .O+@@@@@@@+#X                 ",
"                    X+$%&&&&&%$*                  ",
"              XX     =-bbbbbbb%;                  ",
"              X#:;;;>,<nnnnnnn<,>;;;:1            ",
"              X+$%&&&23mMMMMMm32&&&%$:            ",
"           ..Xo=-bbbbNBVCCCCCVBNbbbb%4 X..        ",
"           .O+=5<nnnNZACSSSSSCAZNnnn<5;6O.        ",
"           X+7-<3mMMMADSSSSSSSDAMMMm3<%7+X        ",
"        ..X ;%bNBVCCCCSSSSSSSSSCCCCVmNb%8oXXX     ",
"        .O+4,<NFACSSSSSSSSSSSSSSSSSCAFN90;+#X     ",
"        X+$%<3BADSSSSSSSSSSSSSSSSSSSDAB3<%$+X     ",
"     XXX 8%bNBVCSSSSSSSSSCCCSSSSSSSSSCVBNb%4 XXX  ",
"     X#+4,2NFACSSSSSSSSSDAGADSSSSSSSSSCAFNq04+#X  ",
"     X+$%23mADSSSSSSSSSCAZHFACSSSSSSSSSDAm32%$:   ",
"     Xw-bnmVCSSSSSSSSSSCGJbJGCSSSSSSSCCKLPIUber   ",
"     X@tbnMCSSSSSSSSSSSCAZHFACSSSSSSDAMMMm39%$:   ",
"     X@tbnMCSSSSSSSSSSSSDAGADSSSSSSCAZNnnn9y;+#X  ",
"      ;tbNMCSSSSSSSSSSSSSCCCCCCCCCCVmNbbbb%;oXXX  ",
"   u:4i2NZACSSSSSSSSSSSSSSSDAMMMMMMm3<t%te$+X     ",
"   :7-<3BADSSSSSSSSSSSSSSSCAFNUUUUUUpa4srs:#X     ",
"   @-bUmVCSSSSSSSSSSSSCCCCVBNbbbbbbb%4     XX     ",
"   rtbnMCSSSSSSSSSSSSDAMMMm39tttttt-$+X           ",
"   rtbnMCSSSSSSSSSSSCAZNnnnpd=@wfwfwg#X           ",
"   @tbnMCSSSSSSSSSSSCGHbbbb&: XXXXXXXXX           ",
"   rtbnMCSSSSSSSSSSSCAFNUUUp,4rrr;rr:1            ",
"  X@tbnMCSSSSSSSSSSSSDAMMMm3<tttttt%$:            ",
"   r-bUmVCSSSSSSSSSSSSCCCCVBNbbbbbbb%4 XXXXXX     ",
"  X+7-<3mADSSSSSSSSSSSSSSSCAFNnnnnnn2,4@@@+#X     ",
"  X#g=5<NZACSSSSSSSSSSSSSSSDAMMMMMMm3<&tt%$+X     ",
"  XXXo;tbNMCSSSSSSSSSSSSSSSSCCCCCCCVmNbbbb%8  XX  ",
"     X@tbnMCSSSSSSSSSSSSSSSSSSSSSSSCAZNnnU<h;:#X  ",
"     X@tbnMCSSSSSSSSSSSSSSSSSSSSSSSSDAMMMm3<-7:   ",
"     Xw-bnmVCSSSSSSSSSSSSSSSSSSSSSSSSCCKLPIUbjr   ",
"     Xg$%23BADSSSSSSSSSSSSSSSSSSSSSSSSSDAB39%$:   ",
"     .O+40<NZACSSSSSSSSSSSSSSSSSSSSSSSCAFN9d4+#X  ",
"     ..Xo8%bNBVCSSSSSSSSSSSSSSSSSSSSSCVBNb%;oXXX  ",
"        X+$%<3BADSSSSSSSSSSSSSSSSSSSDAB3<%$+X     ",
"        X#+;k<NFACSSSSSSSSSSSSSSSSSCAZN9l;+#X     ",
"        XXX ;-bNBVCCCCSSSSSSSSSCCCCVmNb%8oXXX     ",
"           X+7-<3mMMMADSSSSSSSDAMMMm39-$+X        ",
"           X#g;z<nnnNZACSSSSSCAZNnnnpx;:1         ",
"           XXX =-bbbbNBVCCCCCVBNbbbb%4            ",
"              X+7-ttt<3mMMMMMmc9ttt-$*            ",
"              X#+@@@45<UUUUUUUvy4rrr:1            ",
"              XXXX Xo=-bbbbbbb%4                  ",
"                    X+7-%tttt-7gX                 ",
"                    X#+@@@@rrr:#X                 ",
"                    XXXXXXX    XX                 "
};
