/* XPM */
static char *d0e1822693e94720d7afac2134d78f80uD9wELD8KRqxFfCp[] = {
/* columns rows colors chars-per-pixel */
"60 60 123 2 ",
"   c None",
".  c #DF001C",
"X  c #DF011F",
"o  c #F70000",
"O  c #F80000",
"+  c #F90000",
"@  c #FA0000",
"#  c #FB0000",
"$  c #FC0000",
"%  c #FD0000",
"&  c #FE0000",
"*  c red",
"=  c #FE0101",
"-  c #FC0202",
";  c #FD0202",
":  c #FA0004",
">  c #FA0606",
",  c #FD0404",
"<  c #FD0505",
"1  c #FE0604",
"2  c #FC0606",
"3  c #FD0909",
"4  c #FC0F0F",
"5  c #EE0110",
"6  c #E3011C",
"7  c #ED101F",
"8  c #FB1616",
"9  c #F61E1E",
"0  c #FB1B1B",
"q  c #FB1E1E",
"w  c #FB1F1F",
"e  c #DE0020",
"r  c #DE0120",
"t  c #DF0120",
"y  c #DD0625",
"u  c #FA2424",
"i  c #FB2525",
"p  c #FA3434",
"a  c #8E016F",
"s  c #80017E",
"d  c #DB415F",
"f  c #FA4141",
"g  c #FA4747",
"h  c #FA4848",
"j  c #FA4949",
"k  c #FA4A4A",
"l  c #FA4B4B",
"z  c #FC4A48",
"x  c #F94E4E",
"c  c #F86060",
"v  c #F97070",
"b  c #FA7C7C",
"n  c #F87E7E",
"m  c #7E0180",
"M  c #650194",
"N  c #1C00DE",
"B  c #1F00DE",
"V  c #1F01DE",
"C  c #1F01DF",
"Z  c #3B01C3",
"A  c #1D01E0",
"S  c #1D01E1",
"D  c #1F09E6",
"F  c #0000FD",
"G  c #0000FE",
"H  c blue",
"J  c #1E16F2",
"K  c #1C1CF9",
"L  c #1F1EF9",
"P  c #1D1DFA",
"I  c #1F1FFA",
"U  c #1F1FFB",
"Y  c #3A3AF7",
"T  c #7E7EF8",
"R  c #7F7FF9",
"E  c #8E70DA",
"W  c #7F80F8",
"Q  c #7F81FB",
"!  c #F98181",
"~  c #FA8080",
"^  c #FA8181",
"/  c #FA9F9F",
"(  c #DDA0BC",
")  c #F9A7A7",
"_  c #FAB1B1",
"`  c #FBB4B4",
"'  c #FBB5B5",
"]  c #FBB6B6",
"[  c #FBB7B7",
"{  c #FDB7B5",
"}  c #FBB8B8",
"|  c #FABEBE",
" . c #8080F9",
".. c #8F8FF8",
"X. c #BFBFF9",
"o. c #FAC5C5",
"O. c #FBCBCB",
"+. c #FCDBDB",
"@. c #DFDBF6",
"#. c #FCE0E0",
"$. c #FCE1E1",
"%. c #FFE3E0",
"&. c #FDE2E2",
"*. c #FCE3E3",
"=. c #FDE3E3",
"-. c #FDE4E4",
";. c #FDE9E9",
":. c #E0E0FC",
">. c #E0E1FC",
",. c #E0E4FF",
"<. c #E4E4FC",
"1. c #FEF6F6",
"2. c #F0F0FD",
"3. c #FEF9F9",
"4. c #FFFBF9",
"5. c #FEFAFA",
"6. c #FEFBFB",
"7. c #FBFBFE",
"8. c #FEFCFC",
"9. c #FEFDFD",
"0. c #FFFDFD",
"q. c #FFFEFE",
"w. c white",
/* pixels */
"                                                                                                                        ",
"                                                                                                                        ",
"                                                                                                                        ",
"                                                                                                                        ",
"                                              $ $ $ $ $ $ $ $ $ $ $ $ $ $                                               ",
"                                              $ $ $ $ $ $ $ $ $ $ $ $ $ $                                               ",
"                                              $ $ $ $ $ $ $ $ $ $ $ $ $ $                                               ",
"                                            # $ $ $ $ $ $ $ $ $ $ $ $ $ $ #                                             ",
"                              $ $ $ $ $ $ $ $ $ $ $ $ $ $ $ $ $ $ $ $ $ $ $ $ $ $ $ $ $ $                               ",
"                              $ $ $ $ $ $ $ $ $ $ $ $ $ $ $ $ $ $ $ $ $ $ $ $ $ $ $ $ $ $                               ",
"                              $ $ $ $ $ $ $ $ $ $ $ $ $ $ $ $ $ $ $ $ $ $ $ $ $ $ $ $ $ $                               ",
"                        # # # $ $ $ $ $ $ $ $ $ $ $ $ $ $ $ $ $ $ $ $ $ $ $ $ $ $ $ $ $ $ # # #                         ",
"                      # $ $ $ $ $ $ $ $ $ $ $ $ $ $ $ $ $ $ $ $ $ $ $ $ $ $ $ $ $ $ $ $ $ $ $ $ #                       ",
"                      # $ $ $ $ $ $ $ $ $ $ $ $ $ $ $ $ $ $ $ $ $ $ $ $ $ $ $ $ $ $ $ $ $ $ $ $ #                       ",
"                      9 w w w w w w 8 $ $ $ $ $ $ $ $ $ $ $ $ $ $ 3 w w w w w w w 3 $ $ $ $ $ $ #                       ",
"                $ $ > ) =.=.=.=.=.-./ < $ $ $ $ $ $ $ $ $ $ $ $ $ f +.=.=.=.=.=.+.f $ $ $ $ $ $ $ $ $ #                 ",
"                $ $ < ' w.w.w.w.w.w.[ < $ $ $ $ $ $ $ $ $ $ $ $ $ j 3.w.w.w.w.w.3.j $ $ $ $ $ $ $ $ $ $                 ",
"                $ $ $ ' w.w.w.w.w.w.[ $ $ $ $ $ $ $ $ $ $ $ $ $ $ g 3.w.w.w.w.w.3.g $ $ $ $ $ $ $ $ $ $                 ",
"                j j x O.w.w.w.w.w.w.O.x j j i $ $ $ $ $ $ 3 f j g b 3.w.w.w.w.w.3.b g j f 3 $ $ $ $ $ $                 ",
"                3.3.3.w.w.w.w.w.w.w.w.3.3.w.b $ $ $ $ $ $ w +.3.3.3.w.w.w.w.w.w.w.3.3.3.+.w $ $ $ $ $ $                 ",
"                w.w.w.w.w.w.w.w.w.w.w.w.w.w.~ $ $ $ $ $ $ w =.w.w.w.w.w.w.w.w.w.w.w.w.w.=.w $ $ $ $ $ $                 ",
"                w.w.w.w.w.w.w.w.w.w.w.w.w.w.~ $ $ $ $ $ $ w =.w.w.w.w.w.w.w.w.w.w.w.w.w.=.w $ $ $ $ $ $                 ",
"                Q  . . . .R ..2.w.w.w.w.w.w.~ $ $ $ $ $ $ 7 E Q  . . . .R X.w.w.w.w.w.w.=.w $ $ $ $ $ $                 ",
"                H H H H H H P :.w.w.w.w.w.w.~ $ $ $ $ $ $ e N H H H H H H R w.w.w.w.w.w.=.w $ $ $ $ $ $                 ",
"                H H H H H H P :.w.w.w.w.w.w.~ $ $ $ $ $ $ t V H H H H H H  .w.w.w.w.w.w.=.w $ $ $ $ $ $                 ",
"                H H H H H H P :.w.w.w.w.w.w.~ $ $ $ $ $ $ t V H H H H H H  .w.w.w.w.w.w.=.w $ $ $ $ $ $                 ",
"        o # $ M H H H H H H P :.w.w.w.w.w.w.~ $ $ $ $ $ $ t V H H H H H H  .w.w.w.w.w.w.=.w $ $ $ $ $ $ $ # # #         ",
"        $ $ $ s H H H H H H P :.w.w.w.w.w.w.~ $ $ $ $ $ $ t V H H H H H H  .w.w.w.w.w.w.=.w $ $ $ $ $ $ $ $ $ $         ",
"        $ $ $ m H H H H H H P :.w.w.w.w.w.w.~ $ $ $ $ $ $ e A H H H H H H R w.w.w.w.w.w.=.w $ $ $ $ $ $ $ $ $ $         ",
"        $ $ $ a A N N J P P Y <.w.w.1.=.=.=.v $ $ $ $ $ $ 6 Z A N D P P P ..w.w.w.;.=.=.o.0 $ $ $ $ $ $ $ $ $ $         ",
"        $ $ $ 5 e X y ( ,.:.<.7.w.w.| i w w 4 $ $ $ $ $ $ : 6 e X d @.:.:.2.w.w.3.c 0 w 0 < $ $ $ $ $ $ $ $ $ $         ",
"        $ $ $ $ $ $ < [ w.w.w.w.w.w.' < $ $ $ $ $ $ $ $ $ $ $ $ $ z 3.w.w.w.w.w.3.j $ $ $ $ $ $ $ $ $ $ $ $ $ $         ",
"        $ $ $ $ $ $ < } w.w.w.w.w.w.} < $ $ $ $ $ $ $ $ $ $ $ $ $ j w.w.w.w.w.w.w.j $ $ $ $ $ $ $ $ $ $ $ $ $ $         ",
"        $ $ $ $ $ $ < ~ } [ [ [ [ } ~ < $ $ $ $ $ $ $ $ $ $ $ $ $ p _ [ [ [ [ [ _ p $ $ $ $ $ $ $ $ $ $ $ $ $ $         ",
"        $ $ $ $ $ $ $ < < < < < < < < $ $ $ $ $ $ $ $ $ $ $ $ $ $ $ < < < < < < < $ $ $ $ $ $ $ $ $ $ $ $ $ $ $         ",
"        $ $ $ $ $ $ $ $ $ $ $ $ $ $ $ $ $ $ $ $ $ $ $ $ $ $ $ $ $ $ $ $ $ $ $ $ $ $ $ $ $ $ $ $ $ $ $ $ $ $ $ $         ",
"        $ $ $ $ $ $ $ $ $ $ $ $ $ $ $ $ $ $ $ $ $ $ $ $ $ $ $ $ $ $ $ $ $ $ $ $ $ $ $ $ $ $ $ $ $ $ $ $ $ $ $ $         ",
"        $ $ $ $ $ $ $ $ $ $ $ $ $ $ $ $ $ $ $ $ $ $ $ $ $ $ $ $ $ $ $ $ $ $ $ $ $ $ $ $ $ $ $ $ $ $ $ $ $ $ $ $         ",
"        $ $ $ $ $ $ $ $ $ $ $ $ $ $ $ $ $ $ $ $ $ $ $ $ $ $ $ $ $ $ $ $ $ $ $ $ $ $ $ $ $ $ $ $ $ $ $ $ $ $ $ $         ",
"        $ $ $ $ $ $ $ $ $ $ $ $ $ $ $ $ $ $ $ $ $ $ $ $ $ $ $ $ $ $ $ $ $ $ $ $ $ $ $ $ $ $ $ $ $ $ $ $ $ $ $ $         ",
"        $ $ $ $ $ $ $ $ $ $ $ $ $ $ $ $ $ $ $ $ $ $ $ $ $ $ $ $ $ $ $ $ $ $ $ $ $ $ $ $ $ $ $ $ $ $ $ $ $ $ $ $         ",
"        $ $ $ $ $ $ $ $ $ $ $ $ $ $ $ $ $ $ $ $ $ $ $ $ $ $ $ $ $ $ $ $ $ $ $ $ $ $ $ $ $ $ $ $ $ $ $ $ $ $ $ $         ",
"        $ $ $ $ $ $ $ $ $ $ $ $ $ $ $ $ $ $ $ $ $ $ $ $ $ $ $ $ $ $ $ $ $ $ $ $ $ $ $ $ $ $ $ $ $ $ $ $ $ $ $ $         ",
"        $ $ $ $ $ $ $ $ $ $ $ $ $ $ $ $ $ $ $ $ $ $ $ $ $ $ $ $ $ $ $ $ $ $ $ $ $ $ $ $ $ $ $ $ $ $ $ $ $ $ $ $         ",
"        $ $ $ $ $ $ $ $ $ $ $ $ $ $ $ $ $ $ $ $ $ $ $ $ $ $ $ $ $ $ $ $ $ $ $ $ $ $ $ $ $ $ $ $ $ $ $ $ $ $ $ $         ",
"        $ $ $ $ $ $ $ $ $ $ $ $ $ $ $ $ $ $ $ $ $ $ $ $ $ $ $ $ $ $ $ $ $ $ $ $ $ $ $ $ $ $ $ $ $ $ $ $ $ $ $ $         ",
"        $ $ $ $ $ $ $ $ $ $ $ $ $ $ $ $ $ $ $ $ $ $ $ $ $ $ $ $ $ $ $ $ $ $ $ $ $ $ $ $ $ $ $ $ $ $ $ $ $ $ $ $         ",
"        $ $ $ $ $ $ $ $ $ $ $ $ $ $ $ $ $ $ $ $ $ $ $ $ $ $ $ $ $ $ $ $ $ $ $ $ $ $ $ $ $ $ $ $ $ $ $ $ $ $ $ $         ",
"        $ $ $ $ $ $ $ $ $ $ $ $ $ $ $ # # # $ $ $ $ $ $ $ $ $ $ $ $ $ $ $ $ $ $ # $ $ $ $ $ $ $ $ $ $ $ $ $ $ $         ",
"        $ $ $ $ $ $ $ $ $ $ $ $ $ $ $         $ $ $ $ $ $ $ $ $ $ $ $ $ $         # $ $ $ $ $ $ $ $ $ $ $ $ $ $         ",
"        $ $ $ $ $ $ $ $ $ $ $ $ $ $ $         $ $ $ $ $ $ $ $ $ $ $ $ $ $         # $ $ $ $ $ $ $ $ $ $ $ $ $ $         ",
"        $ $ $ $ $ $ $ $ $ $ $ $ $ $ #         $ $ $ $ $ $ $ $ $ $ $ $ $ $         # $ $ $ $ $ $ $ $ $ $ $ $ $ $         ",
"              # $ $ $ $ $ $ $ #                     # $ $ $ $ $ $ #                     o $ $ $ $ $ $ $ #               ",
"                $ $ $ $ $ $ $                       # $ $ $ $ $ $ #                       # $ $ $ $ $ $                 ",
"                $ $ $ $ $ $ $                       # $ $ $ $ $ $ #                       # $ $ $ $ $ $                 ",
"                $ $ $ $ $ $ #                       # $ $ $ $ $ $ #                       # $ $ $ $ $ $                 ",
"                                                                                                                        ",
"                                                                                                                        ",
"                                                                                                                        ",
"                                                                                                                        "
};
