/* XPM */
static char *_2d75bb2a14743c399ef35c2420b8ebf2c7014pe83RzsN8I[] = {
/* columns rows colors chars-per-pixel */
"50 50 143 2 ",
"   c None",
".  c #DE001F",
"X  c #DF001F",
"o  c #DF011F",
"O  c #F50000",
"+  c #F70000",
"@  c #F60007",
"#  c #F80000",
"$  c #F90000",
"%  c #FA0000",
"&  c #FB0000",
"*  c #FC0000",
"=  c #FD0000",
"-  c #FD0001",
";  c #FE0000",
":  c red",
">  c #FE0101",
",  c #FD0202",
"<  c #FD0303",
"1  c #FA0004",
"2  c #F80006",
"3  c #F80007",
"4  c #FD0505",
"5  c #FD0606",
"6  c #FD0808",
"7  c #FC0C0C",
"8  c #FD0C0C",
"9  c #FC0F0F",
"0  c #FE110F",
"q  c #E80116",
"w  c #E3011B",
"e  c #E0011F",
"r  c #FC1111",
"t  c #FC1414",
"y  c #FC1616",
"u  c #F3161F",
"i  c #FB1B1B",
"p  c #FB1F1F",
"a  c #FC1F1F",
"s  c #DE0120",
"d  c #DF0120",
"f  c #DD0F2E",
"g  c #FB2828",
"h  c #FB3232",
"j  c #FB3333",
"k  c #FA4747",
"l  c #FA4E4E",
"z  c #FA5858",
"x  c #FA5D5D",
"c  c #F76363",
"v  c #F86060",
"b  c #FA6161",
"n  c #FB6363",
"m  c #FA6464",
"M  c #FB6464",
"N  c #FA6565",
"B  c #FB6565",
"V  c #FA6666",
"C  c #FA6E6E",
"Z  c #FA7070",
"A  c #FA7676",
"S  c #FB7F7F",
"D  c #5F019E",
"F  c #4801B6",
"G  c #4401B8",
"H  c #1F00DF",
"J  c #1F01DF",
"K  c #3A01C3",
"L  c #2406DD",
"P  c #1000E7",
"I  c #1D00E0",
"U  c #1D01E0",
"Y  c #1F02E0",
"T  c #1C01E2",
"R  c #0606F5",
"E  c #0000F8",
"W  c #0303FC",
"Q  c #0000FE",
"!  c blue",
"~  c #0404FC",
"^  c #0606FC",
"/  c #0406FE",
"(  c #0C0CFB",
")  c #1E13F0",
"_  c #1F19F5",
"`  c #1C1CFA",
"'  c #1E1FFB",
"]  c #1F1FFB",
"[  c #2424F9",
"{  c #7F7FFA",
"}  c #FA8080",
"|  c #FB8080",
" . c #FB8181",
".. c #FB8282",
"X. c #FA9191",
"o. c #FB9A9A",
"O. c #FB9B9B",
"+. c #FD9D9B",
"@. c #FB9D9D",
"#. c #DD89A6",
"$. c #FAA0A0",
"%. c #FAA7A7",
"&. c #FBB6B6",
"*. c #FCB6B6",
"=. c #FCB7B7",
"-. c #BDA0DC",
";. c #8283F9",
":. c #8080FA",
">. c #8F8FF9",
",. c #B6B6F8",
"<. c #B5B5FA",
"1. c #B5B5FB",
"2. c #B7B7FA",
"3. c #B6B6FB",
"4. c #B5B7FD",
"5. c #BEBFFA",
"6. c #DEB4D1",
"7. c #FBC0C0",
"8. c #FBC2C2",
"9. c #FCCCCC",
"0. c #FECFCD",
"q. c #FCD0D0",
"w. c #DADAFB",
"e. c #FCE0E0",
"r. c #FDE0E0",
"t. c #FDE3E3",
"y. c #FFE4E0",
"u. c #FDE4E4",
"i. c #FDECEC",
"p. c #FDEFEF",
"a. c #E0E0FC",
"s. c #E1E1FC",
"d. c #E0E3FF",
"f. c #E0E4FF",
"g. c #EAEAFD",
"h. c #FDF3F3",
"j. c #FEF2F2",
"k. c #FEF3F3",
"l. c #F0F0FD",
"z. c #F6F6FE",
"x. c #FEFEFE",
"c. c #FEFFFF",
"v. c white",
/* pixels */
"                                                                                                    ",
"                                                                                                    ",
"                                                                                                    ",
"                                      % % % % % % % % % % % %                                       ",
"                                      ; ; ; ; ; ; ; ; ; ; ; ;                                       ",
"                                      ; ; ; ; ; ; ; ; ; ; ; ;                                       ",
"                          % % % ; ; % ; ; ; ; ; ; ; ; ; ; ; ; % % % % % %                           ",
"                          ; ; ; ; ; ; ; ; ; ; ; ; ; ; ; ; ; ; ; ; ; ; ; ;                           ",
"                          ; ; ; ; ; ; ; ; ; ; ; ; ; ; ; ; ; ; ; ; ; ; ; ;                           ",
"                    % % ; ; ; ; ; ; ; ; ; ; ; ; ; ; ; ; ; ; ; ; ; ; ; ; ; ; % %                     ",
"                  % ; ; ; ; ; ; ; ; ; ; ; ; ; ; ; ; ; ; ; ; ; ; ; ; ; ; ; ; ; ; %                   ",
"                  % ; ; ; ; ; ; ; ; ; ; ; ; ; ; ; ; ; ; ; ; ; ; ; ; ; ; ; ; ; ; %                   ",
"                  c  .S  . . .l ; ; ; ; ; ; ; ; ; ; ; 6 M  . . . . .j ; ; ; ; ; ;                   ",
"            % ; ; @.v.v.v.v.v.@.; ; ; ; ; ; ; ; ; ; ; r q.v.v.v.v.v.M ; ; ; ; ; ; ; ; %             ",
"            % ; ; o.v.v.v.v.v.o.; ; ; ; ; ; ; ; ; ; ; 7 9.v.v.v.v.v.v ; ; ; ; ; ; ; ; %             ",
"            v M M 8.v.v.v.v.v.8.M M k ; ; ; ; ; 7 z M C r.v.v.v.v.v.$.v M j ; ; ; ; ; %             ",
"            v.v.v.v.v.v.v.v.v.v.v.v.&.5 ; ; ; ; p r.v.v.v.v.v.v.v.v.v.v.v. .; ; ; ; ; %             ",
"            v.v.v.v.v.v.v.v.v.v.v.v.*.5 ; ; ; ; a y.v.v.v.v.v.v.v.v.v.v.v. .; ; ; ; ; %             ",
"            3.3.3.3.3.3.w.v.v.v.v.v.&.5 ; ; ; ; u -.4.3.3.3.3.g.v.v.v.v.v. .; ; ; ; ; O             ",
"            R / / / / Q :.v.v.v.v.v.&.5 ; ; ; ; e L / / / / ( 3.v.v.v.v.v. .; ; ; ; ; O             ",
"            E Q Q Q Q Q { v.v.v.v.v.&.5 ; ; ; ; o J Q Q Q Q / 3.v.v.v.v.v. .; ; ; ; ; O             ",
"            P Q Q Q Q Q :.v.v.v.v.v.&.5 ; ; ; ; o J Q Q Q Q / 3.v.v.v.v.v. .; ; ; ; ; %             ",
"      % ; @ G Q Q Q Q Q :.v.v.v.v.v.&.5 ; ; ; ; o J Q Q Q Q / 3.v.v.v.v.v. .; ; ; ; ; ; ; ; %       ",
"      % ; 1 F Q Q Q Q Q { v.v.v.v.v.*.5 ; ; ; ; d U Q Q Q Q / 3.v.v.v.v.v. .; ; ; ; ; ; ; ; ;       ",
"      % ; 1 D U J ) ' ' >.v.v.j.r.u.$.5 ; ; ; ; w K U U _ ' [ 5.v.v.p.r.r.Z ; ; ; ; ; ; ; ; ;       ",
"      ; ; ; q d o #.f.d.l.v.v.%.p a y ; ; ; ; ; 1 w o f 6.d.d.z.v.v.A i p 7 ; ; ; ; ; ; ; ; ;       ",
"      % ; ; ; ; ; +.v.v.v.v.v.o.; ; ; ; ; ; ; ; ; ; ; 0 9.v.v.v.v.v.v ; ; ; ; ; ; ; ; ; ; ; ;       ",
"      % ; ; ; ; ; X.j.p.p.p.j.X.; ; ; ; ; ; ; ; ; ; ; 7 8.j.p.p.p.p.x ; ; ; ; ; ; ; ; ; ; ; ;       ",
"      ; ; ; ; ; ; a j j j j j a ; ; ; ; ; ; ; ; ; ; ; ; g j j j j j y ; ; ; ; ; ; ; ; ; ; ; %       ",
"      % ; ; ; ; ; ; ; ; ; ; ; ; ; ; ; ; ; ; ; ; ; ; ; ; ; ; ; ; ; ; ; ; ; ; ; ; ; ; ; ; ; ; %       ",
"      % ; ; ; ; ; ; ; ; ; ; ; ; ; ; ; ; ; ; ; ; ; ; ; ; ; ; ; ; ; ; ; ; ; ; ; ; ; ; ; ; ; ; %       ",
"      ; ; ; ; ; ; ; ; ; ; ; ; ; ; ; ; ; ; ; ; ; ; ; ; ; ; ; ; ; ; ; ; ; ; ; ; ; ; ; ; ; ; ; %       ",
"      % ; ; ; ; ; ; ; ; ; ; ; ; ; ; ; ; ; ; ; ; ; ; ; ; ; ; ; ; ; ; ; ; ; ; ; ; ; ; ; ; ; ; %       ",
"      % ; ; ; ; ; ; ; ; ; ; ; ; ; ; ; ; ; ; ; ; ; ; ; ; ; ; ; ; ; ; ; ; ; ; ; ; ; ; ; ; ; ; %       ",
"      % ; ; ; ; ; ; ; ; ; ; ; ; ; ; ; ; ; ; ; ; ; ; ; ; ; ; ; ; ; ; ; ; ; ; ; ; ; ; ; ; ; ; %       ",
"      % ; ; ; ; ; ; ; ; ; ; ; ; ; ; ; ; ; ; ; ; ; ; ; ; ; ; ; ; ; ; ; ; ; ; ; ; ; ; ; ; ; ; %       ",
"      % ; ; ; ; ; ; ; ; ; ; ; ; ; ; ; ; ; ; ; ; ; ; ; ; ; ; ; ; ; ; ; ; ; ; ; ; ; ; ; ; ; ; %       ",
"      ; ; ; ; ; ; ; ; ; ; ; ; ; ; ; ; ; ; ; ; ; ; ; ; ; ; ; ; ; ; ; ; ; ; ; ; ; ; ; ; ; ; ; %       ",
"      % ; ; ; ; ; ; ; ; ; ; ; ; ; ; ; ; ; ; ; ; ; ; ; ; ; ; ; ; ; ; ; ; ; ; ; ; ; ; ; ; ; ; %       ",
"      % ; ; ; ; ; ; ; ; ; ; ; ; ; ; ; ; ; ; ; ; ; ; ; ; ; ; ; ; ; ; ; ; ; ; ; ; ; ; ; ; ; ; %       ",
"      % ; ; ; ; ; ; ; ; ; ; ; ; % % % ; ; ; ; ; ; ; ; ; ; ; ; % % % ; ; ; ; ; ; ; ; ; ; ; ; %       ",
"      % ; ; ; ; ; ; ; ; ; ; ; %       ; ; ; ; ; ; ; ; ; ; ; ;       % ; ; ; ; ; ; ; ; ; ; ; %       ",
"      % ; ; ; ; ; ; ; ; ; ; ; %       ; ; ; ; ; ; ; ; ; ; ; ;       % ; ; ; ; ; ; ; ; ; ; ; %       ",
"      O % % ; ; ; ; ; ; ; % %         % ; % ; ; ; ; ; ; % % %         % % ; ; ; ; ; ; ; % % %       ",
"            % ; ; ; ; ;                     ; ; ; ; ; ;                     ; ; ; ; ; %             ",
"            % ; ; ; ; ;                     ; ; ; ; ; ;                     ; ; ; ; ; %             ",
"            % ; ; % ; %                     % ; ; ; ; %                     % % % ; % %             ",
"                                                                                                    ",
"                                                                                                    ",
"                                                                                                    "
};
