/* XPM */
static char *_cc31c0060194d8acf802c94f5dcb96a11WNEqTqMUtTY1oO[] = {
/* columns rows colors chars-per-pixel */
"60 60 240 2 ",
"   c #040100",
".  c #0D0A02",
"X  c #090702",
"o  c #130C03",
"O  c #100F0A",
"+  c #131105",
"@  c #1C1405",
"#  c #15130C",
"$  c #1A150B",
"%  c #1E190C",
"&  c #1F1805",
"*  c #1C1B12",
"=  c #171712",
"-  c #0F100A",
";  c #241D0D",
":  c #261B08",
">  c #231D12",
",  c #281E14",
"<  c #2A220E",
"1  c #27200E",
"2  c #252114",
"3  c #2B2314",
"4  c #24241B",
"5  c #2B251A",
"6  c #2C291D",
"7  c #2D2915",
"8  c #32261C",
"9  c #342C1C",
"0  c #342917",
"q  c #39311E",
"w  c #35331E",
"e  c #33260E",
"r  c #2D2B23",
"t  c #2A2A26",
"y  c #332D22",
"u  c #392E22",
"i  c #363225",
"p  c #3B3424",
"a  c #36342A",
"s  c #3B352A",
"d  c #3C3A2C",
"f  c #3B3929",
"g  c #3D3B32",
"h  c #393631",
"j  c #2F302B",
"k  c #42361D",
"l  c #413423",
"z  c #423A25",
"x  c #433C2C",
"c  c #4A3E2D",
"v  c #463B27",
"b  c #433E32",
"n  c #473E34",
"m  c #4A422D",
"M  c #47422F",
"N  c #444134",
"B  c #4B4434",
"V  c #45443A",
"C  c #4A463A",
"Z  c #4D493C",
"A  c #4B4836",
"S  c #524634",
"D  c #524A34",
"F  c #5B4C34",
"G  c #50473A",
"H  c #534C3B",
"J  c #5A4D3D",
"K  c #5B523D",
"L  c #5A533A",
"P  c #55472D",
"I  c #63593E",
"U  c #66563D",
"Y  c #604F3B",
"T  c #4D4C43",
"R  c #474843",
"E  c #524D43",
"W  c #584E42",
"Q  c #524F4A",
"!  c #4E5045",
"~  c #555244",
"^  c #5B5444",
"/  c #5E5945",
"(  c #55534B",
")  c #5B554B",
"_  c #5D5A4C",
"`  c #56584D",
"'  c #555451",
"]  c #5C5B53",
"[  c #5B5A55",
"{  c #635542",
"}  c #645A44",
"|  c #6A5C44",
" . c #635C4C",
".. c #6A5D4B",
"X. c #625748",
"o. c #715F4F",
"O. c #635D52",
"+. c #675E55",
"@. c #5D6158",
"#. c #6C624D",
"$. c #67614A",
"%. c #73664B",
"&. c #656254",
"*. c #6B6454",
"=. c #64635B",
"-. c #6B665A",
";. c #6D695C",
":. c #6B6958",
">. c #726553",
",. c #746A55",
"<. c #736C5C",
"1. c #7A6D5A",
"2. c #766A56",
"3. c #74715E",
"4. c #7B735D",
"5. c #7C7458",
"6. c #5F6362",
"7. c #656661",
"8. c #6C6C63",
"9. c #6B6A65",
"0. c #736D62",
"q. c #746F66",
"w. c #6F7167",
"e. c #757265",
"r. c #7B7464",
"t. c #7E7965",
"y. c #74736B",
"u. c #7A766B",
"i. c #7D7A6C",
"p. c #76786D",
"a. c #7C7C73",
"s. c #7D7D79",
"d. c #767772",
"f. c #81755B",
"g. c #837A5B",
"h. c #817464",
"j. c #837A64",
"k. c #837C6C",
"l. c #897D68",
"z. c #827E73",
"x. c #867E75",
"c. c #7E8078",
"v. c #86826E",
"b. c #8C826B",
"n. c #8D8365",
"m. c #93886C",
"M. c #858274",
"N. c #8B8474",
"B. c #8E8976",
"V. c #84837B",
"C. c #8B857A",
"Z. c #8D8A7C",
"A. c #878878",
"S. c #938A75",
"D. c #938C7C",
"F. c #958A77",
"G. c #9A917E",
"H. c #97917B",
"J. c #A3977A",
"K. c #8C8B83",
"L. c #8C8E89",
"P. c #868884",
"I. c #928E82",
"U. c #968E84",
"Y. c #8D918B",
"T. c #949185",
"R. c #9B9382",
"E. c #94948B",
"W. c #9A968B",
"Q. c #9C998D",
"!. c #9A9989",
"~. c #9A9791",
"^. c #9B9B94",
"/. c #989B97",
"(. c #8F9490",
"). c #A49C8C",
"_. c #A69B85",
"`. c #A19E93",
"'. c #A09F9A",
"]. c #9EA29B",
"[. c #97A09B",
"{. c #ABA48D",
"}. c #A4A295",
"|. c #ACA393",
" X c #A3A49C",
".X c #AAA599",
"XX c #ABAA9C",
"oX c #A8A99A",
"OX c #B2AC9D",
"+X c #B3A896",
"@X c #B9B49F",
"#X c #B1AA93",
"$X c #9DA6A3",
"%X c #A5A5A1",
"&X c #A4A9A3",
"*X c #ACACA3",
"=X c #ABAEA9",
"-X c #A4AAAA",
";X c #B2AEA5",
":X c #B2AFA8",
">X c #AFB1AB",
",X c #AAB0A9",
"<X c #B3B1A5",
"1X c #B3B3AC",
"2X c #BBBAAD",
"3X c #B9B6A8",
"4X c #AEB8B5",
"5X c #B3B6B1",
"6X c #B5BAB3",
"7X c #BBBCB4",
"8X c #BCBEB9",
"9X c #B6B9B8",
"0X c #AFAFB1",
"qX c #C2BDAC",
"wX c #C1B9A5",
"eX c #C3BEB2",
"rX c #BDC1BC",
"tX c #C7C1AF",
"yX c #C4C2B5",
"uX c #CAC4B4",
"iX c #C3C3BD",
"pX c #CBCABC",
"aX c #CAC8B8",
"sX c #D8CFBF",
"dX c #D8D6BF",
"fX c #BCC6C3",
"gX c #CCCCC5",
"hX c #CBCDC9",
"jX c #C5C8C2",
"kX c #D2CDC2",
"lX c #CDD1CB",
"zX c #D7D4C8",
"xX c #D7DAD3",
"cX c #CAD5D5",
"vX c #E2DDCD",
"bX c #E1DDD4",
"nX c #DEE1DE",
"mX c #E6E3D9",
"MX c #E4E7E3",
"NX c #F5F4EF",
/* pixels */
"W X.<.-.a.*XD.S j.#.l.+XwXqXpXaXXXT.;.3 R.r.1.i.k.M.I.M. .*.D.-.zXaXXXmXmXE.^ tX@XD.y D I >.*.^ I ..B  .U.B i.M.I.2X^ ; ",
"x  .*.z.8.E.kX_.+X2.G.wX3XtXzXaXQ.&.-.x N.D.u.k.u.e.a.u.A.Z.tX) k.).*.H.kXr. .uXaXZ.> #.I  .) ..I | K r.1.A ;.;.i.T.OX .",
"s 0.Z.i.a.8.Z.N.v ; |.uX3XzXzX<Xu.&.R.~ r.N.&.;.K.*X8.E e.B.~ i p q S S D p r.tX@Xq.> K } *.>...F | | m q _ ;.x.e.i.yX.X",
"3 6 ~ 0.q.a.I.D.*.9 D.qXqXyX2Xe.*.r.k.W &.r.i.M.2XzXK.0.v. .& A *.2.2.j.#.9 k.uX+X..0 K | #.>.2.U Y K H ; &.C.x.M.q.u.C.",
"0.B.J B E V C O.^ p -.R.u.) . o & / k.X.> ~  .&.` C b ;.R.D 0 ,.2.1.m.m.j.,.k.;X5.S l P U | ..>.>...l @ > y x ) O.u.Z.Z.",
"aX|.,.,.OXW.b 2   > k.u.Z b O.&.G B p y & G  .K  .H B p q 7 ^ i.5.1.N.S.#.} <.|.k e q k Y ..o.>.{ { B x i.}.r.^ &.b s C ",
"M./ $.X.;.yX<XQ.O.E pXe.D.I..Xz.M.u.C.O. .k.l.b.S.S.>. .2.z r.B._.N.k.t.*.} x 9 < 8 0 0 e } o...| ..n ;X2X`.k.,..X2X-.i ",
"}.N.4.$./ &.W.OXI.Z M.$.e.T.x.Z.0.i.W.i.;.4.j.J.m.2.>.,.#.B 1.e.L / O.;.l.#.< : 1 o $ 9 < : s G P D & 8.T.&.,.#._ }.2X).",
"2XoXD.3.<.&.i.D.;.f J l.r.t.*.&.r.W.XXu.^ ..t.`.b.4.b.l.#.D G x B ~ ~ s b 8 q l H H -.8 s $   t ! ^.C.6 3X}.v.X.^ O.x.^.",
"` T.H.t.1.t.r.i.^ x ~ ,.B./ <.r.j.r.;.;. .>.r.z.b.F._.N.N.G 9 M G v 1 0.B @ v J qXW.C.W Z.d * L.E.~.x.p }.OXH.t.,.4.k.V.",
"d M.!.l.3.v.;.&.O.@ x ^ N.N.j.#.*.<.r.<.*.S.k.&.#./  .e.I.f 3 k.R.} D k.*.#X5.qX}.e.-.~ i.&.@.L.V.L.e.i _ B.R.j.,.t.*.t.",
"2 ~ B.4.r.;.k.$.2 2 ; p ,.r.j.t._.N.t.B q H x B ~ X.G E ;.p 2 p E p p r.O.#.{.eXa.e.0./ f H i.V.9.) y . a A.R.j.t.*.k.$.",
"O.<.3.k.v.;.3 9 ;.N.). .9 9 x B K *.<.q C H X.M p x p s ; p v.<.<.^ ; O.i.9 j.x.q.z.C.t.m B n r 6 ;.e.~ 5 Z k.t.r.r.,.H ",
"-.<.v.}.f C  .).zXsXzXaX.XD.,.S x l 0 D.kXQ.Z.h.x D. .B X.X. . .<.>.M O.q. .N.I.0.r.;. .X.0 ; *.x.z.}.W.e.u.j.Z.u.-.+ z ",
"k.<._ ;.&.&.xXuX3XvXzXkXuXaXuXl.R.+X|.mXa.w.0.*.G #.$.%.} } ....*.} K / ;.X... .&.&.*.) X.x  .N.h.e.8.&.O.-.i.R.r Z H.{.",
"x.e.A.I.yX-.OXR.3.<XpXzXqX@XuX4.1 >.+XI.y.V.z.l.&.z F $.F U #.2.#.| L K v : 3 W :.e.*. .O.~ S.r.h.D.i.c.Z.t. .3.V.-.dXqX",
"0.E 3.I.Q.) e.i.l.b.aXpXyXqX3X>.l k.R.C.-.u.z.;.*. .x n >.o.2.>.%.U F l 9 C ; 9 c S ....{ X.XXV.k.e.i.u.e.e.N.G.rX-.Q.z.",
"i.k.B.A.;.b u.|.F.j.vXzX<XOXR.J c H  . .;.<.e./ ^ ,.> q ..>.>.*.#...e *.O.5 s 3 ; 8 ~ &.J ~ C.-.e.u.XX2X8.E i.D.V.T i.t.",
"e.k.&.~ &.s N v.l. .I.uXuXOX} c F k 0 G ~ *.,...*.<.n ; 2.U >.*.^ p p A 0.&.^ q 3 6 6 a a f / r.a.K.*XV.e.I.T.k._ N r.+X",
"&.g Z Z d ~ N ; v p 3 x  ...e J f.{ 0 : 3 ; M X./ N i 9 J H G y ` K..X) yXaXW.A Z -.4 [ P.z.V j.W.a.8.-.u.-.E Z _ f x *.",
"$ O.8.V.u.;.e.;.p J O.J D I F #.l.1.m.m.h.p c 9 &.T.E.oXZ.) 2 * 7XNXbXu.:XmX}.k.K N (  X/.P.a.g ~ ~ ~ ] T d ] E N ` b 2 ",
"P.7X Xy.^.;X}.E.r.n u 1.5.n._.#X+X_.wX+XR.k.k.^ .X*X7XL.W.E.L.R s.7X<X( ;XNX1XI...x =.^.P.6.L.y.6   + $ 6 V.e.K.E.a.a.M.",
"Q.E.~.7.=.) &.( O.J 9 l.,.n.#X_.).R.).R..X0.n 0..XC.^.c.y.y.P.R =.;.-.Z oXmXiX1XT.8.-.L.s.&X&Xs.;.y 6 T XX7X`.y.~. XI.e.",
"K.oX7X*XA.-.) ;.e.E G +X_.G.G.G.).|.R.D.C.z.g '.|.U.V.~.] e.^.( C -.Z p P.=XhX7XhXV.=.s.=XxXY.[ M.Z b T.T.W.W.=.` E ( ] ",
"y.8XrX6XnX*Xd.a.B.3.K )._.b.S.S._.G.G.F.k.M.^ yXxXlX=X^.P.V.E.a.i g K.O.u.K.9.rXxXc.] ^.7X*X` y.s.E L B.I.8XiX7X].=.` e.",
"=.*X XP.Y.E.a.E.OXx.X.S.H.f.m.m.R.R.).N.D.,.E .XMXjXV.s.~.^.K.=.d *XMXd.` <Xa.^.L.` ` Q.K.M.=.8.a.C  .N.z.hX7X*XlX^.a.a.",
"=.O.T ( 9.;.V.;XXXC.;.>.#.f.n.m.N.R.|.G.k.;.) -.a.a.8.P.^.P.9.V &.>XhXL.] pX1XE Z ~ b I.z.w.d.a.9.V x  .a. XP.a.V.V.a.oX",
"_ V ;.-.O._ E.}.W.r.r.4.h.S.l.J._.b.D.G.0.r.n W &.8.E. XK.y.y.4 8.K.5XE.r T.-.s ).X.s I.*Xw.d.9.a.d 9 ) O.` T ] =.=.}.oX",
"&.5 6 i Z -.&.I.,.x *./ J D >.2.*. .X.1.;.O.y n d i.V.K.u.] ( $ n  X`.7.* d 8 ) l.X.y +.9.9.=.=.y.h 2 u.T N 8.O.&.-.^.E.",
"_ C.^ & @ s d V 2 A M 1 ; @ 8 p 3 8 O.0._ -.e.E ~ V $ * V &.V -.) B $ # X   8 l.#.~ 3 ( y.y.y.-.8.* $ _ ~ f 5 9 n -.;.V.",
"6 6 n x B ~ ~ E &.Q.3XD.N.p  .r.X.;.W.u.u.u.<.r.V.-.> $ + > e.A.-.J oX1X/.' ;.^  .J . 6 b T ] E V = > 6 8.e.B ; ; y y > ",
"&.Z i -.).Q.2X3XiXgXkXkX|.,. .2.k.).M.u.C.-.&.*.a.K.N C 6 r.).<...&.2XxXMXlX^.~ <.Z.~ + a b a d o = i._ 3 7 p G &.*.O.&.",
";.z.E M.Q.XXhX8XlX=XhXMX*XC.*.k *.Z.*.E.i.u.u. .8.K.T Z G ).x.-.X.H I.2X8X&X7.P.E. X}.4 =.`.W.w.2 3 M.k.=.( C E.}.*XiX1X",
"_ +.h W.7XoXV.%X<X2XlXxX7X1XZ.-._ 0.z.`.e.&.&.M.T.a.&.b k._.1.e. .J -._ y.[ P.K.M.}.2Xd _ W.y.a.&.i _ E u.e.E <XW.1X*X5X",
"_ E * *XiX*X&X7X`.2X*X^.7XV.1X X .z.^.^.-.0.C.<.=.&.] Z R.j.,.x.) G 1.u.=.O.E.C.Q.Z.|.~ ~ T.a.E.;.% i Z -.V _ 7XXXE.K.1X",
"B.~ * ^.7X1XrXjXjX1XK.@.` ^.hXV.E C.W.V.u.M.V.M._ -.] x R.F...t.G @  .e.i.V.E.XXZ.M.M.C z.xX^.P.E 9 O.-.:.3 ] iX1X X1X8X",
"i N a u.iX7X>X6X9XjX*Xi.Q.C.E Z s `.K.=.u.T.Z.;.&.8.] 6 1.1.&.j.5 V  .% E V.K.P.k.u.C.E ;.&.$ . : 3 T e.u.* ( 8X1X1XjX8X",
"V.e.^ V e.^.5X X=X>XlX XI.p  .~ ; C.i.8.q.8.u.O.-.M.=.@ z J x 9 r -.N 3 y h R ( _ -. .p ^ b =.] D ~ V 4 b C E ^.6X7X>X=X",
"L.u.&.i s E ` p.y.-.z.i.y B N.<.6 ) -.-.e.e.&.;.M.i.r d u.*.B % V ^ 9 q 6 X   . % p & f T.M.`.M.r.7XfX[.K.<.n T a. X^.^.",
"c.c.r.:.2 $ r a i b ) O.s / *.} A x ^ ] C V ~ E ^ 6 a _ +.*.u.V p ~ #.K ^ ) 8 5 > @ @ _ A.Z.T.Q.I.&XcX-Xu.#./ 6 g a ( =.",
"P.V.M.i.Z 6 I.i./ C..X0.<.G H B p p z B K J <.B . r =.~ ] T.I.C ^ h.l.f.f.f.1.*.D x 5 r.c.-X4XXX6XfXfX/.a.u.i.) o y N f ",
"~.w.T.Z.d b &.t.u.i.~.V.I.E 5 N 8.M.B.N.j.,.,.~ V y b z.i.a.I.E ,.f.j.m.F.4.1.X.2.r.~ i.Q.9X5XE.4XxX4X-Xa.A.M.@.2 u.T.;.",
"/.E. X~ o i _ B ( -.[ s.' -.a.u.8XxX1XZ.M.~ J x 0.B ) e.`.`.0.) >.2.k.H.S.5.,.g.2.F S B.2X&X X>X&X4XfXrXd.P.~.! y ^ &.i.",
"/.=X] $ ) E _ -.] 4 r # y.iX7Xu.fXMX&X XT.k.G H X.&.;.i.Q.Z.;.E X...1.H.v.g.g.m.N.5.I 0.%X1XY.P.s.(.cX4XY.=X( = ; H ~ C ",
"=Xd.r E 8.z.-.M.<X8.r ) jX*X7Xp.9XnX5XiX<X}.B.3.G k.D.T.`.I.0.^ %.$.5.t.e.D.R.+Xi.4.#.y -X5X=X-X X5X$XP.rX8.# [ ;.O.&.a.",
"d.a V 0.( ] a.*XE.}.Z i.I.~.iXV.(.5XiXjX1X7X<X<.K k.W.T.*XV.0.H } j.j. . ./ G ) i.D.&.o [ /.rXjX6X(.s.5Xy.y C -.-.-.u. X",
"` T _ T.e.%X8X7X7Xu.H Z.gX9X7X1X;XV.7X XiXhX<X0.^ <.W.~.'.q.i.) r +.n c  .D / m H e.^ o X j a.i.^.8X-X8.g b 0.O.O.E.oX%X",
"&.Z -.oXI.y.9.7.a._ A <XhX0X6XgX3X8.T E.hXjX].8.x N.C.P.L.C.C.&.X o 3 3 l H B p w y , ^ t.( O.f t /.].] ) ~ }.Z.~.1X X7X",
"_ V Z W.`.O.E ] N O.g y.1X7X7X9X;X XV.^.y.z.*.x w C a C G J B 4.OXT.D.-.3 W  .w m 0 v *.O.0.1.#.d b L.] T _ <XoX8.] ' 7.",
"V C > V _ E i 5 C ( @.4 ` ^.gX8X1X1XaXT.C d Z ~ > Q z.L D B x.<X.Xi.*.r.) _ OXX.} #.{ X.^  .X.K ) 2 T _ ) V C.^.&.~ T V ",
"i e.Q.~ f Z &.Z u.K.8Xw.4 C  XjX1XoXT.&.7 1.u.i 5 K.I.L {.|.zX;XO.u.k.O.*.x G D } I P #.*.^ $.| B 9 i f x B V g A p > g ",
" XyX7X2X1X}.`.0.8.Y.rX/.] = g K.~.a.~ 9 l G.`.f 6 i.-.z I k.M.u.u.C.0.Q.;.W q X.*.F F ..>.,.} U B @ & d T.qXZ.T  .e.-.q.",
"5XgX%X1X^.Q.*X8.V.&X$XP.&Xe.. r ' g 5 : 2.m.v.` 0 G  .p 2.D.C.3.-.;.z. .&.>.H l l ..| >.......| M > -.}.zX1X7X8X}.XXy.=.",
"^.].&X].^.E.8X8.] [ [.6X X*X=.X # O X B m.2.K _ k D ;.B m  .E $. .*.0.^ ~ ^ X.o u ....1..... .{ p &.*XiXgX;X1XY.E.=Xw.y.",
"9.%X1X5X8X1X2X) ~ ( Y.&XP.V.a..       B S.,.#. .v q x | F 0 E  .:.<._ *. .*.0.> p ..F | ..*.*.v 3 <XiXL.^.=X X=X/.6X9.V ",
"~.1X7X&X].7XoX(  .] @.L.^.*Xa.. - R ' g ,.g.I c m n v 5.%.: o 5 : p  .) ^ B C # @ { | U } m 3 : N ) P.P.%X7X1X6X>X7X] C ",
"a O.z.V.) E d i &.=.@.,X^.8.= X c.E.~.i.i i g g _ Z.B G D j.I..Xk.; 3 A C ] ) H e.&.s y o . d ) u.C 4 a.<X2XoX^.1XW.C _ ",
"i r 4 y O.0.a.~ p r R R a 2 g = 9.E.E.z.Z * a.=.8.yXC.j.*.vXmXQ.`.<.2.p z.XXeX}..XQ.a.7.4 . M..X`.M.] 4 C O.=.R a r 5 _ ",
"~ d O.V.1XeXxXV.d ;.g n r.k..X' t ^.a.i.) y `.7.y.gX`.) k.OXeXT.0.;.j.^ *XE. X.Xa.s.V.(.9.t W.K.C.9.a.T s 6 g y.E.XX;.y ",
"B u.<X1XpX*XE.a.) E u h.tXkX.XK.t ! 9.K.-.# 1X( [ *XC.H ;X3XeXI.-. .p  .`.V.V.T.V.a.7.s.d.h 5X;XE.y.P._ d r.T.7X7XhXP.g "
};
