/* XPM */
static char *_2e09fef5e7247a9a94ac50b9ead9c745KIM5zLsaVPeXYyI[] = {
/* columns rows colors chars-per-pixel */
"60 60 109 2 ",
"   c #000000",
".  c #090600",
"X  c #090800",
"o  c #0B0B0B",
"O  c #150D01",
"+  c #161301",
"@  c #1C1501",
"#  c #1B1801",
"$  c #151515",
"%  c #241601",
"&  c #231B01",
"*  c #291801",
"=  c #291C09",
"-  c #292401",
";  c #3E2502",
":  c #3E3602",
">  c #222222",
",  c #292827",
"<  c #3D3D3E",
"1  c #402702",
"2  c #432802",
"3  c #492C02",
"4  c #493F03",
"5  c #533203",
"6  c #5B3603",
"7  c #493211",
"8  c #613A03",
"9  c #4A4003",
"0  c #554A03",
"q  c #5A4E03",
"w  c #5D5003",
"e  c #6E4203",
"r  c #624F03",
"t  c #744604",
"y  c #625503",
"u  c #6A5C04",
"i  c #614217",
"p  c #6F6004",
"a  c #756504",
"s  c #4A4846",
"d  c gray32",
"f  c #63615D",
"g  c #717171",
"h  c #814E04",
"j  c #855004",
"k  c #975A05",
"l  c #9B5D05",
"z  c #865B1F",
"x  c #867505",
"c  c #897705",
"v  c #A36205",
"b  c #B46C06",
"n  c #9C6A24",
"m  c #C17406",
"M  c #C37806",
"N  c #CF7C07",
"B  c #D47F07",
"V  c #958205",
"C  c #9C8705",
"Z  c #9D8805",
"A  c #A38E06",
"S  c #A69006",
"D  c #AC9506",
"F  c #B69E06",
"G  c #D68107",
"H  c #DB8307",
"J  c #C29E07",
"K  c #E08707",
"L  c #E78B07",
"P  c #E88B06",
"I  c #F79305",
"U  c #FD9705",
"Y  c #FF9905",
"T  c #F69408",
"R  c #F99508",
"E  c #FE9908",
"W  c #C2A807",
"Q  c #D5AD07",
"!  c #D4B807",
"~  c #D6B908",
"^  c #D9BC08",
"/  c #FFA008",
"(  c #C1842D",
")  c #D49131",
"_  c #E89E36",
"`  c #F7A939",
"'  c #FDAD3B",
"]  c #FFB03C",
"[  c #EACB08",
"{  c #FECE09",
"}  c #FFD209",
"|  c #FFDD09",
" . c #FFE109",
".. c #838484",
"X. c #888580",
"o. c #9E9A95",
"O. c #A3A3A4",
"+. c #B3B4B4",
"@. c #C4C0B9",
"#. c gray77",
"$. c #D8D3CC",
"%. c #D1D1D2",
"&. c #D6D7D7",
"*. c #D7D7D8",
"=. c #D8D8D9",
"-. c #ECE6DE",
";. c #FBF6ED",
":. c #FFFCF3",
">. c #FFFEF6",
/* pixels */
"                                                                                                                        ",
"    $ $ O O O O O O O O O O .   X + + + + + + + + + + + +     O O O O O O O O O O O O .   X + + + + + + + + + + O O     ",
"  $ +.$.) B B B B B B B B G 8   w ~ ~ ~ ~ ~ ~ ~ ~ ~ ~ ^ F + O b G B B B B B B B B B G 6   y ^ ~ ~ ~ ~ ~ ~ ~ ~ Q G b O   ",
"  $ =.>.' Y E E E E E E E E t   a  .| | | | | | | | |  .^ + O H E E E E E E E E E E E e   a  .| | | | | | |  .} / G O   ",
"  $ &.:.' U E E E E E E E E t   p | | | | | | | | | | | ^ + O G E E E E E E E E E E E e   a | | | | | | | | | { E B O   ",
"  $ &.:.' U E E E E E E E E t   p | | | | | | | | | | | ^ + O G E E E E E E E E E E E e   a | | | | | | | | | { E B O   ",
"  $ &.:.' U E E E E E E E E t   p | | | | | | | | | | | ^ + O H E E E E E E E E E E E e   a  .| | | | | | | | { E B O   ",
"  $ %.;.` I T T T T T T T R t   u | | | | | | | | | | | ! + O B R T T T T T T T T T R e   a | | | | | | | | | { E N O   ",
"  . < s 7 3 3 3 3 3 3 3 3 3 %   & 9 4 4 4 4 4 4 4 4 4 9 : . . ; 3 3 3 3 3 3 3 3 3 3 3 @   & 9 4 4 4 4 4 4 4 9 4 3 ; .   ",
"                                                                                                                        ",
"  o ..o.n l k *   y Z Z Z Z Z C Z Z Z Z Z u   * k l l l l l l l l l l k *   u Z Z Z Z Z C Z Z Z C Z y   * k l l l h X   ",
"  $ =.>.] Y R 2   S  . . . . . . . . . . .D   1 R E E E E E E E E E E R 1   D  . . . . . . . . . . .A   2 R E E E H O   ",
"  $ &.:.' U T 2   A  .| | | | | | | | |  .D   ; T E E E E E E E E E E T ;   D  .| | | | | | | | |  .A   2 T E E E B O   ",
"  $ &.:.' U T 2   A  .| | | | | | | | |  .D   ; T E E E E E E E E E E T ;   D  .| | | | | | | | |  .A   2 T E E E B O   ",
"  $ &.:.' U T 2   A  .| | | | | | | | |  .D   ; T E E E E E E E E E E T ;   D  .| | | | | | | | |  .A   2 T E E E B O   ",
"  $ =.>.] Y R 2   S  . . . . . . . . . . .D   1 R E E E E E E E E E E R 1   D  . . . . . . . . . . .S   2 R E E E G O   ",
"  o g X.z j h %   0 c x x x x x x x x x c q   % h j j j j j j j j j j h %   q c x x x x x x x x x c 0   % h j j j t X   ",
"                                                                                                                        ",
"  o d f i 8 8 8 8 8 8 8 8 8 *   - y y y y y y y y y y y 0 X . 5 8 8 8 8 8 8 8 8 8 8 8 *   - y y y y y y y y y r 8 5 .   ",
"  $ &.>.' U E E E E E E E E t   p | | | | | | | | | | | ^ + O H E E E E E E E E E E E e   a  .| | | | | | | | { E B O   ",
"  $ &.:.' U E E E E E E E E t   p | | | | | | | | | | | ^ + O G E E E E E E E E E E E e   a | | | | | | | | | { E B O   ",
"  $ &.:.' U E E E E E E E E t   p | | | | | | | | | | | ^ + O G E E E E E E E E E E E e   a | | | | | | | | | } E B O   ",
"  $ &.:.' U E E E E E E E E t   p | | | | | | | | | | | ^ + O G E E E E E E E E E E E e   a | | | | | | | | | { E G O   ",
"  $ =.>.] Y E E E E E E E E t   a  . . . . . . . . . . .^ + O H E E E E E E E E E E E e   a  . . . . . . . . .} / G O   ",
"  $ O.@.( m m m m m m m m m 6   0 W W W W W W W W W W W A O O v m m m m m m m m m m m 5   q W W W W W W W W W J M v O   ",
"    . o . . . . . . . . . .       . . . . X X X X X X X .     . . . . . . . . . . . .       . . . . X X X X X . . .     ",
"  . > , = * * .   # - - - - - - - - - - - #   . * * * * * * * * * * * * .   # - - - - - - - - - - - #   . * * * * %     ",
"  $ #.-._ P K ;   V [ [ [ [ [ [ [ [ [ [ [ C   ; H P L L L L L L L L P H ;   C [ [ [ [ [ [ [ [ [ [ [ V   ; K P L P m O   ",
"  $ *.>.' Y T 2   A  .| | | | | | | | |  .D   1 T E E E E E E E E E E T 1   D  .| | | | | | | | |  .A   2 T E E E G O   ",
"  $ &.:.' U T 2   A  .| | | | | | | | |  .D   ; T E E E E E E E E E E T ;   D  .| | | | | | | | |  .A   2 T E E E B O   ",
"  $ &.:.' U T 2   A  .| | | | | | | | |  .D   ; T E E E E E E E E E E T ;   D  .| | | | | | | | |  .A   2 T E E E B O   ",
"  $ *.>.' Y T 2   A  .| | | | | | | | |  .D   1 T E E E E E E E E E E T 1   D  .| | | | | | | | |  .A   2 T E E E G O   ",
"  $ #.-._ P K ;   V [ [ [ [ [ [ [ [ [ [ [ C   ; H P L L L L L L L L P H ;   C [ [ [ [ [ [ [ [ [ [ [ V   ; K P L P m O   ",
"  . > , = * * .   # - - - - - - - - - - - #   . * * * * * * * * * * * * .   # - - - - - - - - - - - #   . * * * * %     ",
"    . o . . . . . . . . . .       . . . . X X X X X X X .     . . . . . . . . . . . .       . . . . X X X X X . . .     ",
"  $ O.@.( m m m m m m m m m 6   0 W W W W W W W W W W W A O O v m m m m m m m m m m m 5   q W W W W W W W W W J M v O   ",
"  $ =.>.] Y E E E E E E E E t   a  . . . . . . . . . . .^ + O H E E E E E E E E E E E e   a  . . . . . . . . .} / G O   ",
"  $ &.:.' U E E E E E E E E t   p | | | | | | | | | | | ^ + O G E E E E E E E E E E E e   a | | | | | | | | | { E B O   ",
"  $ &.:.' U E E E E E E E E t   p | | | | | | | | | | | ^ + O G E E E E E E E E E E E e   a | | | | | | | | | { E B O   ",
"  $ &.:.' U E E E E E E E E t   p | | | | | | | | | | | ^ + O G E E E E E E E E E E E e   a | | | | | | | | | { E B O   ",
"  $ &.>.' U E E E E E E E E t   p | | | | | | | | | | | ^ + O H E E E E E E E E E E E e   a  .| | | | | | | | { E B O   ",
"  o d f i 8 8 8 8 8 8 8 8 8 *   - y y y y y y y y y y y 0 X . 5 8 8 8 8 8 8 8 8 8 8 8 *   - y y y y y y y y y r 8 5 .   ",
"                                                                                                                        ",
"  o g X.z j h %   0 c x x x x x x x x x c q   % h j j j j j j j j j j h %   q c x x x x x x x x x c 0   % h j j j t X   ",
"  $ =.>.] Y R 2   S  . . . . . . . . . . .D   1 R E E E E E E E E E E R 1   D  . . . . . . . . . . .S   2 R E E E G O   ",
"  $ &.:.' U T 2   A  .| | | | | | | | |  .D   ; T E E E E E E E E E E T ;   D  .| | | | | | | | |  .A   2 T E E E B O   ",
"  $ &.:.' U T 2   A  .| | | | | | | | |  .D   ; T E E E E E E E E E E T ;   D  .| | | | | | | | |  .A   2 T E E E B O   ",
"  $ &.:.' U T 2   A  .| | | | | | | | |  .D   ; T E E E E E E E E E E T ;   D  .| | | | | | | | |  .A   2 T E E E B O   ",
"  $ =.>.] Y R 2   S  . . . . . . . . . . .D   1 T E E E E E E E E E E R 1   D  . . . . . . . . . . .S   2 R E E E H O   ",
"  o ..o.n l k *   y Z Z Z Z Z C Z Z Z Z Z u   * k l l l l l l l l l l k *   u Z Z Z Z Z C Z Z Z Z Z y   * k l l l h X   ",
"                                                                                                                        ",
"  . < s 7 3 3 3 3 3 3 3 3 3 %   & 9 4 4 4 4 4 4 4 4 4 9 : . . ; 3 3 3 3 3 3 3 3 3 3 3 @   & 9 4 4 4 4 4 4 4 9 4 3 ; .   ",
"  $ %.;.` I T T T T T T T R t   u | | | | | | | | | | | ! + O B R T T T T T T T T T R e   a | | | | | | | | | { E N O   ",
"  $ &.:.' U E E E E E E E E t   p | | | | | | | | | | | ^ + O H E E E E E E E E E E E e   a  .| | | | | | | | { E B O   ",
"  $ &.:.' U E E E E E E E E t   p | | | | | | | | | | | ^ + O G E E E E E E E E E E E e   a | | | | | | | | | { E B O   ",
"  $ &.:.' U E E E E E E E E t   p | | | | | | | | | | | ^ + O G E E E E E E E E E E E e   a | | | | | | | | | { E B O   ",
"  $ =.>.' Y E E E E E E E E t   a  .| | | | | | | | |  .^ + O H E E E E E E E E E E E e   a  .| | | | | | |  .} E G O   ",
"  $ +.$.) B B B B B B B B G 8   w ~ ~ ~ ~ ~ ~ ~ ~ ~ ~ ^ F + O b G B B B B B B B B B G 6   y ^ ~ ~ ~ ~ ~ ~ ~ ~ Q G b O   ",
"    $ $ O O O O O O O O O O .   X + + + + + + + + + + + +     O O O O O O O O O O O O .   X + + + + + + + + + + O O     ",
"                                                                                                                        "
};
