/* XPM */
static char *_48a382ad782448a899750d786c16bb27GTnoO8aTFI85vmD[] = {
/* columns rows colors chars-per-pixel */
"60 60 145 2 ",
"   c #040F17",
".  c #050F18",
"X  c #06121C",
"o  c #09141E",
"O  c #071622",
"+  c #091621",
"@  c #071825",
"#  c #0A1925",
"$  c #071C2C",
"%  c #0B1D2B",
"&  c #101E2C",
"*  c #0B1F30",
"=  c #0E202E",
"-  c #11212E",
";  c #0D2233",
":  c #0E2639",
">  c #0E293D",
",  c #132534",
"<  c #152837",
"1  c #122739",
"2  c #142A3C",
"3  c #192D3E",
"4  c #0F2B40",
"5  c #132D42",
"6  c #192F41",
"7  c #163146",
"8  c #1B3245",
"9  c #173349",
"0  c #1C354A",
"q  c #1E394E",
"w  c #1F3B51",
"e  c #203546",
"r  c #203749",
"t  c #203A4F",
"y  c #213D54",
"u  c #223D54",
"i  c #233E54",
"p  c #233E55",
"a  c #233F55",
"s  c #233F56",
"d  c #243E56",
"f  c #213C51",
"g  c #234057",
"h  c #254156",
"j  c #294156",
"k  c #244158",
"l  c #244259",
"z  c #27415A",
"x  c #25435B",
"c  c #26435A",
"v  c #26435B",
"b  c #27445C",
"n  c #27465D",
"m  c #26445E",
"M  c #27445E",
"N  c #26425A",
"B  c #29455B",
"V  c #28445C",
"C  c #28455D",
"Z  c #29465E",
"A  c #2A475F",
"S  c #29455C",
"D  c #2B485E",
"F  c #2B495F",
"G  c #2A485F",
"H  c #274660",
"J  c #294760",
"K  c #2B4760",
"L  c #2A4760",
"P  c #2C4B63",
"I  c #2E4B62",
"U  c #2D4B64",
"Y  c #2E4B65",
"T  c #2F4D65",
"R  c #2D4B64",
"E  c #2F4E68",
"W  c #2F4F68",
"Q  c #2E4E68",
"!  c #304D67",
"~  c #304E66",
"^  c #314E66",
"/  c #304F69",
"(  c #314F69",
")  c #2F506A",
"_  c #315067",
"`  c #325068",
"'  c #30506A",
"]  c #32516C",
"[  c #33536C",
"{  c #33526D",
"}  c #32546F",
"|  c #33546F",
" . c #33526C",
".. c #345570",
"X. c #355670",
"o. c #375670",
"O. c #365671",
"+. c #375771",
"@. c #355672",
"#. c #355773",
"$. c #375672",
"%. c #375772",
"&. c #345774",
"*. c #365671",
"=. c #385671",
"-. c #385772",
";. c #375873",
":. c #375A73",
">. c #355874",
",. c #365874",
"<. c #395973",
"1. c #385974",
"2. c #385875",
"3. c #385975",
"4. c #395975",
"5. c #385A75",
"6. c #395A75",
"7. c #3A5A75",
"8. c #395876",
"9. c #395976",
"0. c #3A5976",
"q. c #395B77",
"w. c #3A5A77",
"e. c #3A5B77",
"r. c #3B5B77",
"t. c #395A75",
"y. c #3B5D79",
"u. c #3B5D7A",
"i. c #3B5E7A",
"p. c #3B5E7B",
"a. c #3C5D79",
"s. c #3C5C7A",
"d. c #3C5E7B",
"f. c #3D5F7B",
"g. c #3D5E7C",
"h. c #3D5F7D",
"j. c #3E5F7E",
"k. c #3B5D7A",
"l. c #3F617E",
"z. c #3E617F",
"x. c #3E617E",
"c. c #40627F",
"v. c #3F6381",
"b. c #406482",
"n. c #416382",
/* pixels */
"+ % : # X ; % ; : % # X ; > : : * % % : : > 7 % 5 t t q o.1.# ; 9 f t t t t q x 1.f % 5 q f t t q E 1.# % % > % X % : > ",
", , 1 % , , - # 1 , , , 1 ; , < , % % < < ; = o % 9 f q U 1.% 2 q t t t t t f 0 F U + : 9 f t f q x 1.- < , 1 # - , < , ",
"f.h.o.2 >.f.1.M o.y.y.y.z.} 1.f.h.o.o.h.f.} P o ; 5 t t o.1.; 5 f t t t t t t q x <.% : 9 f t t q { -.2 #.y.o.M o.y.y.o.",
"C x 1.% 2 d E 1.C f u s ! { / u s 1.1.s C n.T # > 9 q C z.o.= : 7 t t t t t t q o.1.% ; 5 q f q F f.s # 5 u C f.P q g ;.",
"q K 1.% : 9 q u q t t t q q q t q u s q 0 ] ! * 7 f t u o.1.# % 5 q t t t t t q { 1.# ; 5 q f q B y.M # : q q s u t t u ",
"5 } 1.% : 5 5 q f f q 5 9 t q 7 5 5 q q 5 K ] % 5 9 9 q x 1.% 1 q t t t t t f q x ;.; 5 q t t t q o.1., 4 5 5 7 t q 7 9 ",
"@ ; q + X % > : : : ; # ; 5 5 : # : 5 > ; 5 q + : 5 : % : 0 , > 9 f t t t t t q x ;.; 5 f t t t q M 1.# % > : ; > ; O : ",
"# , 1 1 , , + o + X X o + # # # X + # # o # + o + # # , < 1 % > 7 t t t t t f q ] 1.# : 9 f t t q x 1.- , < % % < , = % ",
"1 >.l.y.y.f.t # X ; ; # o X o X + o X X o o o + o X 1 P ] <.# ; 5 t f q 9 t 9 q <.q.# ; 9 t t t q | T 1 >.f.P / h.h.h.x ",
"% 5 P o.u P n.f < / q 7 < < 3 # : ; % 1 = o o o + o % 5 9 E - : 7 9 9 5 : 5 4 5 w { = > 5 5 9 7 5 H C % 5 u | o.x x | y.",
"# 5 q x f 0 T | / / q u q 7 u 6 2 q q u q 8 3 + o + X @ ; 0 % ; @ X # = X ; # X $ : + # o # % O ; @ 1 # : 9 u w q 0 M 1.",
"o : q q t q F o.T s q t t 9 0 f 9 0 u t t f u 8 + X 3 C j d h h h j < h t 2 3 i c h t c i d h 8 < < X X % 2 t t f q o.T ",
"% > 9 u t q U ] P { 0 f t u f u 1 < 7 9 t t t t % X 1 / ;.n.v.n.y.o.q f.n.y.p.n.z.} ] >.n.n.n.p...z.d o % # 0 f t q C h.",
"% > 7 f t q o.P f C 0 t t t u 7 2 7 5 < 7 t f f 1 X ; > 9 / E s x 0 5 s x x x | x 0 0 t d K h.1.x P 1.= # , w q f t f { ",
"o % 5 q f q T P i / u f t t q q t t q q q 9 7 u 2 X % > 0 q q q f q 7 q q q q q t t f t q q C h 0 x 1.5 ; < = , t t q E ",
"o % 5 0 f 7 I ] C 1.B q q u x C C q q x x q 9 q > O + > q f t q h d 1 9 u t t t t t t t t t q t t ;.] < 2 # # X 2 t h h.",
"# : : 5 5 : 7 M { T x C o.1.o./ 1.>.-.| o.| <.>.#.3 o > q f t q B u 9 9 9 f t t q t t t f t f t q o.x , 7 : 2 # < s | 1.",
"# # % ; = = % ; 8 8 x U C 8 < , r ! / k C C P t t 8 % > 7 f t t w 7 u q 7 f t f x q f f 9 q t t q x / , 5 > 5 % < P c.P ",
"< ..U o.| E t f 1.c w ` 1.o.] < } >.U | P { o.P E B ; 5 2 q t t q u t t f t t q h w 7 q 7 q t t t q T 7 > > > : 1 f T y.",
"% 9 q x s C d * x <.1.T k 1.U % 0 x q i q s h u E ` # > 5 q t f q 0 t f t t t f q q q 7 q q t f f u E 9 5 > > 5 % 8 x h.",
"% > 5 q 7 } B X 5 q x q 0 b x # : 9 u q 7 9 q q x P ; 5 7 u q 9 5 > 7 7 9 f f 0 5 5 C 2 5 5 w 0 7 9 ) 0 5 > > 5 % + u z.",
"X = > ; ; 2 7 X : q q f q c ! o ; : ; : : > : % ; 9 o : : ; : : % # ; > : ; : : ; 5 < ; > ; * ; : ; 2 < 0 5 2 > 5 % o 3 ",
", % % , , < % + 9 f t t q { q., < % + = 2 1 # , , % = < < # % < , , % = < , < 2 % = , < 2 < % % < , % % 3 q 9 1 2 0 < # ",
"h.T P z.o.y.c # 7 q t t q ;.U 1 1.1.C T f.o.< ) z.{ 1.r.f./ < #.f.h.} ] z.1.P f.] f o.z.1.v.! 6 q.y.o.o.<.K y.f.] 1.f.>.",
"U z.o.P q | c ; 2 7 f f q C T % 9 { h.o.s f.< > u { o.w M 1.; 5 q x f.o.E d 0 x y.q.{ P s y.C @ 7 s 1.1.s 0 x o.o.u x ] ",
"u x f q 0 { j @ 5 5 7 q 5 w 1.% : 9 x d d 1., % 7 f f 0 h 1.# ; 7 q s f 0 q t q s x q 0 P z.0 X ; 9 s s q f q f f q q 0 ",
"t q t t s q.8 X # ; : % O ; 5 # % 9 t 0 | { # % 9 t t q ] 1.# % 5 t t t f t t t q q f q C h.B + > q t t f t t t t t t f ",
"t f 0 9 d y.8 % 8 8 8 8 8 < < # ; 9 u q P 1.% ; 0 f 9 C h.s + : q f q 0 f t t t t t t t t p._ % 7 f f q 9 t t f f t t t ",
"9 q 1 2 7 E B ; T { C k ] o.| , 5 q t f 0 T < % s 0 7 C h.C O : q f q q q t q 7 f t t t q T u % 9 q 9 2 > 5 5 q 9 5 9 q ",
"* % o X ; 5 < + 2 5 2 : 5 5 x % 2 f t q f | < 5 c 3 f q P f.# ; 9 f q h q q 9 0 t t t f t o.C   % : ; @ # ; @ ; ; @ @ % ",
"3 % 3 e 3 o X o + + + + o X # o 1 u q u | q.% = 8 5 q q P { + # 5 5 5 q x q 1 q t t q 9 9 ..] , r 8 8 ; - , 8 8 0 8 8 8 ",
"f.T >.v.! 8 9 % + X + ; % # o o : 9 u q E y.- # 5 q 7 9 o.U + # > 4 : 1 1 # + 5 5 5 2 : ; 7 t 2 >.f.n.y.{ { z.1.1.1.y.n.",
"] 1.f U ^ x ..0 9 3 7 q u 7 + o : 5 7 2 2 T , @ 5 9 5 5 0 E # X # % + o o o + % % % # o + % + % 5 u P P 1.{ h q q q f { ",
"q f 0 T ! 6 | f t 9 q t f 2 # o o # O o o % + X # ; @ # * % - ; # X X o o o X X X X X o X o o + : q q 0 f q q f t t q t ",
"f t f 1.u 1 o.C q 9 7 q u , X 1 ! ! ] P f ^ ] ! f D ] ! s 2 C M 7 1 2 1 ; 1 % 2 0 7 % # % # + X # q f f t t u t t t t t ",
"7 0 u h.u g o.q 0 s u t q 5 # o 8 E { h.v.;.P o.v.1.T y.n.{ K T q f f f q 9 t 0 7 f q 9 u 1 X o ; 7 t 0 7 q 7 q q f f t ",
": 5 7 x T E y.P T | q.f.I U < X + 7 f u C u 0 u B t q f / 1.c y.x t f f x T x u 9 q s s f s % # 5 > 5 ; > 5 > 5 5 9 9 7 ",
"X + O $ % f C 0 x q x C / ] h + X < u q q t t t q t f q x 1.c T P U T P C ] C h i 3 r c C ..0 @ * + O . o o + = ; * O X ",
"t 1 t c j 8 8 c 5 h C 9 0 C h # X 2 u t t t t t t t t q x o.3 B D ] x 2 7 1 i c c 8 < 8 P { B i 6 , 3 c i i < 6 j c j j ",
"z.o.;.| >.v.>.n.0 9 1.y.} y.o.% o 2 u q t t t t t t t q U 1.: P y.z.1.U z.2 k o.>.p.| z.>./ o.v.>.7 1 T b f.>.1.q.....y.",
"U | f 0 q ! x ! < ; 9 x h P C 5 % % 0 u f t t t t t t q o.C % > f P U o.f., ; 7 t T 1.C f 0 q x z.P % 7 q s o.K t 0 0 u ",
"9 q t u t q f | 1 2 q q 0 T | 1 > % # < 0 t f t t t t q o.d % > 9 t q f y., % 9 f q q q t f t q } ` # 2 q f t q 9 q u t ",
": 5 7 9 5 5 7 E 8 * 9 q 7 9 { 1 5 : ; ; # % q f t t t q ] 1.# : 7 t t f y., X 7 u t t t t t f q b T X % 5 9 9 9 2 5 9 9 ",
"o % : : % # ; : # o # 1 ; # : , 7 > 2 : ; X 1 u t t t q h 1.# ; 5 q q T | % % 7 t t t t t t t t f C o # # # ; : = : ; # ",
"o o o o X X X X X o o X X o X , q > > ; o % 0 t t t t q / 1.# % 5 q q ] 1., > > q f t t t t t 0 C P o X o o o o X X o o ",
"% + X o % % % % # o o # % + X , 9 > > > # 0 t f u u f g 1.s # > 9 t q u y.2 : 9 t t t t t t q M z.f h 8 # + o X % % + o ",
"9 5 , , f q q 7 2 ; - 0 7 ; X , 5 > > : % 7 u 0 6 8 8 s o.K % 5 f t q h 1., : q f t t t t t q x 1.x { #.9 8 # < q q 2 % ",
"f f f f t t q f u u f f f % X , q 2 5 2 % ; 5 % ; ; # 1 1 B 1 2 0 f q ] { # ; 7 f t t f t t f 0 F ;.x 1.] w 9 f u f q 9 ",
"t t f t t q 7 7 9 7 q t f % X % 3 7 : % + # + ; ; ; % % X X # : 9 f q s } & # > q f t 0 t t t q ] ;.q { ] q u q 9 q f f ",
"t < 0 u 9 0 u 0 9 9 q t f % X = : > 2 # ; # X 8 ] ! x 7 i P + # 9 t q s h.1 o 2 0 q q 7 t t q s ;.0 0 y.s q 0 q 9 7 0 f ",
"f 0 2 q 5 0 q t t f q q f <   8 Q 7 q 9 u 5 o 1 M ] z.>.q.y.# % 5 t s o.h.1 ; q q 7 5 q t t t t { 0 i | 7 2 8 f t t 9 q ",
"] 1.M q P P P | x 0 C x f 8 . 8 { q 9 7 q q % % : 9 P P o.1.; > 5 9 q w f.2 > 7 g 0 5 5 7 f t 7 U ! C y.s s f.T s q C P ",
"1.E ;.P 1.1.;.o.| 1.f.] ] 1., < n.;.C o.T T w X ; q t 0 P U + ; > > : % u , # > x 1 2 # : 5 5 ; 7 P x 1.o.P E z.f.;.q.o.",
", 1 x d 7 ; q q q 0 c f x K q 2 8 8 8 t r t 3 X % q f q x C # # # ; # o o # # % < % % # # % % + = ; , 1 h u q u 8 h K w ",
"7 C q.y., , y./ u F 1.p.{ P f.y.] q K o.| o.t o : 9 f q T -.2 | C | T u T 1.1.] d 7 < 1./ d q D o.1.u 1 ;.f.o.x P o.q.q.",
"1.f.T y., 2 x o.y.1.P x 1.n.1.x | | 1.P h { ] % > 5 t u ;.] % 0 b P y.y.;.K d / n.x O 7 F o.1.T h T C # 0 x o.v.b.h.o.P ",
"{ P q q.< : 7 u F q q 0 d P s q q t q q 0 P ! * 4 5 q C h.d + ; 5 q u F t q q s y.{ + 1 q h K q 0 x | # # 9 q b P x q q ",
"q q x p., # 7 f q t f f q q q f t t t f t { / # > 7 f q / 1.# # 7 t t q t t f q o.q.# % 0 f q t h o.T # % 9 f q q q t t ",
"t t | z., X 5 f t t t t t f t t t t t q f z.P X 5 f t q C o.# ; 9 f t f t t t q C 1.# # 5 q f q C z.x % > 5 q f f t t t ",
"q x y.h., # 2 0 f t t t t t t t t t t q F >.7 o 2 q t q o.u % > 9 f t t t t t q T T # : 7 t t f q T 1.% : 5 q t t t t t "
};
