/* XPM */
static char *_fdb33917192420db46a949a31101a6btx6pqCXVCjm2Uty4[] = {
/* columns rows colors chars-per-pixel */
"60 60 58 1 ",
"  c #C3C3C3",
". c #C5C5C5",
"X c gray78",
"o c #C8C8C8",
"O c #CDCDCD",
"+ c #CECECE",
"@ c #D0D0D0",
"# c #D2D2D2",
"$ c gray83",
"% c #D5D5D5",
"& c #D7D7D7",
"* c #D8D8D8",
"= c gray85",
"- c #DADADA",
"; c gray86",
": c gainsboro",
"> c #DDDDDD",
", c gray87",
"< c #DFDFDF",
"1 c #E1E1DF",
"2 c gray88",
"3 c #E1E1E1",
"4 c #E2E2E2",
"5 c gray89",
"6 c #E4E4E4",
"7 c gray90",
"8 c #E5E5E7",
"9 c #E6E6E6",
"0 c #E7E7E7",
"q c gray91",
"w c #E9E9E9",
"e c #EAEAEA",
"r c gray92",
"t c #ECECEC",
"y c gray93",
"u c #EEEEEE",
"i c #EFEFEF",
"p c gray94",
"a c #F1F1F1",
"s c gray95",
"d c #F3F3F3",
"f c #F4F4F4",
"g c gray96",
"h c #F6F6F6",
"j c gray97",
"k c #F8F8F8",
"l c #F9F9F9",
"z c #FAFAF8",
"x c gray98",
"c c #FBFBFB",
"v c #FCFCFA",
"b c #FBFBFD",
"n c gray99",
"m c #FDFDFD",
"M c #FEFEFC",
"N c #FCFCFE",
"B c #FEFEFE",
"V c white",
/* pixels */
";q7qqqqqqqqqqqqq7777qqqqqqqqi#$q77777777777qqqqqqqqqqqqqiii3",
"fVVVVVVVVVVVVVVVVVVVVVVVVVVVV7qVVVVVVVVVVVVVVVVVVVVVVVVVVVVf",
"pVxxxxxxxxxxxxxxxxxxxxxxxxxfV37Vxxxxxxxxxxxxxxxxxxxxxxxxxxxi",
"pVxVVVVVVVVVVVVVVVVVxxxxVVVxV3qVVVxVVVVVVVVVVxxVVVVVVVVVVVVp",
"iVxVxVxVxxxxxxxxVVxxxxxxxxxxV<7VxxxxVVxxVVxxxxVVxxxxxxxxxxVp",
"pVVVxVxVxVxxVxxxVVVxxxVVxxVxV<7VxxVxVVVVVVVVVVVVxxxxxxVVxxVp",
"iVxVxxxVVVVVVVxxVxxxxxxxxxxxV37VxxxxxxxxxxxVVVVxVxVVVVVVxxVp",
"iVVVxVxVVVVVVVxxVVxxxxxxxxxxV37VVVVVVVxxVVVxxVxVVVVxxxxxxxVp",
"iVxVxVxxVVVVVVVxVxVVVxxxxxxxV37VxxVxxVxVxxxVVVxxVVxxxVxxxVVp",
"iVxVxVxVVVxVVVxxxVVVVxxxxxxxV<7VxxVVVVxxxxxVVVxxxVxxxVxxxVVi",
"iVxVxVxVxxVVVVVVxxVVVxxxVVxxV<7VxxVVVVVxxxVVVVxxxVxxxVxxxVVi",
"iVxVxVxVxxxVVVVVxxVVVVxxVVxxV<7VxxVVVVVVxxVVVVxxVxxxxVxxxVVi",
"iVxxxVxVxxVVVVxVxxxxxxxxVVxxV<7VxxxVxxxxxVVVVVxxVVxxxxxxxVVi",
"iVxVxVxVxxVVxVxxxxVVxxxxVVxxV<7VxxxxxxxxxVVVVVxxVVxxxxxxxxVi",
"iVxVxVxVxVVVxxxxVVVVxxVVVVxxV<7VxxVVVVxxVVVVVVVVVVxxxVxxxVVi",
"iVxVxVxVVVVVxxxxVVVVxVVVVVxxV<7VxxVVVVxxVVVVVVVVVVxxxVxxxxVi",
"iVxVxVVVxxVVxxxxVVxxxxxVxxxxV<7VxxxxVVxxxxxxxxxVVVVVxxxxxxVq",
"iVVVxVVVxVVVVxxxVVxxxxxxVVxxV37VxxxxVVVVxxxxxxxVVVVxxxxxxxVq",
"iVxVxVVVxxVVVVxxxxxxxVVVVVxxV37VxxVVVVVVVVxxxxxVVVxxxxxxxxVq",
"iVxVxVxxxxVVVVxxxxxxxVVVVxxxV<7VxxVVVVVVVVVVxxxVxxxVxxxxxxVq",
"iVxVxVxxxxxVVVVxVVxxxxVVVVxxV<7VxxVVVVVVVVxxxxVVxxxxxxxxxxVq",
"iVVVxVxxxxVVVVVVVVVVxxVVVVVxV<7VxxVVVVVVVVxxxxVVVVxxxxxxxxVq",
"iVVVxVVVVVVVVVVVVVVVxxxVVVVxV<7VxxxxVVVxVVxxVVVVVVxxxxxxxxV7",
"iVVVxVxVVVVVVVVxVVVVxxxVxVVxV<7VxxxxxxVVVVxxVVVVVVVxxxxxxxV7",
"pVVVVxVVxVVVVVxxxxVVVVxxxxVxV3qVxxVVVxxxxxxxVVVVVVxxxxxxxxVq",
"pVVVVVVxVVVVVVxxxxVVVVVVxxVxV<qVxxVVVxxxxxxxVVVVVVxxxxxxxxVi",
"pxxVVxVxVVxxxxxxxVVVVVxxVxVxV<7VxVVVVVVxVVxxVVVVVVVxVxxxxxVi",
"ixxVxxxxxxxxxxxxxxxxxxxxxxxxV;3VxxxxxxxxxxxxxxxxxxxxxxxxxxVq",
"fVVVVVVVVVVVVVVVVVVVVVVVVVVVV37VVVVVVVVVVVVVVVVVVVVVVVVVVVVp",
"+$;;;$;;;$;;;;;;$$;;;;;;<3<<3 X<<33<<<3<33<<<<<<<<<<<<<3337#",
"$<<<<<<<<<<<<<<<<<<<<3337q777+#7777777777777777777777777qqq$",
"VVVVVVVVVVVVVVVVVVVVVVVVVVVVVqqVVVVVVVVVVVVVVVVVVVVVVVVVVVVi",
"fVVVVxVxxxVVVxxxxxxxxxxxVxxxV73VxxxxxxxxxxxxxxxxxxxxxxxxxxV7",
"xVVVVVVxVVVVVVVVxxxxVxVVxxxxV73VxxxVVVVxxxxxxxxxxxxxxxxxxxV7",
"xVVVVVVVVVVVVVVVVxVVVVVVVxxxV73VxVVVVVxxxVVVVVVVxxxxxxxxxxVq",
"xVVVVVVVVVVVVVVVVVVVVVVVVxVxV73VVVVVVVxxxxVVVVVVxxxxxxxxxxVq",
"fVVVVVVVVVVVVVVVVVVVVVVVVxVxV73VxVVVVVxxVVVVVVVVxxxxxxxxVxVq",
"fVVVVVVxVVVVVVVVVVVVVVVVVxVxV73VxxVVVVxxVVVVVVxxxxxxxxxxxxV7",
"fVVVVVVxVVVVVVVVxxxxVxVVVxVxV73VxxxxVVVxVVVVxxxxxxxxxxxxxxV7",
"fVVVVVVxVVVVVVVVxxxxxxVVVxxxV73VxxxxVVVxVVxxxxxxVVVVVVxxxxV7",
"pVVVVxVVVVVVxxxxVVVVVVxVVVxxV3<VxxVVVxxxxxVVVVVVxxxxVVxxxxV3",
"pVVVVxVVVVVVxxxxVVVVVVxxVVVxV7<VxxVVVxxxxxVVVVVVxxxxVVVVxxV3",
"pVVxVxVVVVVVVVxxVxxxxxxxVVVxV7<VxxVVVVxxxxxxxxVVxxVVVVVVVxV3",
"pVVxVxVVVVVVVVxxVxxxxxxxVVVxV7<VxxVVVVxxxxxxxxxxxxVVVVVVVxV3",
"pVVVVxVVVVVVVVVVVVxxVVxVVVVxV73VxxxVVVVxxxxxxxxxxxVVVVVVVxV3",
"pVVVVxVVVVVVVVVVVVxxVVxxxVVxV73VxxVVVVVxxxxxxxVVxxVVVVVVVxV3",
"pVVVVxVVVVVVVVVVVVVVVVxxxVVxV73VxxVVVVVVxxVVVVVVxxxxxxVVxxV3",
"pVVVVxVVVVVVVVVVVVVVVVxxxVVxV73VxxVVVVVVxxVVVVVVxxxxxxVVxxV3",
"fVVVVVVVVVVVVVVVVVVxxxxxVxxxV73VxxVVVVVxxxxVVVxxxxxxVVVVxxV3",
"pVVVVVxVVVVVVVVVVVVxxxVxVxVxV73VxxVVVVxxxxxxVVxVxxxxVVVVxxV3",
"pVVVxVxVVVVVVVVVVVxxVVVVVVVxV73VxxVVxxxxxxVVVVVVxxxxxVVVxxV<",
"pVVVxVxVVVVVVxxxVVVxVVVVVVVxV73VxxVVxxxxxxxVVVVVxxxVxVVVVxV<",
"iVxVxVVVVVVVxVVVVVVVVVxxVxVxV73VxxxxxVVVVVVVxxVVxxVVxxxxVxV<",
"iVVVxVVVVVVVxxVVVVVVVVxxVxVxV73VxxxxVVVVVVVVVxVVxxVVxxxxVxV<",
"iVVVxVVVVVVVVVVxVVVVxxxxVxVVV73VxxxxVVVVVVxxxxVVxxVVVVxxVxV3",
"qVVVxVVVVVVVVVVVxxVVxxxxVxVVV73VxxxxxVVVVxxxxxVVxxVVVVVVxxV3",
"qVxVVVVVVVVVVVVxxVxVxxVxxVxxV33VVVVVVVVVVxxVVxxVxxVVVxVVxxV7",
"7VxVVVxVVVxxxVxxxxxxxxVxxVxxV3<VxxxxxxxxVxxVVxxVzxxxxxxbxxV7",
"iVVVVVVVVVVVVVVVVVVVVVVVVVVVV73VVVVVVVVVVVVVVVVVVVVVVVVVVVVq",
"#q377733<<<<<<<<<<<<<<3333<<3oX7333337733333333313333377737+"
};
