/* XPM */
static char *_faf71d2c4da4df4accfa0510fe4b7fdgGyWZmTJE6kKKPWa[] = {
/* columns rows colors chars-per-pixel */
"50 50 100 2 ",
"   c None",
".  c #BA996C",
"X  c #A3917E",
"o  c #B09471",
"O  c #DFA959",
"+  c #FBB547",
"@  c #FDB747",
"#  c #F1B24F",
"$  c #F4B34E",
"%  c #FBB648",
"&  c #FBB649",
"*  c #FAB64A",
"=  c #FBB64A",
"-  c #FBB74A",
";  c #FAB64B",
":  c #FBB74B",
">  c #FCB648",
",  c #FDB748",
"<  c #FCB649",
"1  c #FCB749",
"2  c #FDB749",
"3  c #FCB74A",
"4  c #FDB74A",
"5  c #FCB74B",
"6  c #F9B74D",
"7  c #FAB74C",
"8  c #FBB74C",
"9  c #FAB74D",
"0  c #F9B64F",
"q  c #F9B74F",
"w  c #FAB74F",
"e  c #FDB849",
"r  c #FFB848",
"t  c #FFB948",
"y  c #FDB84A",
"u  c #E7AD55",
"i  c #EAAF53",
"p  c #EBAF53",
"a  c #E9AE54",
"s  c #EFB65B",
"d  c #EEB65D",
"f  c #F4B653",
"g  c #F7B752",
"h  c #F2B554",
"j  c #F1B557",
"k  c #F7B754",
"l  c #F5B756",
"z  c #F9B750",
"x  c #F8B751",
"c  c #F7B854",
"v  c #FAB850",
"b  c #F9B956",
"n  c #F0B558",
"m  c #F5B95A",
"M  c #F5B95B",
"N  c #F8BA59",
"B  c #EEB660",
"V  c #ECB764",
"C  c #EEBB6B",
"Z  c #EBBA6E",
"A  c #EEBC6D",
"S  c #F5BA60",
"D  c #F4BB61",
"F  c #F2BB65",
"G  c #F4BC65",
"H  c #F5BE67",
"J  c #F1BD6B",
"K  c #F4BE68",
"L  c #EFBE72",
"P  c #E9BC74",
"I  c #E9BC75",
"U  c #E5BD7F",
"Y  c #EABD78",
"T  c #EBC17F",
"R  c #3B5EAE",
"E  c #3D5EAC",
"W  c #3D5FAC",
"Q  c #3E5FAC",
"!  c #3E5FAD",
"~  c #3D5FAE",
"^  c #3C5EAF",
"/  c #3E5FAE",
"(  c #3E60AD",
")  c #3F60AD",
"_  c #5A6C9F",
"`  c #6C7594",
"'  c #6F7694",
"]  c #4061AD",
"[  c #4161AD",
"{  c #4162AD",
"}  c #4061AE",
"|  c #4363AE",
" . c #4A66A9",
".. c #576BA0",
"X. c #576BA1",
"o. c #5269A4",
"O. c #586BA0",
"+. c #596CA0",
"@. c #6C7FAF",
"#. c #677DB3",
/* pixels */
"                                                                                                    ",
"                                                                                                    ",
"                                                                                                    ",
"                                                                                                    ",
"                                                                                                    ",
"                                                                                                    ",
"                                      B 6 6 6 6 6 6 6 : : 6 Z                                       ",
"                                      V 3 3 3 3 3 3 3 3 3 3 P                                       ",
"                              6 6 x l l 3 3 3 3 3 3 3 3 3 3 F J S S G L                             ",
"                            x 3 3 3 3 3 3 3 3 3 3 3 3 3 3 3 3 3 3 3 3 M                             ",
"                            c 3 3 3 3 3 3 3 3 3 3 3 3 3 3 3 3 3 3 3 3 M                             ",
"                      g 6 c 6 3 3 3 3 3 3 3 3 3 3 3 3 3 3 3 3 3 3 3 3 v K G T                       ",
"                      6 3 3 3 3 3 3 3 3 3 3 3 3 3 3 3 3 3 3 3 3 3 3 3 3 3 3 C                       ",
"                      6 3 3 3 3 3 3 3 3 3 3 3 3 3 3 3 3 3 3 3 3 3 3 3 3 3 3 A                       ",
"                g : 3 3 3 3 3 3 3           3 3 3 3 3 3 3 3 3 3 3             N b Y                 ",
"                s 3 3 3 3 3 3 3 3           3 3 3 3 3 3 3 3 3 3 3             3 : P                 ",
"                d 3 3 3 3 3 3 3             + 3 3 3 3 3 3 3 3 3 3             3 6 U                 ",
"                s 3 3 3 3 3                       3 3 3 3 3                                         ",
"                n 3 3 3 3 3                       3 3 3 3 3                                         ",
"                j 3 3 3 3 3             E E E R ` # 3 3 3 3               ) ) ) {                   ",
"                j 3 3 3 3 3           E ) ) ) E _ a e 3 3 3             ) ) ) ) { #.                ",
"                j 3 3 3 3 3           E ) ) ) E _ a e 3 3 3             ) ) ) ) { @.                ",
"            : 3 : 3 3 3 3 3           E ) ) ) E _ a e 3 3 3             ) ) ) ) ) X e :             ",
"            3 3 3 3 3 3 3 3           E ) ) E E +.a e 3 3 3             ) ) ) E E o e :             ",
"            3 3 3 3 3 3 3 3             { { o.X.` p 3 3 3 3             { {  .O.X.. e :             ",
"            3 3 3 3 3 3 3 3 3 3 3           O u p : 3 3 3 3 3 3 3             u u $ 3 :             ",
"            3 3 3 3 3 3 3 3 3 3 3           @ e e 3 3 3 3 3 3 3 3             e e 3 3 :             ",
"            3 3 3 3 3 3 3 3 3 3 3           3 3 3 3 3 3 3 3 3 3 3           3 3 3 3 3 :             ",
"            3 3 3 3 3 3 3 3 3 3 3 3 3 3 3 3 3 3 3 3 3 3 3 3 3 3 3 3 3 3 3 3 3 3 3 3 3 :             ",
"            3 3 3 3 3 3 3 3 3 3 3 3 3 3 3 3 3 3 3 3 3 3 3 3 3 3 3 3 3 3 3 3 3 3 3 3 3 :             ",
"            3 3 3 3 3 3 3 3 3 3 3 3 3 3 3 3 3 3 3 3 3 3 3 3 3 3 3 3 3 3 3 3 3 3 3 3 3 :             ",
"            3 3 3 3 3 3 3 3 3 3 3 3 3 3 3 3 3 3 3 3 3 3 3 3 3 3 3 3 3 3 3 3 3 3 3 3 3 :             ",
"            3 3 3 3 3 3 3 3 3 3 3 3 3 3 3 3 3 3 3 3 3 3 3 3 3 3 3 3 3 3 3 3 3 3 3 3 3 :             ",
"            3 3 3 3 3 3 3 3 3 3 3 3 3 3 3 3 3 3 3 3 3 3 3 3 3 3 3 3 3 3 3 3 3 3 3 3 3 :             ",
"            3 3 3 3 3 3 3 3 3 3 3 3 3 3 3 3 3 3 3 3 3 3 3 3 3 3 3 3 3 3 3 3 3 3 3 3 3 :             ",
"            3 3 3 3 3 3 3 3 3 3 3 3 3 3 3 3 3 3 3 3 3 3 3 3 3 3 3 3 3 3 3 3 3 3 3 3 3 :             ",
"            3 3 3 3 3 3 3 3 3 3 3 3 3 3 3 3 3 3 3 3 3 3 3 3 3 3 3 3 3 3 3 3 3 3 3 3 3 :             ",
"            3 3 3 3 3 3 3 3 3 3 3 3 3 3 3 3 3 3 3 3 3 3 3 3 3 3 3 3 3 3 3 3 3 3 3 3 3 :             ",
"            3 3 3 3 3 : : : 3 3 3 3 3 3 3 3 : : : : : : 3 3 3 3 3 3 3 3 : : : 3 3 3 3 :             ",
"            3 3 3 3 3       3 3 3 3 3 3 3 3             3 3 3 3 3 3 3 3       3 3 3 3 :             ",
"            3 3 3 3 3       3 3 3 3 3 3 3 3             3 3 3 3 3 3 3 3       3 3 3 3 :             ",
"            3 3 3               3 3 3 3 3 3             3 3 3 3 3 :               : 3 :             ",
"            3 3 3                 3 3 3 3 3             3 3 3 3 3                 : 3 :             ",
"            3 3                   3 3 3 3 3             3 3 3 3 3                 : 3 :             ",
"                                                                                                    ",
"                                                                                                    ",
"                                                                                                    ",
"                                                                                                    ",
"                                                                                                    ",
"                                                                                                    "
};
